<svg width="55" height="32" viewBox="0 0 55 32" fill="none" xmlns="http://www.w3.org/2000/svg">
<path d="M3.37844 24.6998V25.1438H1.56044V26.5538H3.03644V26.9978H1.56044V28.8818H1.01444V24.6998H3.37844ZM7.73388 28.9238C7.34588 28.9238 6.99188 28.8338 6.67188 28.6538C6.35188 28.4698 6.09788 28.2158 5.90988 27.8918C5.72588 27.5638 5.63388 27.1958 5.63388 26.7878C5.63388 26.3798 5.72588 26.0138 5.90988 25.6898C6.09788 25.3618 6.35188 25.1078 6.67188 24.9278C6.99188 24.7438 7.34588 24.6518 7.73388 24.6518C8.12588 24.6518 8.48188 24.7438 8.80188 24.9278C9.12188 25.1078 9.37388 25.3598 9.55788 25.6838C9.74188 26.0078 9.83388 26.3758 9.83388 26.7878C9.83388 27.1998 9.74188 27.5678 9.55788 27.8918C9.37388 28.2158 9.12188 28.4698 8.80188 28.6538C8.48188 28.8338 8.12588 28.9238 7.73388 28.9238ZM7.73388 28.4498C8.02588 28.4498 8.28788 28.3818 8.51988 28.2458C8.75588 28.1098 8.93988 27.9158 9.07188 27.6638C9.20788 27.4118 9.27588 27.1198 9.27588 26.7878C9.27588 26.4518 9.20788 26.1598 9.07188 25.9118C8.93988 25.6598 8.75788 25.4658 8.52588 25.3298C8.29388 25.1938 8.02988 25.1258 7.73388 25.1258C7.43788 25.1258 7.17388 25.1938 6.94188 25.3298C6.70988 25.4658 6.52588 25.6598 6.38988 25.9118C6.25788 26.1598 6.19188 26.4518 6.19188 26.7878C6.19188 27.1198 6.25788 27.4118 6.38988 27.6638C6.52588 27.9158 6.70988 28.1098 6.94188 28.2458C7.17788 28.3818 7.44188 28.4498 7.73388 28.4498ZM14.5567 28.8818L13.5607 27.1718H12.9007V28.8818H12.3547V24.6998H13.7047C14.0207 24.6998 14.2867 24.7538 14.5027 24.8618C14.7227 24.9698 14.8867 25.1158 14.9947 25.2998C15.1027 25.4838 15.1567 25.6938 15.1567 25.9298C15.1567 26.2178 15.0727 26.4718 14.9047 26.6918C14.7407 26.9118 14.4927 27.0578 14.1607 27.1298L15.2107 28.8818H14.5567ZM12.9007 26.7338H13.7047C14.0007 26.7338 14.2227 26.6618 14.3707 26.5178C14.5187 26.3698 14.5927 26.1738 14.5927 25.9298C14.5927 25.6818 14.5187 25.4898 14.3707 25.3538C14.2267 25.2178 14.0047 25.1498 13.7047 25.1498H12.9007V26.7338ZM23.6767 27.9518H21.8527L21.5167 28.8818H20.9407L22.4527 24.7238H23.0827L24.5887 28.8818H24.0127L23.6767 27.9518ZM23.5207 27.5078L22.7647 25.3958L22.0087 27.5078H23.5207ZM29.2496 28.8818L28.2536 27.1718H27.5936V28.8818H27.0476V24.6998H28.3976C28.7136 24.6998 28.9796 24.7538 29.1956 24.8618C29.4156 24.9698 29.5796 25.1158 29.6876 25.2998C29.7956 25.4838 29.8496 25.6938 29.8496 25.9298C29.8496 26.2178 29.7656 26.4718 29.5976 26.6918C29.4336 26.9118 29.1856 27.0578 28.8536 27.1298L29.9036 28.8818H29.2496ZM27.5936 26.7338H28.3976C28.6936 26.7338 28.9156 26.6618 29.0636 26.5178C29.2116 26.3698 29.2856 26.1738 29.2856 25.9298C29.2856 25.6818 29.2116 25.4898 29.0636 25.3538C28.9196 25.2178 28.6976 25.1498 28.3976 25.1498H27.5936V26.7338ZM35.072 24.6998V25.1438H33.932V28.8818H33.386V25.1438H32.24V24.6998H35.072ZM38.0901 24.6998V28.8818H37.5441V24.6998H38.0901ZM42.1467 28.9238C41.8707 28.9238 41.6227 28.8758 41.4027 28.7798C41.1867 28.6798 41.0167 28.5438 40.8927 28.3718C40.7687 28.1958 40.7047 27.9938 40.7007 27.7658H41.2827C41.3027 27.9618 41.3827 28.1278 41.5227 28.2638C41.6667 28.3958 41.8747 28.4618 42.1467 28.4618C42.4067 28.4618 42.6107 28.3978 42.7587 28.2698C42.9107 28.1378 42.9867 27.9698 42.9867 27.7658C42.9867 27.6058 42.9427 27.4758 42.8547 27.3758C42.7667 27.2758 42.6567 27.1998 42.5247 27.1478C42.3927 27.0958 42.2147 27.0398 41.9907 26.9798C41.7147 26.9078 41.4927 26.8358 41.3247 26.7638C41.1607 26.6918 41.0187 26.5798 40.8987 26.4278C40.7827 26.2718 40.7247 26.0638 40.7247 25.8038C40.7247 25.5758 40.7827 25.3738 40.8987 25.1978C41.0147 25.0218 41.1767 24.8858 41.3847 24.7898C41.5967 24.6938 41.8387 24.6458 42.1107 24.6458C42.5027 24.6458 42.8227 24.7438 43.0707 24.9398C43.3227 25.1358 43.4647 25.3958 43.4967 25.7198H42.8967C42.8767 25.5598 42.7927 25.4198 42.6447 25.2998C42.4967 25.1758 42.3007 25.1138 42.0567 25.1138C41.8287 25.1138 41.6427 25.1738 41.4987 25.2938C41.3547 25.4098 41.2827 25.5738 41.2827 25.7858C41.2827 25.9378 41.3247 26.0618 41.4087 26.1578C41.4967 26.2538 41.6027 26.3278 41.7267 26.3798C41.8547 26.4278 42.0327 26.4838 42.2607 26.5478C42.5367 26.6238 42.7587 26.6998 42.9267 26.7758C43.0947 26.8478 43.2387 26.9618 43.3587 27.1178C43.4787 27.2698 43.5387 27.4778 43.5387 27.7418C43.5387 27.9458 43.4847 28.1378 43.3767 28.3178C43.2687 28.4978 43.1087 28.6438 42.8967 28.7558C42.6847 28.8678 42.4347 28.9238 42.1467 28.9238ZM48.7162 24.6998V25.1438H47.5762V28.8818H47.0302V25.1438H45.8842V24.6998H48.7162ZM52.5143 28.9238C52.2383 28.9238 51.9903 28.8758 51.7703 28.7798C51.5543 28.6798 51.3843 28.5438 51.2603 28.3718C51.1363 28.1958 51.0723 27.9938 51.0683 27.7658H51.6503C51.6703 27.9618 51.7503 28.1278 51.8903 28.2638C52.0343 28.3958 52.2423 28.4618 52.5143 28.4618C52.7743 28.4618 52.9783 28.3978 53.1263 28.2698C53.2783 28.1378 53.3543 27.9698 53.3543 27.7658C53.3543 27.6058 53.3103 27.4758 53.2223 27.3758C53.1343 27.2758 53.0243 27.1998 52.8923 27.1478C52.7603 27.0958 52.5823 27.0398 52.3583 26.9798C52.0823 26.9078 51.8603 26.8358 51.6923 26.7638C51.5283 26.6918 51.3863 26.5798 51.2663 26.4278C51.1503 26.2718 51.0923 26.0638 51.0923 25.8038C51.0923 25.5758 51.1503 25.3738 51.2663 25.1978C51.3823 25.0218 51.5443 24.8858 51.7523 24.7898C51.9643 24.6938 52.2063 24.6458 52.4783 24.6458C52.8703 24.6458 53.1903 24.7438 53.4383 24.9398C53.6903 25.1358 53.8323 25.3958 53.8643 25.7198H53.2643C53.2443 25.5598 53.1603 25.4198 53.0123 25.2998C52.8643 25.1758 52.6683 25.1138 52.4243 25.1138C52.1963 25.1138 52.0103 25.1738 51.8663 25.2938C51.7223 25.4098 51.6503 25.5738 51.6503 25.7858C51.6503 25.9378 51.6923 26.0618 51.7763 26.1578C51.8643 26.2538 51.9703 26.3278 52.0943 26.3798C52.2223 26.4278 52.4003 26.4838 52.6283 26.5478C52.9043 26.6238 53.1263 26.6998 53.2943 26.7758C53.4623 26.8478 53.6063 26.9618 53.7263 27.1178C53.8463 27.2698 53.9063 27.4778 53.9063 27.7418C53.9063 27.9458 53.8523 28.1378 53.7443 28.3178C53.6363 28.4978 53.4763 28.6438 53.2643 28.7558C53.0523 28.8678 52.8023 28.9238 52.5143 28.9238Z" fill="white"/>
<path d="M0.144531 17.8288L1.73784 5.97831H4.69913L4.52746 7.26581H4.95664C5.21951 6.86882 5.60576 6.52012 6.12076 6.22506C6.63577 5.93001 7.2849 5.78516 8.06814 5.78516C8.91039 5.78516 9.56488 5.95148 10.0316 6.27336C10.4983 6.6006 10.8309 7.02442 11.0294 7.55015H11.4586C11.7966 7.04051 12.2365 6.61671 12.7729 6.2841C13.3094 5.95149 14.0337 5.78516 14.9403 5.78516C15.6699 5.78516 16.3136 5.94073 16.8716 6.25188C17.4295 6.56303 17.8426 7.03512 18.1162 7.66279C18.3898 8.29046 18.4649 9.08446 18.3361 10.0394L17.2954 17.8288H14.2858L15.2997 10.2539C15.3856 9.59945 15.2836 9.11127 14.9939 8.78402C14.7042 8.45678 14.2536 8.29585 13.6528 8.29585C12.9661 8.29585 12.4082 8.51579 11.979 8.95032C11.5445 9.39023 11.2762 10.0125 11.1689 10.828L10.2301 17.8288H7.22053L8.23444 10.2539C8.32028 9.59945 8.21835 9.11127 7.92865 8.78402C7.63896 8.45678 7.18833 8.29585 6.58749 8.29585C5.90081 8.29585 5.34289 8.51579 4.91371 8.95032C4.47917 9.39023 4.21095 10.0125 4.10366 10.828L3.16484 17.8288H0.144531V17.8288Z" fill="#FFFDFD"/>
<path d="M22.1362 4.59405C21.5944 4.59405 21.1599 4.41703 20.8326 4.06833C20.5054 3.71962 20.382 3.25825 20.4571 2.68423C20.5322 2.11022 20.7843 1.64884 21.2028 1.30014C21.6212 0.951438 22.104 0.774414 22.6459 0.774414C23.2038 0.774414 23.6383 0.951438 23.9602 1.30014C24.2767 1.64884 24.4001 2.11022 24.325 2.68423C24.2499 3.25825 24.0031 3.71962 23.59 4.06833C23.1823 4.41703 22.6941 4.59405 22.1362 4.59405ZM18.8691 17.8287L20.3444 7.8236L23.4559 5.97815L21.8787 17.8287H18.8691Z" fill="#FFFDFD"/>
<path d="M28.2816 18.1607C27.3427 18.1607 26.4951 17.9247 25.7387 17.4579C24.9823 16.9859 24.4136 16.2992 24.0435 15.3926C23.6733 14.4859 23.5714 13.3862 23.7431 12.0933L23.7913 11.7124C23.963 10.4195 24.3546 9.32511 24.9716 8.41312C25.5831 7.50649 26.3288 6.81446 27.2033 6.34774C28.0777 5.87565 28.9897 5.64497 29.9446 5.64497C31.0283 5.64497 31.8223 5.822 32.3319 6.18143C32.8415 6.54087 34.1666 7.89811 34.3651 8.31119L33.9037 6.39063L34.6494 1.10645H37.659L35.4434 17.8281H32.4821L32.6699 16.3957H32.2407C31.9081 16.841 31.4414 17.2487 30.8244 17.6135C30.2129 17.9783 29.3652 18.1607 28.2816 18.1607ZM29.5369 15.532C30.4596 15.532 31.2697 15.2316 31.9725 14.6361C32.6752 14.0406 33.099 13.1662 33.2493 12.0182L33.2814 11.7768C33.4317 10.6287 33.2439 9.75966 32.7074 9.15882C32.1763 8.56334 31.436 8.26289 30.4972 8.26289C29.5745 8.26289 28.7644 8.56334 28.0616 9.15882C27.3588 9.7543 26.935 10.6287 26.7848 11.7768L26.7526 12.0182C26.6024 13.1662 26.7956 14.0353 27.3374 14.6361C27.8792 15.237 28.6142 15.532 29.5369 15.532Z" fill="#FFFDFD"/>
<path d="M37.1133 17.8281L39.3289 1.10645H42.3385L40.1282 17.8281H37.1133Z" fill="#FFFDFD"/>
<path d="M42.4542 22.609L44.9166 19.9803H49.2513C49.6965 19.9803 49.954 19.7389 50.0131 19.2614L50.4047 16.2733H49.9755C49.7341 16.6703 49.321 17.0619 48.747 17.4428C48.173 17.8237 47.3522 18.0168 46.2846 18.0168C45.3619 18.0168 44.5786 17.8076 43.9456 17.3838C43.3072 16.96 42.8512 16.3752 42.5669 15.6295C42.2826 14.8785 42.2075 14.0201 42.3362 13.0491L43.2697 5.97852H46.2792L45.378 12.8131C45.2599 13.7036 45.3887 14.3742 45.7696 14.8195C46.1505 15.2647 46.746 15.4901 47.556 15.4901C48.4788 15.4901 49.2352 15.1843 49.8253 14.5727C50.4154 13.9611 50.7856 13.1028 50.9304 12.003L51.7244 5.98385H54.734L52.8992 19.9374C52.792 20.7474 52.4701 21.3966 51.9282 21.8847C51.3864 22.3729 50.7158 22.6143 49.9218 22.6143H42.4542V22.609Z" fill="#FFFDFD"/>
</svg>
