<svg width="80" height="32" viewBox="0 0 80 32" fill="none" xmlns="http://www.w3.org/2000/svg">
<path d="M0 25.0014L2.33136 7.63402H6.66973L6.41632 9.52445H7.04604C7.42742 8.94161 7.99759 8.43353 8.75528 8.00146C9.51298 7.5694 10.4633 7.354 11.6061 7.354C12.8428 7.354 13.8007 7.59348 14.4836 8.07242C15.1665 8.55136 15.6531 9.17475 15.947 9.94511H16.5768C17.0734 9.19756 17.7158 8.57924 18.5039 8.08889C19.292 7.59854 20.3513 7.354 21.6804 7.354C22.7523 7.354 23.6963 7.58207 24.511 8.03694C25.3244 8.49181 25.9326 9.18108 26.3343 10.1035C26.7359 11.0259 26.8436 12.1865 26.6574 13.5879L25.1344 25.0027H20.7238L22.2062 13.9021C22.3342 12.9455 22.1847 12.2271 21.759 11.7481C21.332 11.2704 20.6769 11.031 19.79 11.031C18.7865 11.031 17.968 11.3515 17.3344 11.9939C16.6997 12.6363 16.3031 13.5524 16.1447 14.7434L14.7725 25.0027H10.3619L11.8481 13.9021C11.9761 12.9455 11.8279 12.2271 11.4021 11.7481C10.9764 11.2704 10.3201 11.031 9.43315 11.031C8.42965 11.031 7.61114 11.3515 6.97762 11.9939C6.34283 12.6363 5.94624 13.5524 5.7866 14.7434L4.41058 25.0027H0V25.0014Z" fill="#FFFDFD"/>
<path d="M32.236 5.60287C31.4428 5.60287 30.8068 5.34566 30.3266 4.83251C29.8464 4.31936 29.6639 3.64149 29.7754 2.80144C29.8869 1.96139 30.2518 1.28478 30.8676 0.770363C31.4834 0.25721 32.1891 0 32.9823 0C33.7983 0 34.4407 0.25721 34.9082 0.770363C35.3757 1.28478 35.5544 1.96139 35.4429 2.80144C35.3314 3.64149 34.9728 4.31936 34.3672 4.83251C33.7628 5.34566 33.052 5.60287 32.236 5.60287ZM27.4453 25.0013L29.6082 10.3378L34.1695 7.63395L31.8559 25.0013H27.4453V25.0013Z" fill="#FFFDFD"/>
<path d="M41.2433 25.4918C39.866 25.4918 38.6231 25.1471 37.5119 24.4591C36.4007 23.7711 35.5733 22.7613 35.0272 21.4309C34.4811 20.1005 34.3328 18.4901 34.585 16.5984L34.6597 16.0383C34.9119 14.1466 35.4871 12.5362 36.388 11.2058C37.2876 9.87544 38.3785 8.8656 39.6608 8.1776C40.9418 7.48832 42.2823 7.14495 43.6824 7.14495C45.2687 7.14495 46.4344 7.40723 47.182 7.93306C47.9282 8.45888 49.8719 10.4481 50.1646 11.0551L49.488 8.24095L50.5827 0.491699H54.9908L51.742 25.0027H47.3999L47.6786 22.9019H47.0489C46.5649 23.5557 45.8744 24.1512 44.9735 24.6872C44.0726 25.2232 42.8297 25.4918 41.2433 25.4918ZM43.0843 21.64C44.4375 21.64 45.6273 21.2028 46.6536 20.3273C47.6799 19.4518 48.3046 18.1733 48.5276 16.4932L48.5744 16.1435C48.7974 14.4621 48.5174 13.185 47.7357 12.3094C46.9539 11.4339 45.8744 10.9968 44.4983 10.9968C43.1451 10.9968 41.9567 11.4339 40.9304 12.3094C39.904 13.185 39.2794 14.4634 39.0551 16.1435L39.0082 16.4932C38.7852 18.1746 39.0703 19.4518 39.8635 20.3273C40.6579 21.2028 41.7311 21.64 43.0843 21.64Z" fill="#FFFDFD"/>
<path d="M54.1904 25.0012L57.4366 0.490234H61.8447L58.6023 25.0012H54.1904Z" fill="#FFFDFD"/>
<path d="M62.0167 32.0054L65.6227 28.1536H71.9782C72.6307 28.1536 73.0045 27.8026 73.097 27.1032L73.6735 22.7256H73.0438C72.6865 23.3097 72.0859 23.8811 71.242 24.4411C70.3982 25.0012 69.1945 25.2812 67.631 25.2812C66.2765 25.2812 65.1336 24.972 64.1998 24.3537C63.266 23.7354 62.5919 22.8776 62.1776 21.7804C61.762 20.6831 61.6493 19.4224 61.8368 17.9982L63.2064 7.63379H67.6145L66.2917 17.6485C66.1194 18.9561 66.3094 19.9368 66.8657 20.5893C67.4206 21.2431 68.2936 21.57 69.4847 21.57C70.8379 21.57 71.9478 21.1202 72.8119 20.2219C73.6773 19.3235 74.2158 18.0679 74.4287 16.4575L75.5918 7.63379H79.9999L77.3087 28.0826C77.1515 29.2737 76.6764 30.2239 75.8832 30.936C75.0888 31.6481 74.1081 32.0041 72.9412 32.0041H62.0167V32.0054Z" fill="#FFFDFD"/>
</svg>
