<svg width="32" height="33" viewBox="0 0 32 33" fill="none" xmlns="http://www.w3.org/2000/svg">
<g clip-path="url(#clip0_5827_5698)">
<path d="M10.4288 16.1625L13.9344 6.37816C13.9486 6.33841 13.9863 6.31189 14.0285 6.31189H20.039C20.1119 6.31189 20.1603 6.38746 20.1298 6.45371L16.9886 13.2768C16.9276 13.4093 17.0244 13.5604 17.1703 13.5604H21.437C21.5159 13.5604 21.5637 13.6474 21.5215 13.714L13.8916 25.7411C13.8299 25.8383 13.6799 25.7716 13.7108 25.6607L16.2477 16.5499C16.2831 16.4224 16.1873 16.2963 16.055 16.2963H10.5229C10.4537 16.2963 10.4054 16.2277 10.4288 16.1625Z" stroke="white" stroke-width="1.75"/>
</g>
<defs>
<clipPath id="clip0_5827_5698">
<rect width="32" height="32" fill="white" transform="translate(0 0.31189)"/>
</clipPath>
</defs>
</svg>
