<svg width="32" height="32" viewBox="0 0 32 32" fill="none" xmlns="http://www.w3.org/2000/svg">
<path d="M14.2529 6.0381C14.4754 5.97847 14.7109 5.98904 14.9273 6.06835C15.1436 6.14766 15.3301 6.29184 15.4615 6.48121L16.4202 7.86384C16.5712 8.08176 16.795 8.23845 17.0507 8.30664L18.9311 8.81066C19.1865 8.87903 19.4578 8.85474 19.6969 8.74211L21.2189 8.02472C21.4274 7.92608 21.6613 7.89434 21.8886 7.93382C22.1158 7.97329 22.3253 8.08207 22.4884 8.24526L23.7525 9.50546C23.9157 9.66805 24.0248 9.87709 24.0648 10.104C24.1049 10.331 24.0739 10.5647 23.9762 10.7734L23.2593 12.2958C23.1463 12.5353 23.1219 12.8071 23.1903 13.0629L23.6941 14.9441C23.7627 15.1998 23.9197 15.4229 24.1373 15.5738L25.519 16.5337C25.7079 16.6655 25.8515 16.8525 25.9303 17.069C26.009 17.2856 26.019 17.5212 25.9589 17.7437L25.494 19.4674C25.4343 19.69 25.3074 19.8889 25.1306 20.0366C24.9537 20.1844 24.7356 20.274 24.5059 20.2931L22.8293 20.4331C22.5659 20.4552 22.3188 20.5699 22.1318 20.7568L20.7552 22.134C20.5682 22.3215 20.4532 22.5689 20.4305 22.8329L20.2912 24.5098C20.2721 24.7397 20.1825 24.9581 20.0345 25.135C19.8866 25.312 19.6877 25.4389 19.4649 25.4984L17.7359 25.9619C17.5134 26.0215 17.2778 26.011 17.0615 25.9317C16.8452 25.8523 16.6587 25.7082 16.5273 25.5188L15.5686 24.1362C15.4172 23.9193 15.1944 23.7624 14.9392 23.6931L13.0577 23.1893C12.8023 23.121 12.531 23.1453 12.2919 23.2579L10.7699 23.9753C10.5613 24.0739 10.3275 24.1057 10.1002 24.0662C9.87299 24.0267 9.6635 23.9179 9.50044 23.7547L8.23633 22.4945C8.0731 22.3319 7.96401 22.1229 7.92397 21.896C7.88392 21.669 7.91486 21.4353 8.01256 21.2266L8.72946 19.7042C8.84245 19.4647 8.86692 19.1929 8.79851 18.9371L8.29468 17.0559C8.22608 16.8002 8.06905 16.5771 7.85152 16.4262L6.48061 15.4634C6.2917 15.3316 6.14807 15.1446 6.06934 14.9281C5.9906 14.7115 5.98061 14.4759 6.04071 14.2534L6.50563 12.5297C6.56528 12.3071 6.6922 12.1082 6.86905 11.9605C7.0459 11.8127 7.26404 11.7231 7.49368 11.704L9.17035 11.564C9.43374 11.5419 9.68082 11.4272 9.86777 11.2403L11.2455 9.86284C11.4315 9.67509 11.5459 9.42772 11.5691 9.16425L11.7084 7.48729C11.7273 7.25931 11.8157 7.04261 11.9615 6.86637C12.1073 6.69013 12.3035 6.56283 12.5239 6.5016L14.2529 6.0381Z" stroke="white" stroke-width="2" stroke-linecap="round" stroke-linejoin="round"/>
<path d="M16.7907 18.9731C18.432 18.5331 19.406 16.8453 18.9662 15.2034C18.5264 13.5614 16.8394 12.5869 15.1981 13.0269C13.5569 13.4669 12.5829 15.1546 13.0226 16.7966C13.4624 18.4386 15.1494 19.4131 16.7907 18.9731Z" stroke="white" stroke-width="2" stroke-linecap="round" stroke-linejoin="round"/>
</svg>
