<svg width="16" height="16" viewBox="0 0 16 16" fill="none" xmlns="http://www.w3.org/2000/svg">
<path d="M3.69727 4.4253C3.69727 2.72331 5.07732 1.34326 6.7793 1.34326C8.48128 1.34326 9.86133 2.72331 9.86133 4.4253C9.86133 6.12729 8.48128 7.50734 6.7793 7.50734C5.07732 7.50734 3.69727 6.12729 3.69727 4.4253Z" stroke="#8D8D8D" stroke-width="1.5"/>
<path d="M12.0476 14.5931C12.1677 14.5931 12.2615 14.4894 12.2496 14.3699V14.3699L12.2273 14.1579L12.1938 13.9459L12.1603 13.7338L12.1157 13.5218L12.0599 13.3098L12.0041 13.0978L11.9371 12.8969L11.8702 12.6849L11.7921 12.4841L11.7028 12.2832L11.6135 12.0823L11.5689 11.9931L11.5131 11.8926L11.4685 11.7922L11.4127 11.7029L11.3569 11.6025L11.3011 11.5132L11.2453 11.424L11.1783 11.3347L11.1225 11.2454L11.0667 11.1673L10.9998 11.078L10.9328 10.9999L10.877 10.9218L10.8101 10.8325L10.7766 10.7935C10.7543 10.7675 10.7301 10.7432 10.7041 10.721V10.721C10.6781 10.6987 10.6538 10.6744 10.6316 10.6484L10.5981 10.6094L10.5311 10.5313L10.453 10.4531L10.3861 10.3862L10.3079 10.3192L10.2298 10.2523L10.2196 10.2421C10.1744 10.1969 10.1256 10.1555 10.0736 10.1184V10.1184L9.9955 10.0514L9.95735 10.0187C9.93074 9.99593 9.90246 9.97515 9.87275 9.95658L9.87173 9.95595C9.84269 9.9378 9.81506 9.91749 9.78906 9.89521V9.89521C9.76306 9.87292 9.73542 9.85262 9.70638 9.83447L9.66073 9.80593L9.57146 9.75014L9.49335 9.69435L9.40408 9.63855L9.3148 9.59392L9.22554 9.53812L9.13626 9.49349L9.04699 9.44885L8.94656 9.40422L8.85729 9.35958L8.76802 9.32611L8.66759 9.28147L8.556 9.24799L8.44442 9.20336L8.33283 9.16988L8.22124 9.1364L8.10965 9.10293L7.9869 9.08061L7.87531 9.05829L7.76372 9.03598L7.64098 9.01366L7.52939 8.99134L7.40664 8.98018L7.29505 8.96902L7.17231 8.95786L7.06072 8.94671H6.93797V8.94671C6.86375 8.93928 6.78898 8.93895 6.7147 8.9457L6.70363 8.94671H6.59204L6.4693 8.95786L6.35771 8.96902L6.23496 8.98018L6.12337 8.99134L6.00062 9.01366L5.88904 9.03598L5.76629 9.05829L5.6547 9.08061L5.54311 9.10293L5.43152 9.1364L5.30878 9.16988L5.19719 9.20336L5.0856 9.24799L5.06961 9.25279C5.00599 9.27188 4.94414 9.2964 4.88474 9.32611V9.32611L4.79547 9.35958L4.69504 9.40422L4.60577 9.44885L4.5165 9.49349L4.42723 9.53812L4.33796 9.59392L4.24868 9.63855L4.15941 9.69435L4.07014 9.75014L3.98087 9.80593L3.90276 9.86173L3.81349 9.92868L3.73538 9.98448L3.65727 10.0514L3.57915 10.1184V10.1184C3.52717 10.1555 3.47834 10.1969 3.43316 10.2421L3.42293 10.2523L3.34482 10.3192L3.26671 10.3862V10.3862C3.21471 10.4308 3.16621 10.4793 3.12164 10.5313V10.5313L3.04353 10.6094L2.97658 10.6875L2.90962 10.7544L2.84267 10.8325L2.77572 10.9218L2.70876 10.9999L2.65297 11.078L2.58602 11.1673L2.53022 11.2454L2.46327 11.3347L2.40747 11.424L2.35168 11.5132L2.29589 11.6025L2.24009 11.7029L2.1843 11.7922L2.1285 11.8926L2.08387 11.9931L2.02807 12.0823L1.9388 12.2832L1.86069 12.4841L1.78258 12.6849L1.70447 12.8969L1.64867 13.0978L1.58172 13.3098L1.53708 13.5218L1.49245 13.7338L1.44781 13.9459L1.41434 14.1579L1.39202 14.3699V14.3699C1.38595 14.4913 1.48275 14.5931 1.60431 14.5931H12.0476Z" stroke="#8D8D8D" stroke-width="1.5" stroke-miterlimit="10" stroke-linecap="round" stroke-linejoin="round"/>
<path d="M8.7793 9.12763C9.11409 8.83525 10.0278 8.25049 11.0044 8.25049C12.7805 8.25049 14.5265 9.30439 14.6175 11.7302C14.6216 11.8406 14.5317 11.9307 14.4212 11.9307H11.63" stroke="#8D8D8D" stroke-width="1.5" stroke-linecap="round"/>
<path fill-rule="evenodd" clip-rule="evenodd" d="M9.44531 7.17763C9.92353 7.52088 10.5099 7.72299 11.1434 7.72299C12.7534 7.72299 14.0588 6.41756 14.0588 4.80754C14.0588 3.19752 12.7534 1.89209 11.1434 1.89209C10.692 1.89209 10.2646 1.99469 9.88316 2.17783C10.1753 2.58059 10.391 3.04242 10.5089 3.54198C10.6997 3.44608 10.9153 3.39209 11.1434 3.39209C11.925 3.39209 12.5588 4.02594 12.5588 4.80754C12.5588 5.58914 11.925 6.22299 11.1434 6.22299C10.8268 6.22299 10.5345 6.11901 10.2987 5.94334C10.0971 6.41012 9.80528 6.82887 9.44531 7.17763Z" fill="#8D8D8D"/>
</svg>
