<svg width="33" height="32" viewBox="0 0 33 32" fill="none" xmlns="http://www.w3.org/2000/svg">
<path d="M25.9898 14.3869L26.6442 14.7532C26.817 14.4446 26.7507 14.0572 26.4851 13.8237C26.2195 13.5901 25.8269 13.5738 25.5428 13.7846L25.9898 14.3869ZM18.5777 10.8973L19.3267 10.8581C19.3061 10.4653 18.9857 10.1552 18.5925 10.1474L18.5777 10.8973ZM14.8315 6L15.5593 6.1813C15.6208 5.93409 15.5527 5.67252 15.3784 5.48675C15.204 5.30098 14.9473 5.21642 14.6967 5.26222L14.8315 6ZM26.0683 19.5381L26.7682 19.8075C26.8512 19.5919 26.8302 19.3501 26.7113 19.152L26.0683 19.5381ZM25.5428 13.7846C24.8943 14.2659 24.0922 14.5503 23.2214 14.5503V16.0503C24.4249 16.0503 25.5384 15.6557 26.4367 14.9891L25.5428 13.7846ZM23.2214 14.5503C21.1372 14.5503 19.4344 12.9151 19.3267 10.8581L17.8288 10.9365C17.978 13.7862 20.3351 16.0503 23.2214 16.0503V14.5503ZM13.9648 6.95607C13.9648 9.51606 16.0148 11.5971 18.563 11.6472L18.5925 10.1474C16.8594 10.1134 15.4648 8.69751 15.4648 6.95607H13.9648ZM14.1037 5.8187C14.0128 6.18363 13.9648 6.56476 13.9648 6.95607H15.4648C15.4648 6.68796 15.4976 6.42858 15.5593 6.1813L14.1037 5.8187ZM7.32324 15.9177C7.32324 11.3409 10.6187 7.53224 14.9663 6.73778L14.6967 5.26222C9.64919 6.18455 5.82324 10.6035 5.82324 15.9177H7.32324ZM16.6555 25.25C11.5015 25.25 7.32324 21.0718 7.32324 15.9177H5.82324C5.82324 21.9002 10.673 26.75 16.6555 26.75V25.25ZM25.3683 19.2687C24.0213 22.7685 20.6273 25.25 16.6555 25.25V26.75C21.2682 26.75 25.2058 23.8671 26.7682 19.8075L25.3683 19.2687ZM24.5878 16.8948C24.5878 18.0012 24.8934 19.0384 25.4253 19.9242L26.7113 19.152C26.3155 18.493 26.0878 17.7216 26.0878 16.8948H24.5878ZM25.3353 14.0205C24.859 14.8715 24.5878 15.8526 24.5878 16.8948H26.0878C26.0878 16.1157 26.29 15.386 26.6442 14.7532L25.3353 14.0205Z" fill="white"/>
<ellipse cx="10.108" cy="14.9066" rx="1.0934" ry="1.0934" fill="white"/>
<ellipse cx="17.4142" cy="16.6364" rx="1.0934" ry="1.0934" fill="white"/>
<ellipse cx="22.7862" cy="11.4141" rx="1.36505" ry="1.36505" stroke="white" stroke-width="1.5"/>
<ellipse cx="20.4627" cy="7.25759" rx="0.958515" ry="0.958515" stroke="white" stroke-width="1.5"/>
<ellipse cx="16.3207" cy="20.9518" rx="1.0934" ry="1.0934" fill="white"/>
</svg>
