<svg width="32" height="32" viewBox="0 0 32 32" fill="none" xmlns="http://www.w3.org/2000/svg">
<rect x="9.0459" y="9.2215" width="18.1004" height="17.9298" rx="5" stroke="#DAEF64" stroke-width="2"/>
<path fill-rule="evenodd" clip-rule="evenodd" d="M10.8535 4.84863C7.53981 4.84863 4.85352 7.53492 4.85352 10.8486V18.7784C4.85352 21.9392 7.29752 24.5291 10.3988 24.7615C9.73817 24.1108 9.25761 23.2778 9.03879 22.3441C7.74176 21.6826 6.85352 20.3343 6.85352 18.7784V10.8486C6.85352 8.63949 8.64438 6.84863 10.8535 6.84863H18.9539C20.18 6.84863 21.2773 7.40032 22.011 8.269C22.9911 8.2697 23.9052 8.55238 24.6766 9.0403C23.9095 6.61034 21.6374 4.84863 18.9539 4.84863H10.8535Z" fill="#DAEF64"/>
</svg>
