<svg width="33" height="33" viewBox="0 0 33 33" fill="none" xmlns="http://www.w3.org/2000/svg">
<circle cx="16.1121" cy="16.1802" r="16" fill="#DAEF64"/>
<path d="M9.86701 17.832L13.8019 6.84947C13.8162 6.80972 13.8538 6.7832 13.8961 6.7832H20.6549C20.7279 6.7832 20.7763 6.85877 20.7458 6.92502L17.2041 14.6179C17.1431 14.7504 17.2399 14.9015 17.3858 14.9015H22.2238C22.3027 14.9015 22.3505 14.9885 22.3083 15.0551L13.7076 28.6124C13.646 28.7096 13.496 28.6429 13.5268 28.532L16.3984 18.2193C16.4339 18.0919 16.338 17.9657 16.2057 17.9657H9.96115C9.89195 17.9657 9.84367 17.8971 9.86701 17.832Z" fill="black" stroke="black" stroke-width="0.1"/>
</svg>
