<svg width="22" height="23" viewBox="0 0 22 23" fill="none" xmlns="http://www.w3.org/2000/svg">
<g clip-path="url(#clip0_5312_32910)">
<path d="M10.7139 18.5966C10.7952 18.5407 10.8933 18.5085 10.9974 18.5085H11.0026C11.1067 18.5085 11.2048 18.5407 11.2861 18.5966L16.5192 21.4688L16.5196 21.469C16.6667 21.5499 16.8308 21.5853 16.9939 21.5731L10.7139 18.5966ZM10.7139 18.5966L5.48077 21.4688L5.48037 21.469C5.33337 21.5499 5.16921 21.5853 5.00609 21.5731C4.84285 21.5607 4.68415 21.5009 4.54812 21.3976C4.41191 21.2943 4.3034 21.1509 4.23773 20.982L4.23767 20.9819C4.17186 20.8128 4.1524 20.6268 4.18223 20.4456L4.18227 20.4454L5.19065 14.3043C5.2165 14.1468 5.16564 13.9865 5.05376 13.8727L0.780763 9.5275L0.780508 9.52724C0.658396 9.40325 0.569797 9.2436 0.527564 9.06538L0.527561 9.06537C0.485313 8.88712 0.491776 8.69983 0.545986 8.52552C0.600164 8.35131 0.699074 8.19939 0.82864 8.08545L0.828737 8.08537C0.958108 7.97154 1.11303 7.89984 1.2753 7.87543L1.276 7.87532L7.17863 6.97882C7.34329 6.95381 7.48468 6.84847 7.55575 6.69785L10.1937 1.1068L10.1939 1.10631C10.2709 0.942855 10.3885 0.808378 10.5308 0.715751C10.673 0.623271 10.835 0.575439 10.9987 0.575439C11.1624 0.575439 11.3244 0.623271 11.4665 0.715751C11.6089 0.808378 11.7265 0.942855 11.8034 1.10631L11.8037 1.10697L14.4443 6.69802C14.5154 6.84855 14.6568 6.95382 14.8214 6.97882L20.724 7.87532L20.7247 7.87543C20.887 7.89985 21.0419 7.97157 21.1712 8.08532L21.1714 8.08547C21.3009 8.1994 21.3998 8.35129 21.454 8.52548L21.454 8.52562C21.5082 8.69976 21.5147 8.88697 21.4725 9.06529L10.7139 18.5966ZM17.7623 20.982L17.7623 20.9819C17.8281 20.8128 17.8476 20.6268 17.8178 20.4456L17.8177 20.4454L16.8094 14.3043C16.7835 14.1468 16.8344 13.9865 16.9463 13.8727L21.2193 9.5275L21.2195 9.52722C21.3416 9.40333 21.4301 9.24375 21.4724 9.06544L17.7623 20.982ZM17.7623 20.982C17.6966 21.1509 17.5881 21.2943 17.4519 21.3976C17.3159 21.5008 17.1573 21.5607 16.9941 21.5731L17.7623 20.982Z" stroke="white" stroke-linecap="round" stroke-linejoin="round"/>
</g>
<defs>
<clipPath id="clip0_5312_32910">
<rect width="22" height="22" fill="white" transform="translate(0 0.0754395)"/>
</clipPath>
</defs>
</svg>
