<svg width="28" height="30" viewBox="0 0 28 30" fill="none" xmlns="http://www.w3.org/2000/svg">
<path d="M2.5 10C2.5 6.71252 2.5 5.06878 3.40796 3.96243C3.57418 3.75989 3.75989 3.57418 3.96243 3.40796C5.06878 2.5 6.71252 2.5 10 2.5V2.5C13.2875 2.5 14.9312 2.5 16.0376 3.40796C16.2401 3.57418 16.4258 3.75989 16.592 3.96243C17.5 5.06878 17.5 6.71252 17.5 10V10C17.5 13.2875 17.5 14.9312 16.592 16.0376C16.4258 16.2401 16.2401 16.4258 16.0376 16.592C14.9312 17.5 13.2875 17.5 10 17.5V17.5C6.71252 17.5 5.06878 17.5 3.96243 16.592C3.75989 16.4258 3.57418 16.2401 3.40796 16.0376C2.5 14.9312 2.5 13.2875 2.5 10V10Z" stroke="black" stroke-width="2"/>
<path fill-rule="evenodd" clip-rule="evenodd" d="M16.984 12.2356L15.9576 11.2092L15.8732 11.1247L15.8732 11.1247C15.4904 10.7411 15.16 10.4099 14.7871 10.2033C13.8826 9.70209 12.7836 9.70209 11.8791 10.2033C11.5062 10.4099 11.1758 10.7411 10.793 11.1247L10.7087 11.2092C10.5355 11.3823 10.434 11.4834 10.3565 11.5529L10.3396 11.5679L10.3294 11.5477C10.2833 11.4544 10.2265 11.3228 10.1301 11.0978L10.0856 10.9939L10.0725 10.9634L10.0725 10.9634C9.85977 10.467 9.68098 10.0498 9.51465 9.72283C9.34476 9.38888 9.1455 9.0605 8.85723 8.79507C8.02075 8.02487 6.82073 7.79376 5.75804 8.19822C5.39181 8.3376 5.08484 8.56849 4.80308 8.81547C4.52721 9.05728 4.20626 9.37824 3.8244 9.76011L3.8244 9.76012L3.8009 9.78361L3 10.5845C3.00069 11.1768 3.00342 11.7052 3.01423 12.1801L3.62354 12.7894L5.21512 11.1978C5.62666 10.7863 5.90102 10.5126 6.12141 10.3195C6.34155 10.1265 6.43557 10.0803 6.46944 10.0674C6.82367 9.9326 7.22368 10.0096 7.5025 10.2664C7.52917 10.2909 7.5993 10.3687 7.73203 10.6296C7.86491 10.8909 8.01803 11.2468 8.24729 11.7818L8.2918 11.8856L8.30093 11.9069C8.38506 12.1033 8.46331 12.2859 8.5365 12.4339C8.61225 12.5872 8.71665 12.7761 8.87643 12.947C9.46853 13.58 10.401 13.7596 11.1859 13.3917C11.3977 13.2925 11.5648 13.1558 11.692 13.0416C11.8149 12.9314 11.9554 12.7909 12.1064 12.6399L12.1064 12.6399L12.1229 12.6234C12.6396 12.1067 12.7564 12.0037 12.8484 11.9527C13.15 11.7856 13.5163 11.7856 13.8178 11.9527C13.9098 12.0037 14.0266 12.1067 14.5433 12.6234L15.9593 14.0394L16.952 13.0467C16.9668 12.7949 16.977 12.5253 16.984 12.2356Z" fill="black"/>
<circle cx="13.75" cy="6.25" r="1.25" fill="black"/>
<path d="M18.9761 12.5H15.4998C13.9285 12.5 13.1428 12.5 12.6547 12.9882C12.1665 13.4763 12.1665 14.262 12.1665 15.8333V24.1667C12.1665 25.738 12.1665 26.5237 12.6547 27.0118C13.1428 27.5 13.9285 27.5 15.4998 27.5H20.4998C22.0712 27.5 22.8569 27.5 23.345 27.0118C23.8332 26.5237 23.8332 25.738 23.8332 24.1667V17.357C23.8332 17.0164 23.8332 16.8461 23.7697 16.6929C23.7063 16.5398 23.5859 16.4194 23.345 16.1785L20.1547 12.9882C19.9138 12.7473 19.7934 12.6269 19.6402 12.5634C19.4871 12.5 19.3168 12.5 18.9761 12.5Z" stroke="black" stroke-width="2"/>
<path d="M19.5461 21.7342L16.8939 20.5976C16.2341 20.3148 15.5 20.7988 15.5 21.5167V23.4836C15.5 24.2015 16.2341 24.6856 16.8939 24.4028L19.5461 23.2661C20.2195 22.9775 20.2195 22.0228 19.5461 21.7342Z" stroke="black" stroke-width="2" stroke-linecap="round" stroke-linejoin="round"/>
<path d="M18.8335 12.5V15.8333C18.8335 16.619 18.8335 17.0118 19.0776 17.2559C19.3217 17.5 19.7145 17.5 20.5002 17.5H23.8335" stroke="black" stroke-width="2"/>
</svg>
