<svg width="32" height="32" viewBox="0 0 32 32" fill="none" xmlns="http://www.w3.org/2000/svg">
<path fill-rule="evenodd" clip-rule="evenodd" d="M20.6408 19.713L26.2071 25.2792C26.5976 25.6697 26.5976 26.3029 26.2071 26.6934C25.8166 27.084 25.1834 27.084 24.7929 26.6934L19.1118 21.0124C17.7213 21.9434 16.0491 22.4863 14.25 22.4863C9.4175 22.4863 5.5 18.5688 5.5 13.7363C5.5 8.90383 9.4175 4.98633 14.25 4.98633C19.0825 4.98633 23 8.90383 23 13.7363C23 16.0472 22.1042 18.1489 20.6408 19.713ZM14.25 6.98633C10.528 6.98633 7.5 10.0143 7.5 13.7363C7.5 17.4583 10.528 20.4863 14.25 20.4863C17.972 20.4863 21 17.4583 21 13.7363C21 10.0143 17.972 6.98633 14.25 6.98633Z" fill="black"/>
</svg>
