<svg width="32" height="32" viewBox="0 0 32 32" fill="none" xmlns="http://www.w3.org/2000/svg">
<path d="M15.4294 15.0785C15.609 14.5257 16.391 14.5257 16.5706 15.0785L16.9159 16.1413C16.9963 16.3885 17.2266 16.5559 17.4866 16.5559H18.604C19.1853 16.5559 19.4269 17.2996 18.9567 17.6413L18.0527 18.2981C17.8424 18.4509 17.7544 18.7217 17.8347 18.9689L18.18 20.0317C18.3596 20.5845 17.7269 21.0441 17.2567 20.7025L16.3527 20.0457C16.1424 19.8929 15.8576 19.8929 15.6473 20.0457L14.7433 20.7025C14.2731 21.0441 13.6404 20.5845 13.82 20.0317L14.1653 18.9689C14.2456 18.7217 14.1576 18.4509 13.9473 18.2981L13.0433 17.6413C12.5731 17.2996 12.8147 16.5559 13.396 16.5559H14.5134C14.7734 16.5559 15.0037 16.3885 15.0841 16.1413L15.4294 15.0785Z" fill="black"/>
<rect x="5" y="5.88849" width="22" height="22" rx="5" stroke="black" stroke-width="2"/>
<path d="M11.2393 4.11151L11.2393 7.66547" stroke="black" stroke-width="2" stroke-linecap="round"/>
<path d="M17.7773 10.1155L14.2234 10.1155" stroke="black" stroke-width="2" stroke-linecap="round"/>
<path d="M20.6797 4.11151L20.6797 7.66547" stroke="black" stroke-width="2" stroke-linecap="round"/>
</svg>
