<svg width="32" height="33" viewBox="0 0 32 33" fill="none" xmlns="http://www.w3.org/2000/svg">
<path d="M17.2419 15.2576L8.37305 24.1265" stroke="#DAEF64" stroke-width="1.2" stroke-linecap="round" stroke-linejoin="round"/>
<path d="M9.33031 17.69L4.98619 16.6638C4.8775 16.6382 4.77762 16.584 4.69687 16.5069C4.61612 16.4297 4.55743 16.3324 4.52687 16.225C4.49631 16.1176 4.49498 16.004 4.52302 15.8959C4.55107 15.7878 4.60746 15.6891 4.68638 15.6101L8.14111 12.1554C8.37384 11.9226 8.68877 11.7906 9.01796 11.7878L12.913 11.754" stroke="#DAEF64" stroke-width="1.2" stroke-linecap="round" stroke-linejoin="round"/>
<path d="M25.9466 12.6421L26.9602 7.76485C27.0238 7.45918 27.0103 7.1425 26.921 6.84334C26.8316 6.54418 26.6693 6.27195 26.4485 6.05119C26.2277 5.83042 25.9555 5.66806 25.6564 5.57873C25.3572 5.4894 25.0405 5.47591 24.7348 5.53948L19.8576 6.55307C18.4217 6.85125 17.1044 7.56288 16.0679 8.60031L12.0663 12.6007C10.5396 14.128 9.5459 16.1066 9.23248 18.2432L9.21869 18.3348C9.12044 19.007 9.18064 19.6929 9.39449 20.3378C9.60833 20.9827 9.96991 21.5687 10.4504 22.049C10.9309 22.5293 11.5169 22.8908 12.1618 23.1045C12.8068 23.3181 13.4927 23.3782 14.1649 23.2798L14.2565 23.266C16.3932 22.9531 18.372 21.9593 19.899 20.4322L23.8994 16.4318C24.9368 15.3953 25.6484 14.078 25.9466 12.6421V12.6421Z" stroke="#DAEF64" stroke-width="1.2" stroke-linecap="round" stroke-linejoin="round"/>
<path d="M17.8193 7.29694C20.72 9.27555 23.2243 11.7799 25.203 14.6806" stroke="#DAEF64" stroke-width="1.2" stroke-linecap="round" stroke-linejoin="round"/>
<path d="M14.8086 23.1693L15.8347 27.5135C15.8604 27.6222 15.9145 27.722 15.9917 27.8028C16.0688 27.8835 16.1661 27.9422 16.2736 27.9728C16.381 28.0033 16.4946 28.0047 16.6027 27.9766C16.7108 27.9486 16.8094 27.8922 16.8885 27.8133L20.3432 24.3586C20.576 24.1258 20.708 23.8109 20.7107 23.4817L20.7446 19.5867" stroke="#DAEF64" stroke-width="1.2" stroke-linecap="round" stroke-linejoin="round"/>
</svg>
