<svg width="22" height="24" viewBox="0 0 22 24" fill="none" xmlns="http://www.w3.org/2000/svg">
<path d="M12.0258 21.8807C12.0258 19.6875 12.0258 17.5095 12.0258 15.3163C12.0258 14.6961 11.5302 14.197 10.9145 14.197C10.8244 14.197 10.7193 14.197 10.6292 14.197C10.5391 14.197 10.4339 14.197 10.3438 14.197C9.72815 14.197 9.23258 14.6961 9.23258 15.3163C9.23258 17.5095 9.23258 19.6875 9.23258 21.8807C9.23258 22.5009 8.73702 23 8.12132 23C6.76978 23 5.43326 23 4.08173 23C2.92541 23 1.96432 22.1076 1.87422 20.9429C1.58889 17.0708 1.30357 13.1987 1.00323 9.32657C0.973195 8.87281 1.1534 8.43417 1.51381 8.14679C4.33702 5.83259 7.13019 3.53352 9.93839 1.24957C10.3438 0.91681 10.9295 0.91681 11.335 1.24957C14.1281 3.54864 16.9363 5.84771 19.7295 8.14679C20.0749 8.43417 20.2701 8.87281 20.2401 9.32657C19.9548 13.1987 19.6694 17.0708 19.3691 20.9429C19.279 22.1076 18.3179 23 17.1616 23C15.8101 23 14.4735 23 13.122 23C12.5213 23 12.0258 22.5009 12.0258 21.8807Z" stroke="#DAEF64" stroke-width="1.5" stroke-linecap="round" stroke-linejoin="round"/>
</svg>
