<svg width="22" height="23" viewBox="0 0 22 23" fill="none" xmlns="http://www.w3.org/2000/svg">
<g clip-path="url(#clip0_4616_52926)">
<path d="M10.9974 18.2585C10.8461 18.2585 10.7033 18.3038 10.5837 18.3829L5.36049 21.2496L5.35989 21.25C5.25498 21.3077 5.13908 21.3324 5.02469 21.3238C4.91031 21.3151 4.79749 21.2731 4.69926 21.1985C4.60069 21.1237 4.52005 21.0183 4.47073 20.8914L4.47065 20.8912C4.42117 20.7641 4.40632 20.6234 4.42891 20.4862L4.42896 20.4859L5.43734 14.3448C5.47613 14.1086 5.39984 13.8681 5.23201 13.6974L0.959014 9.35221L0.958631 9.35182C0.86926 9.26107 0.802743 9.14241 0.770827 9.00773L0.770822 9.00771C0.738888 8.87298 0.743817 8.73125 0.784708 8.59976C0.825552 8.46843 0.899453 8.3561 0.993731 8.27319L0.993877 8.27306C1.08786 8.19037 1.19856 8.13978 1.31249 8.12265L1.31354 8.12249L7.21617 7.22599C7.46316 7.18848 7.67525 7.03045 7.78185 6.80452L10.4198 1.21348L10.4202 1.21275C10.4778 1.09028 10.5648 0.99194 10.6672 0.925293C10.7693 0.858865 10.8841 0.825439 10.9987 0.825439C11.1133 0.825439 11.2281 0.858865 11.3302 0.925293C11.4326 0.99194 11.5196 1.09028 11.5772 1.21275L11.5777 1.21374L14.2183 6.80478C14.3249 7.03058 14.537 7.18849 14.7838 7.22599L20.6864 8.12249L20.6875 8.12264C20.8015 8.13979 20.9122 8.19041 21.006 8.27299L21.0063 8.27322C21.1005 8.35611 21.1744 8.46841 21.2152 8.5997L21.2153 8.59992C21.2561 8.73114 21.2611 8.87276 21.2292 9.0076C21.1972 9.14251 21.1307 9.26115 21.0414 9.35178L21.041 9.35221L16.768 13.6974C16.6002 13.8681 16.5239 14.1086 16.5627 14.3448L17.571 20.4859L17.5711 20.4862C17.5937 20.6234 17.5788 20.7641 17.5294 20.8912L17.5293 20.8914C17.48 21.0183 17.3993 21.1237 17.3007 21.1985C17.2025 21.2731 17.0897 21.3151 16.9753 21.3238C16.861 21.3324 16.7451 21.3077 16.64 21.2499L16.6395 21.2496L11.4163 18.3829C11.2967 18.3038 11.1539 18.2585 11.0026 18.2585H10.9974Z" stroke="#DAEF64" stroke-width="1.5" stroke-linecap="round" stroke-linejoin="round"/>
</g>
<defs>
<clipPath id="clip0_4616_52926">
<rect width="22" height="22" fill="white" transform="translate(0 0.0754395)"/>
</clipPath>
</defs>
</svg>
