<svg width="32" height="32" viewBox="0 0 32 32" fill="none" xmlns="http://www.w3.org/2000/svg">
<path d="M23.0711 8.92893C23.9997 9.85752 24.7363 10.9599 25.2388 12.1732C25.7413 13.3864 26 14.6868 26 16C26 17.3132 25.7413 18.6136 25.2388 19.8268C24.7363 21.0401 23.9997 22.1425 23.0711 23.0711C22.1425 23.9997 21.0401 24.7363 19.8268 25.2388C18.6136 25.7413 17.3132 26 16 26C14.6868 26 13.3864 25.7413 12.1732 25.2388C10.9599 24.7363 9.85752 23.9997 8.92893 23.0711C7.05357 21.1957 6 18.6522 6 16C6 13.3478 7.05357 10.8043 8.92893 8.92893C10.8043 7.05357 13.3478 6 16 6C18.6522 6 21.1957 7.05357 23.0711 8.92893" fill="#1DB954"/>
<path d="M23.0711 8.92893C23.9997 9.85752 24.7363 10.9599 25.2388 12.1732C25.7413 13.3864 26 14.6868 26 16C26 17.3132 25.7413 18.6136 25.2388 19.8268C24.7363 21.0401 23.9997 22.1425 23.0711 23.0711C22.1425 23.9997 21.0401 24.7363 19.8268 25.2388C18.6136 25.7413 17.3132 26 16 26C14.6868 26 13.3864 25.7413 12.1732 25.2388C10.9599 24.7363 9.85752 23.9997 8.92893 23.0711C7.05357 21.1957 6 18.6522 6 16C6 13.3478 7.05357 10.8043 8.92893 8.92893C10.8043 7.05357 13.3478 6 16 6C18.6522 6 21.1957 7.05357 23.0711 8.92893" stroke="#1DB954" stroke-width="2" stroke-linecap="round" stroke-linejoin="round"/>
<path d="M10.01 12.7235C14.2644 11.4646 19.8166 12.3357 22.4044 13.9724" stroke="black" stroke-width="1.7" stroke-linecap="round" stroke-linejoin="round"/>
<path d="M10.5212 16.1702C14.269 15.0024 18.6945 15.8391 21.1423 17.4135" stroke="black" stroke-width="1.5" stroke-linecap="round" stroke-linejoin="round"/>
<path d="M11.3667 19.4509C15.031 18.6288 17.5754 19.2058 19.4988 20.3599" stroke="black" stroke-width="1.2" stroke-linecap="round" stroke-linejoin="round"/>
</svg>
