<svg width="83" height="88" viewBox="0 0 83 88" fill="none" xmlns="http://www.w3.org/2000/svg">
<path d="M21.25 27.8633C21.25 24.092 21.25 22.2064 22.4216 21.0349C23.5931 19.8633 25.4788 19.8633 29.25 19.8633H38.75C42.5212 19.8633 44.4069 19.8633 45.5784 21.0349C46.75 22.2064 46.75 24.092 46.75 27.8633V36.6133C46.75 40.3845 46.75 42.2701 45.5784 43.4417C44.4069 44.6133 42.5212 44.6133 38.75 44.6133H29.25C25.4788 44.6133 23.5931 44.6133 22.4216 43.4417C21.25 42.2701 21.25 40.3845 21.25 36.6133V27.8633Z" stroke="white" stroke-width="2"/>
<path fill-rule="evenodd" clip-rule="evenodd" d="M44.75 35.7781L43.149 34.2242L43.1027 34.1792C42.4841 33.5787 41.9501 33.0604 41.4659 32.7011C40.9464 32.3156 40.3714 32.025 39.6667 32.025C38.9619 32.025 38.3869 32.3156 37.8674 32.7011C37.3832 33.0604 36.8493 33.5787 36.2307 34.1792L36.2307 34.1792L36.1843 34.2242L35.3654 35.019C34.8734 35.4966 34.5835 35.7743 34.359 35.936L34.3494 35.9429L34.3431 35.9329C34.1957 35.6988 34.0311 35.3326 33.7541 34.7054L32.9861 32.966L32.9542 32.8937C32.4539 31.7606 32.0337 30.8087 31.6023 30.1239C31.1501 29.4059 30.5645 28.7817 29.6543 28.6045C28.7441 28.4273 27.9671 28.7863 27.2786 29.2822C26.6218 29.7553 25.8752 30.48 24.9865 31.3427L24.9864 31.3427L24.9298 31.3977L23.25 33.0281V35.8152L26.3227 32.8329C27.2833 31.9005 27.9247 31.2817 28.4475 30.905C28.9526 30.5413 29.1569 30.5452 29.2721 30.5677C29.3874 30.5901 29.5783 30.6631 29.91 31.1897C30.2534 31.735 30.6158 32.5492 31.1565 33.7738L31.9246 35.5132L31.9517 35.5746C32.1919 36.1189 32.4151 36.6246 32.6508 36.9988C32.907 37.4056 33.2985 37.8555 33.9523 37.9828C34.6062 38.1101 35.1378 37.8399 35.5279 37.5589C35.8867 37.3004 36.2833 36.9154 36.7101 36.501L36.7102 36.5009L36.7584 36.4542L37.5772 35.6594C38.2555 35.0011 38.6944 34.5779 39.0592 34.3072C39.4008 34.0538 39.5604 34.025 39.6667 34.025C39.7729 34.025 39.9326 34.0538 40.2741 34.3072C40.6389 34.5779 41.0778 35.0011 41.7561 35.6594L44.6369 38.4554L44.7442 38.3448C44.7495 37.8354 44.75 37.2626 44.75 36.6128V35.7781ZM34.2162 36.0234C34.2163 36.0233 34.2177 36.0227 34.2203 36.0219C34.2175 36.0231 34.2162 36.0235 34.2162 36.0234ZM34.4394 36.0645C34.4416 36.0663 34.4426 36.0674 34.4426 36.0675C34.4426 36.0676 34.4416 36.0667 34.4394 36.0645Z" fill="white"/>
<ellipse cx="40.375" cy="26.0508" rx="2.125" ry="2.0625" fill="white"/>
<path d="M55.0503 36.9883H47.75C44.4502 36.9883 42.8003 36.9883 41.7751 38.0134C40.75 39.0385 40.75 40.6884 40.75 43.9883V61.4883C40.75 64.7881 40.75 66.438 41.7751 67.4632C42.8003 68.4883 44.4502 68.4883 47.75 68.4883H58.25C61.5498 68.4883 63.1997 68.4883 64.2249 67.4632C65.25 66.438 65.25 64.7881 65.25 61.4883V47.188C65.25 46.4727 65.25 46.1151 65.1168 45.7935C64.9836 45.4719 64.7307 45.219 64.2249 44.7132L57.5251 38.0134C57.0193 37.5076 56.7664 37.2547 56.4448 37.1215C56.1232 36.9883 55.7656 36.9883 55.0503 36.9883Z" fill="#0F111C" stroke="white" stroke-width="2"/>
<path d="M56.2468 56.3793L50.6772 53.9924C49.2915 53.3985 47.75 54.415 47.75 55.9226V60.0531C47.75 61.5607 49.2915 62.5772 50.6772 61.9833L56.2468 59.5963C57.661 58.9903 57.661 56.9854 56.2468 56.3793Z" stroke="white" stroke-width="2" stroke-linecap="round" stroke-linejoin="round"/>
<path d="M54.75 36.9883V43.9883C54.75 45.6382 54.75 46.4632 55.2626 46.9757C55.7751 47.4883 56.6001 47.4883 58.25 47.4883H65.25" stroke="white" stroke-width="2"/>
<path d="M5 12.7383C5 8.96705 5 7.08143 6.17157 5.90985C7.34314 4.73828 9.22876 4.73828 13 4.73828H70C73.7712 4.73828 75.6569 4.73828 76.8284 5.90985C78 7.08143 78 8.96705 78 12.7383V80.0966C78 81.7049 78 82.5091 77.4814 82.7939C76.9627 83.0788 76.2841 82.6473 74.9269 81.7843L74.3338 81.4072C72.1387 80.0114 71.0411 79.3136 69.8093 78.9551C68.5776 78.5967 67.2769 78.5967 64.6757 78.5967H13C9.22876 78.5967 7.34314 78.5967 6.17157 77.4251C5 76.2536 5 74.3679 5 70.5967V12.7383Z" stroke="white" stroke-width="2"/>
</svg>
