<svg width="22" height="23" viewBox="0 0 22 23" fill="none" xmlns="http://www.w3.org/2000/svg">
<g clip-path="url(#clip0_5340_7651)">
<path d="M11.2219 1.66489L14.0065 7.03615C14.2517 7.50919 14.6991 7.84473 15.2219 7.94772L21.0161 9.0892C21.2064 9.1267 21.2834 9.3573 21.1537 9.5016L17.0474 14.0708C16.7089 14.4474 16.5502 14.9522 16.6122 15.4547L17.3748 21.6378C17.3992 21.8358 17.1934 21.9812 17.015 21.8921L11.7818 19.2788C11.2896 19.033 10.7104 19.033 10.2182 19.2788L4.98501 21.8921C4.80659 21.9812 4.60078 21.8358 4.6252 21.6378L5.38785 15.4547C5.44984 14.9522 5.2911 14.4474 4.95262 14.0708L0.846306 9.5016C0.716625 9.3573 0.79358 9.1267 0.983927 9.0892L6.77814 7.94772C7.30092 7.84473 7.7483 7.50919 7.99353 7.03615L10.7781 1.66489C10.8713 1.48497 11.1287 1.48497 11.2219 1.66489Z" stroke="#DAEF64" stroke-width="1.5"/>
</g>
<defs>
<clipPath id="clip0_5340_7651">
<rect width="22" height="22" fill="white" transform="translate(0 0.727173)"/>
</clipPath>
</defs>
</svg>
