<svg width="23" height="22" viewBox="0 0 23 22" fill="none" xmlns="http://www.w3.org/2000/svg">
<path d="M13.7607 0.5H9.43163C7.53187 0.5 6.15736 0.501062 5.10916 0.641988C4.07535 0.78098 3.43416 1.04772 2.95675 1.52513C2.47935 2.00253 2.21261 2.64372 2.07362 3.67754C1.93269 4.72573 1.93163 6.10024 1.93163 8V12.5682C1.93163 14.4679 1.93269 15.8424 2.07362 16.8906C2.21261 17.9244 2.47935 18.5656 2.95675 19.043C3.43416 19.5204 4.07535 19.7872 5.10917 19.9262C6.15736 20.0671 7.53188 20.0682 9.43163 20.0682H17.9347C19.0578 20.0682 20.1577 20.3882 21.1055 20.9908C21.1727 21.0336 21.2607 20.9853 21.2607 20.9056V8C21.2607 6.10025 21.2597 4.72573 21.1188 3.67754C20.9798 2.64373 20.713 2.00253 20.2356 1.52513C19.7582 1.04772 19.117 0.78098 18.0832 0.641988C17.035 0.501062 15.6605 0.5 13.7607 0.5Z" stroke="white"/>
<path d="M9.69629 7.54022C9.69629 6.2604 10.734 5.22266 12.0139 5.22266C13.2937 5.22266 14.3314 6.2604 14.3314 7.54022C14.3314 8.82005 13.2937 9.85779 12.0139 9.85779C10.734 9.85779 9.69629 8.82005 9.69629 7.54022Z" stroke="white"/>
<path d="M15.2905 15.0153C15.3659 15.0153 15.4248 14.9502 15.4173 14.8752V14.8752L15.4033 14.7421L15.3823 14.609L15.3613 14.4759L15.3333 14.3428L15.2983 14.2097L15.2632 14.0766L15.2212 13.9505L15.1792 13.8175L15.1301 13.6914L15.0741 13.5653L15.0181 13.4392L14.99 13.3832L14.955 13.3201L14.927 13.2571L14.892 13.201L14.857 13.138L14.8219 13.082L14.7869 13.0259L14.7449 12.9699L14.7099 12.9138L14.6748 12.8648L14.6328 12.8088L14.5908 12.7597L14.5557 12.7107L14.5137 12.6547L14.4927 12.6302C14.4787 12.6138 14.4635 12.5986 14.4472 12.5846V12.5846C14.4309 12.5706 14.4156 12.5554 14.4016 12.5391L14.3806 12.5146L14.3386 12.4655L14.2896 12.4165L14.2475 12.3745L14.1985 12.3325L14.1495 12.2904L14.1431 12.284C14.1147 12.2556 14.084 12.2297 14.0514 12.2064V12.2064L14.0024 12.1643L13.9784 12.1438C13.9617 12.1295 13.944 12.1165 13.9253 12.1048L13.9247 12.1044C13.9065 12.093 13.8891 12.0803 13.8728 12.0663V12.0663C13.8565 12.0523 13.8391 12.0395 13.8209 12.0281L13.7922 12.0102L13.7362 11.9752L13.6872 11.9402L13.6311 11.9052L13.5751 11.8771L13.5191 11.8421L13.463 11.8141L13.407 11.7861L13.3439 11.7581L13.2879 11.73L13.2319 11.709L13.1688 11.681L13.0988 11.66L13.0287 11.632L12.9587 11.611L12.8886 11.59L12.8186 11.5689L12.7415 11.5549L12.6715 11.5409L12.6014 11.5269L12.5244 11.5129L12.4543 11.4989L12.3773 11.4919L12.3072 11.4849L12.2302 11.4779L12.1601 11.4709H12.0831V11.4709C12.0365 11.4662 11.9896 11.466 11.9429 11.4702L11.936 11.4709H11.8659L11.7889 11.4779L11.7188 11.4849L11.6418 11.4919L11.5717 11.4989L11.4947 11.5129L11.4246 11.5269L11.3476 11.5409L11.2775 11.5549L11.2075 11.5689L11.1374 11.59L11.0604 11.611L10.9903 11.632L10.9203 11.66L10.9103 11.663C10.8703 11.675 10.8315 11.6904 10.7942 11.709V11.709L10.7382 11.73L10.6751 11.7581L10.6191 11.7861L10.5631 11.8141L10.507 11.8421L10.451 11.8771L10.3949 11.9052L10.3389 11.9402L10.2829 11.9752L10.2268 12.0102L10.1778 12.0453L10.1218 12.0873L10.0727 12.1223L10.0237 12.1643L9.97466 12.2064V12.2064C9.94203 12.2297 9.91137 12.2556 9.88302 12.284L9.87659 12.2904L9.82756 12.3325L9.77853 12.3745V12.3745C9.74589 12.4025 9.71544 12.4329 9.68746 12.4655V12.4655L9.63843 12.5146L9.5964 12.5636L9.55437 12.6056L9.51235 12.6547L9.47032 12.7107L9.42829 12.7597L9.39327 12.8088L9.35124 12.8648L9.31621 12.9138L9.27419 12.9699L9.23916 13.0259L9.20414 13.082L9.16911 13.138L9.13409 13.201L9.09907 13.2571L9.06404 13.3201L9.03602 13.3832L9.001 13.4392L8.94496 13.5653L8.89593 13.6914L8.8469 13.8175L8.79786 13.9505L8.76284 14.0766L8.72081 14.2097L8.69279 14.3428L8.66477 14.4759L8.63675 14.609L8.61574 14.7421L8.60173 14.8752V14.8752C8.59792 14.9514 8.65869 15.0153 8.735 15.0153H15.2905Z" stroke="white" stroke-miterlimit="10" stroke-linecap="round" stroke-linejoin="round"/>
</svg>
