<svg width="37" height="36" viewBox="0 0 37 36" fill="none" xmlns="http://www.w3.org/2000/svg">
<path d="M18.4969 26.6543L24.5152 29.8164C24.7789 29.9552 25.0761 30.0173 25.3732 29.9959C25.6704 29.9744 25.9556 29.8702 26.1966 29.6951C26.4376 29.52 26.6248 29.2809 26.7369 29.0049C26.8491 28.7289 26.8818 28.427 26.8313 28.1334L25.6822 21.434L30.5515 16.6938C30.7653 16.486 30.9165 16.2224 30.9882 15.933C31.0598 15.6436 31.049 15.3399 30.9568 15.0563C30.8647 14.7727 30.695 14.5206 30.4669 14.3286C30.2389 14.1365 29.9615 14.0122 29.6664 13.9697L22.9401 12.9917L19.931 6.89237C19.7994 6.62461 19.5955 6.39907 19.3423 6.24134C19.0891 6.08361 18.7967 6 18.4984 6C18.2001 6 17.9077 6.08361 17.6545 6.24134C17.4013 6.39907 17.1974 6.62461 17.0658 6.89237L14.0597 12.9917L7.33335 13.9697C7.03824 14.0122 6.76093 14.1365 6.53286 14.3286C6.30479 14.5206 6.13508 14.7727 6.04295 15.0563C5.95082 15.3399 5.93996 15.6436 6.01161 15.933C6.08325 16.2224 6.23454 16.486 6.44831 16.6938L11.3176 21.434L10.1685 28.1334C10.118 28.427 10.1507 28.7289 10.2629 29.0049C10.375 29.2809 10.5622 29.52 10.8032 29.6951C11.0442 29.8702 11.3294 29.9744 11.6266 29.9959C11.9237 30.0173 12.221 29.9552 12.4846 29.8164L18.5029 26.6543H18.4969Z" stroke="#81859D" stroke-width="2" stroke-linecap="round" stroke-linejoin="round"/>
</svg>
