<svg width="32" height="33" viewBox="0 0 32 33" fill="none" xmlns="http://www.w3.org/2000/svg">
<path d="M17.0258 26.3724C17.0258 24.1792 17.0258 22.0012 17.0258 19.808C17.0258 19.1878 16.5302 18.6887 15.9145 18.6887C15.8244 18.6887 15.7193 18.6887 15.6292 18.6887C15.5391 18.6887 15.4339 18.6887 15.3438 18.6887C14.7281 18.6887 14.2326 19.1878 14.2326 19.808C14.2326 22.0012 14.2326 24.1792 14.2326 26.3724C14.2326 26.9926 13.737 27.4917 13.1213 27.4917C11.7698 27.4917 10.4333 27.4917 9.08173 27.4917C7.92541 27.4917 6.96432 26.5993 6.87422 25.4346C6.58889 21.5625 6.30357 17.6904 6.00323 13.8183C5.97319 13.3645 6.1534 12.9259 6.51381 12.6385C9.33702 10.3243 12.1302 8.02522 14.9384 5.74127C15.3438 5.40851 15.9295 5.40851 16.335 5.74127C19.1281 8.04034 21.9363 10.3394 24.7295 12.6385C25.0749 12.9259 25.2701 13.3645 25.2401 13.8183C24.9548 17.6904 24.6694 21.5625 24.3691 25.4346C24.279 26.5993 23.3179 27.4917 22.1616 27.4917C20.8101 27.4917 19.4735 27.4917 18.122 27.4917C17.5213 27.4917 17.0258 26.9926 17.0258 26.3724Z" stroke="white" stroke-linecap="round" stroke-linejoin="round"/>
</svg>
