<svg width="32" height="32" viewBox="0 0 32 32" fill="none" xmlns="http://www.w3.org/2000/svg">
<path d="M23.0711 8.92893C23.9997 9.85752 24.7363 10.9599 25.2388 12.1732C25.7413 13.3864 26 14.6868 26 16C26 17.3132 25.7413 18.6136 25.2388 19.8268C24.7363 21.0401 23.9997 22.1425 23.0711 23.0711C22.1425 23.9997 21.0401 24.7362 19.8268 25.2388C18.6136 25.7413 17.3132 26 16 26C14.6868 26 13.3864 25.7413 12.1732 25.2388C10.9599 24.7362 9.85752 23.9997 8.92893 23.0711C7.05357 21.1957 6 18.6522 6 16C6 13.3478 7.05357 10.8043 8.92893 8.92893C10.8043 7.05357 13.3478 6 16 6C18.6522 6 21.1957 7.05357 23.0711 8.92893" fill="white"/>
<path d="M10.1526 12.7825C14.4064 11.5238 19.9579 12.3948 22.5453 14.0312" stroke="black" stroke-width="2" stroke-linecap="round" stroke-linejoin="round"/>
<path d="M10.8174 16.051C14.5115 14.9 18.8736 15.7247 21.2863 17.2766" stroke="black" stroke-width="1.7" stroke-linecap="round" stroke-linejoin="round"/>
<path d="M11.0269 19.0654C15.196 18.13 18.0909 18.7866 20.2793 20.0996" stroke="black" stroke-width="1.4" stroke-linecap="round" stroke-linejoin="round"/>
</svg>
