<svg width="32" height="32" viewBox="0 0 32 32" fill="none" xmlns="http://www.w3.org/2000/svg">
<path d="M19.1407 19.5864L15.6624 18.1937V13.2358" stroke="white" stroke-width="1.25" stroke-linecap="round" stroke-linejoin="round"/>
<path d="M5.98511 10.5708V13.9132H9.3275" stroke="white" stroke-width="1.25" stroke-linecap="round" stroke-linejoin="round"/>
<path d="M6.05078 18.9267C6.32504 21.3459 7.47128 23.5824 9.27508 25.2176C11.0789 26.8529 13.4166 27.775 15.8511 27.8114C18.2855 27.8478 20.6498 26.9961 22.5017 25.4155C24.3536 23.8349 25.5662 21.6338 25.9127 19.2238C26.2592 16.8139 25.7158 14.3603 24.3843 12.322C23.0527 10.2837 21.0241 8.80035 18.678 8.14943C16.332 7.49851 13.8291 7.72462 11.6377 8.78547C9.44622 9.84631 7.71634 11.6692 6.77162 13.9132" stroke="white" stroke-width="1.25" stroke-linecap="round" stroke-linejoin="round"/>
<path d="M13.9851 4.1875H17.9851" stroke="white" stroke-width="1.25" stroke-linecap="round"/>
</svg>
