<svg width="30" height="32" viewBox="0 0 30 32" fill="none" xmlns="http://www.w3.org/2000/svg">
<path d="M14.7147 15.8781C14.8045 15.6017 15.1955 15.6017 15.2853 15.8781L16.2797 18.9386C16.3199 19.0622 16.4351 19.1459 16.565 19.1459H19.783C20.0737 19.1459 20.1945 19.5178 19.9594 19.6886L17.356 21.5801C17.2508 21.6565 17.2068 21.7919 17.247 21.9155L18.2414 24.976C18.3312 25.2524 18.0149 25.4822 17.7797 25.3114L15.1763 23.4199C15.0712 23.3435 14.9288 23.3435 14.8237 23.4199L12.2203 25.3114C11.9851 25.4822 11.6688 25.2524 11.7586 24.976L12.753 21.9155C12.7932 21.7919 12.7492 21.6565 12.644 21.5801L10.0406 19.6886C9.80552 19.5178 9.92635 19.1459 10.217 19.1459H13.435C13.5649 19.1459 13.6801 19.0622 13.7203 18.9386L14.7147 15.8781Z" fill="black"/>
<path fill-rule="evenodd" clip-rule="evenodd" d="M8 1C8 0.447715 8.44771 0 9 0C9.55229 0 10 0.447715 10 1V4C10 4.55228 9.55229 5 9 5C8.44771 5 8 4.55228 8 4C4.68629 4 2 6.68629 2 10V24C2 27.3137 4.68629 30 8 30H22C25.3137 30 28 27.3137 28 24V10C28 6.68629 25.3137 4 22 4H21C21 4.55228 20.5523 5 20 5C19.4477 5 19 4.55228 19 4V1C19 0.447715 19.4477 0 20 0C20.5523 0 21 0.447715 21 1V2H22C26.4183 2 30 5.58172 30 10V24C30 28.4183 26.4183 32 22 32H8C3.58172 32 0 28.4183 0 24V10C0 5.58172 3.58172 2 8 2V1ZM17 2H12V4H17V2Z" fill="black"/>
<rect x="2" y="10" width="26" height="2" fill="black"/>
</svg>
