<?xml version="1.0" encoding="UTF-8"?>
<svg id="Livello_2" data-name="Livello 2" xmlns="http://www.w3.org/2000/svg" viewBox="0 0 55.9 37.88">
  <defs>
    <style>
      .cls-1 {
        fill: #daef64;
        stroke-width: 0px;
      }

      .cls-2 {
        fill: #000;
        stroke: #000;
        stroke-width: .1px;
      }
    </style>
  </defs>
  <g id="Livello_1-2" data-name="Livello 1">
    <g>
      <circle class="cls-1" cx="16" cy="21.88" r="16"/>
      <path class="cls-2" d="M9.75,23.53l3.93-10.98s.05-.07.09-.07h6.76c.07,0,.12.08.09.14l-3.54,7.69c-.06.13.04.28.18.28h4.84c.08,0,.13.09.08.15l-8.6,13.56c-.06.1-.21.03-.18-.08l2.87-10.31c.04-.13-.06-.25-.19-.25h-6.24c-.07,0-.12-.07-.09-.13Z"/>
      <circle class="cls-1" cx="43.56" cy="23.84" r="12.34"/>
      <path class="cls-2" d="M38.74,25.12l3.04-8.47s.04-.05.07-.05h5.21c.06,0,.09.06.07.11l-2.73,5.93c-.05.1.03.22.14.22h3.73c.06,0,.1.07.07.12l-6.63,10.46c-.05.07-.16.02-.14-.06l2.22-7.96c.03-.1-.05-.2-.15-.2h-4.82c-.05,0-.09-.05-.07-.1Z"/>
      <circle class="cls-1" cx="29.8" cy="16" r="16"/>
      <path class="cls-2" d="M23.56,17.65l3.93-10.98s.05-.07.09-.07h6.76c.07,0,.12.08.09.14l-3.54,7.69c-.06.13.04.28.18.28h4.84c.08,0,.13.09.08.15l-8.6,13.56c-.06.1-.21.03-.18-.08l2.87-10.31c.04-.13-.06-.25-.19-.25h-6.24c-.07,0-.12-.07-.09-.13Z"/>
    </g>
  </g>
</svg>