<svg width="32" height="33" viewBox="0 0 32 33" fill="none" xmlns="http://www.w3.org/2000/svg">
<path fill-rule="evenodd" clip-rule="evenodd" d="M10.5469 6.44755C10.3874 6.8305 10.2734 7.23968 10.2123 7.66944L8.44403 20.1052C8.0553 22.8391 9.95645 25.3705 12.6904 25.7592L18.8707 26.638L11.4342 27.6437C9.24495 27.9398 7.23024 26.4051 6.93418 24.2159L5.17534 11.2104C4.87928 9.02119 6.41397 7.00648 8.60318 6.71041L10.5469 6.44755Z" fill="#6E728A"/>
<path fill-rule="evenodd" clip-rule="evenodd" d="M15.9678 3.76553C13.7807 3.45455 11.7556 4.97546 11.4446 7.1626L10.5516 13.4427L10.7035 13.3164C12.787 11.5833 15.9546 12.3801 16.9701 14.8928L16.9942 14.9525L20.2188 11.7752C21.9566 10.0631 24.809 10.2918 26.2517 12.2589L27.5394 14.0146L28.1754 9.54155C28.4864 7.35441 26.9655 5.32928 24.7783 5.01829L15.9678 3.76553ZM15.1158 15.6422L15.4513 16.4726L9.78596 22.0545C9.57667 21.4652 9.50293 20.8179 9.59708 20.1558L10.1321 16.3932L11.9825 14.854C13.0242 13.9874 14.608 14.3859 15.1158 15.6422ZM12.9942 24.6791C12.1993 24.566 11.4925 24.2267 10.9296 23.7354L21.6225 13.1999C22.4914 12.3438 23.9176 12.4582 24.639 13.4417L27.1366 16.8472L26.3279 22.5347C26.0169 24.7219 23.9918 26.2428 21.8046 25.9318L12.9942 24.6791ZM16.5768 10.2898C17.2672 10.2898 17.8268 9.73015 17.8268 9.0398C17.8268 8.34944 17.2672 7.7898 16.5768 7.7898C15.8865 7.7898 15.3268 8.34944 15.3268 9.0398C15.3268 9.73015 15.8865 10.2898 16.5768 10.2898Z" fill="#6E728A"/>
</svg>
