<svg width="33" height="32" viewBox="0 0 33 32" fill="none" xmlns="http://www.w3.org/2000/svg">
<path d="M12.0123 20.6123L13.0015 20.4655C12.9596 20.183 12.7989 19.9319 12.5599 19.7755L12.0123 20.6123ZM11.181 22.9593L11.9688 23.5751L11.9688 23.5751L11.181 22.9593ZM15.0098 21.7758L15.1758 20.7896C14.9532 20.7522 14.7246 20.7911 14.527 20.9L15.0098 21.7758ZM22.8333 15.1952C22.8333 18.2433 20.0502 20.8903 16.3883 20.8903V22.8903C20.9498 22.8903 24.8333 19.5423 24.8333 15.1952H22.8333ZM16.3883 9.5C20.0502 9.5 22.8333 12.147 22.8333 15.1952H24.8333C24.8333 10.848 20.9498 7.5 16.3883 7.5V9.5ZM9.94336 15.1952C9.94336 12.147 12.7264 9.5 16.3883 9.5V7.5C11.8268 7.5 7.94336 10.848 7.94336 15.1952H9.94336ZM12.5599 19.7755C10.9444 18.7183 9.94336 17.0418 9.94336 15.1952H7.94336C7.94336 17.8024 9.36035 20.0719 11.4647 21.449L12.5599 19.7755ZM11.9688 23.5751C12.9183 22.3606 13.1093 21.1925 13.0015 20.4655L11.0231 20.759C11.0422 20.8872 11.042 21.5133 10.3931 22.3434L11.9688 23.5751ZM14.527 20.9C13.6395 21.3893 12.4603 22.0032 11.654 22.3239C11.4549 22.403 11.3015 22.455 11.1946 22.4831C11.045 22.5225 11.102 22.4839 11.2503 22.5105C11.342 22.5269 11.5842 22.5907 11.7738 22.8372C11.9756 23.0998 11.971 23.3755 11.9494 23.507C11.9188 23.6935 11.8378 23.7427 11.9688 23.5751L10.3931 22.3434C10.2543 22.521 10.0349 22.8228 9.9758 23.1832C9.93997 23.4016 9.94851 23.7446 10.1883 24.0564C10.4158 24.3523 10.7207 24.4474 10.8971 24.4791C11.2147 24.5361 11.5292 24.4631 11.7035 24.4173C11.9204 24.3602 12.1572 24.2761 12.393 24.1823C13.3263 23.8112 14.6011 23.143 15.4926 22.6515L14.527 20.9ZM16.3883 20.8903C15.973 20.8903 15.5678 20.8556 15.1758 20.7896L14.8437 22.7619C15.3452 22.8463 15.8616 22.8903 16.3883 22.8903V20.8903Z" fill="#65FFFF"/>
</svg>
