<svg width="20" height="22" viewBox="0 0 20 22" fill="none" xmlns="http://www.w3.org/2000/svg">
<path d="M14.3106 9.16113H5.68921C5.13692 9.16113 4.68921 8.71342 4.68921 8.16113V7.40575C4.68921 6.85347 5.13692 6.40575 5.68921 6.40575H14.3106C14.8629 6.40575 15.3106 6.85347 15.3106 7.40575V8.16113C15.3106 8.71342 14.8629 9.16113 14.3106 9.16113Z" fill="#DAEF64"/>
<path d="M8.69728 9.76562H5.89624C5.34396 9.76562 4.89624 10.2133 4.89624 10.7656V16.1133C4.89624 16.6656 5.34396 17.1133 5.89624 17.1133H8.69728C9.24957 17.1133 9.69728 16.6656 9.69728 16.1133V10.7656C9.69728 10.2133 9.24957 9.76562 8.69728 9.76562Z" fill="#DAEF64"/>
<path d="M14.1035 9.76562H11.3025C10.7502 9.76562 10.3025 10.2133 10.3025 10.7656V16.1133C10.3025 16.6656 10.7502 17.1133 11.3025 17.1133H14.1035C14.6558 17.1133 15.1035 16.6656 15.1035 16.1133V10.7656C15.1035 10.2133 14.6558 9.76562 14.1035 9.76562Z" fill="#DAEF64"/>
<path d="M9.99984 6.10039C9.99984 5.15395 9.23261 4.38672 8.28617 4.38672C7.33974 4.38672 6.57251 5.15395 6.57251 6.10039" stroke="#DAEF64" stroke-linecap="round"/>
<path d="M13.4271 6.10039C13.4271 5.15395 12.6599 4.38672 11.7134 4.38672C10.767 4.38672 9.99976 5.15395 9.99976 6.10039" stroke="#DAEF64" stroke-linecap="round"/>
</svg>
