<svg width="32" height="32" viewBox="0 0 32 32" fill="none" xmlns="http://www.w3.org/2000/svg">
<path d="M4.91699 19.3288V5.31744C4.91699 4.76516 5.36471 4.31744 5.91699 4.31744H26.0825C26.6347 4.31744 27.0825 4.76516 27.0825 5.31744V19.3288C27.0825 19.8811 26.6347 20.3288 26.0825 20.3288H17.3459C17.1003 20.3288 16.8633 20.4191 16.6801 20.5827L10.39 26.1959C9.74557 26.771 8.72421 26.3136 8.72421 25.4498V21.3288C8.72421 20.7765 8.27649 20.3288 7.72421 20.3288H5.91699C5.36471 20.3288 4.91699 19.8811 4.91699 19.3288Z" stroke="black" stroke-width="2" stroke-linecap="round" stroke-linejoin="round"/>
<ellipse cx="11.2988" cy="12.658" rx="1.03516" ry="1" fill="black"/>
<ellipse cx="16.4033" cy="12.658" rx="1.03516" ry="1" fill="black"/>
<ellipse cx="21.5068" cy="12.658" rx="1.03516" ry="1" fill="black"/>
</svg>
