<svg width="18" height="19" viewBox="0 0 18 19" fill="none" xmlns="http://www.w3.org/2000/svg">
<path d="M4.69727 6.4253C4.69727 4.72331 6.07732 3.34326 7.7793 3.34326C9.48128 3.34326 10.8613 4.72331 10.8613 6.4253C10.8613 8.12729 9.48128 9.50734 7.7793 9.50734C6.07732 9.50734 4.69727 8.12729 4.69727 6.4253Z" stroke="black" stroke-width="1.5"/>
<path d="M13.0476 16.5931C13.1677 16.5931 13.2615 16.4894 13.2496 16.3699V16.3699L13.2273 16.1579L13.1938 15.9459L13.1603 15.7338L13.1157 15.5218L13.0599 15.3098L13.0041 15.0978L12.9371 14.8969L12.8702 14.6849L12.7921 14.4841L12.7028 14.2832L12.6135 14.0823L12.5689 13.9931L12.5131 13.8926L12.4685 13.7922L12.4127 13.7029L12.3569 13.6025L12.3011 13.5132L12.2453 13.424L12.1783 13.3347L12.1225 13.2454L12.0667 13.1673L11.9998 13.078L11.9328 12.9999L11.877 12.9218L11.8101 12.8325L11.7766 12.7935C11.7543 12.7675 11.7301 12.7432 11.7041 12.721V12.721C11.6781 12.6987 11.6538 12.6744 11.6316 12.6484L11.5981 12.6094L11.5311 12.5313L11.453 12.4531L11.3861 12.3862L11.3079 12.3192L11.2298 12.2523L11.2196 12.2421C11.1744 12.1969 11.1256 12.1555 11.0736 12.1184V12.1184L10.9955 12.0514L10.9573 12.0187C10.9307 11.9959 10.9025 11.9752 10.8727 11.9566L10.8717 11.9559C10.8427 11.9378 10.8151 11.9175 10.7891 11.8952V11.8952C10.7631 11.8729 10.7354 11.8526 10.7064 11.8345L10.6607 11.8059L10.5715 11.7501L10.4933 11.6943L10.4041 11.6386L10.3148 11.5939L10.2255 11.5381L10.1363 11.4935L10.047 11.4489L9.94656 11.4042L9.85729 11.3596L9.76802 11.3261L9.66759 11.2815L9.556 11.248L9.44442 11.2034L9.33283 11.1699L9.22124 11.1364L9.10965 11.1029L8.9869 11.0806L8.87531 11.0583L8.76372 11.036L8.64098 11.0137L8.52939 10.9913L8.40664 10.9802L8.29505 10.969L8.17231 10.9579L8.06072 10.9467H7.93797V10.9467C7.86375 10.9393 7.78898 10.9389 7.7147 10.9457L7.70363 10.9467H7.59204L7.4693 10.9579L7.35771 10.969L7.23496 10.9802L7.12337 10.9913L7.00062 11.0137L6.88904 11.036L6.76629 11.0583L6.6547 11.0806L6.54311 11.1029L6.43152 11.1364L6.30878 11.1699L6.19719 11.2034L6.0856 11.248L6.06961 11.2528C6.00599 11.2719 5.94414 11.2964 5.88474 11.3261V11.3261L5.79547 11.3596L5.69504 11.4042L5.60577 11.4489L5.5165 11.4935L5.42723 11.5381L5.33796 11.5939L5.24868 11.6386L5.15941 11.6943L5.07014 11.7501L4.98087 11.8059L4.90276 11.8617L4.81349 11.9287L4.73538 11.9845L4.65727 12.0514L4.57915 12.1184V12.1184C4.52717 12.1555 4.47834 12.1969 4.43316 12.2421L4.42293 12.2523L4.34482 12.3192L4.26671 12.3862V12.3862C4.21471 12.4308 4.16621 12.4793 4.12164 12.5313V12.5313L4.04353 12.6094L3.97658 12.6875L3.90962 12.7544L3.84267 12.8325L3.77572 12.9218L3.70876 12.9999L3.65297 13.078L3.58602 13.1673L3.53022 13.2454L3.46327 13.3347L3.40747 13.424L3.35168 13.5132L3.29589 13.6025L3.24009 13.7029L3.1843 13.7922L3.1285 13.8926L3.08387 13.9931L3.02807 14.0823L2.9388 14.2832L2.86069 14.4841L2.78258 14.6849L2.70447 14.8969L2.64867 15.0978L2.58172 15.3098L2.53708 15.5218L2.49245 15.7338L2.44781 15.9459L2.41434 16.1579L2.39202 16.3699V16.3699C2.38595 16.4913 2.48275 16.5931 2.60431 16.5931H13.0476Z" stroke="black" stroke-width="1.5" stroke-miterlimit="10" stroke-linecap="round" stroke-linejoin="round"/>
<path d="M9.7793 11.1276C10.1141 10.8353 11.0278 10.2505 12.0044 10.2505C13.7805 10.2505 15.5265 11.3044 15.6175 13.7302C15.6216 13.8406 15.5317 13.9307 15.4212 13.9307H12.63" stroke="black" stroke-width="1.5" stroke-linecap="round"/>
<path fill-rule="evenodd" clip-rule="evenodd" d="M10.4453 9.17763C10.9235 9.52088 11.5099 9.72299 12.1434 9.72299C13.7534 9.72299 15.0588 8.41756 15.0588 6.80754C15.0588 5.19752 13.7534 3.89209 12.1434 3.89209C11.692 3.89209 11.2646 3.99469 10.8832 4.17783C11.1753 4.58059 11.391 5.04242 11.5089 5.54198C11.6997 5.44608 11.9153 5.39209 12.1434 5.39209C12.925 5.39209 13.5588 6.02594 13.5588 6.80754C13.5588 7.58914 12.925 8.22299 12.1434 8.22299C11.8268 8.22299 11.5345 8.11901 11.2987 7.94334C11.0971 8.41012 10.8053 8.82887 10.4453 9.17763Z" fill="black"/>
</svg>
