<svg width="32" height="32" viewBox="0 0 32 32" fill="none" xmlns="http://www.w3.org/2000/svg">
<path d="M7.11825 23H5.02166L9.7326 9.90909H12.0146L16.7255 23H14.6289L10.9279 12.2869H10.8256L7.11825 23ZM7.46982 17.8736H14.271V19.5355H7.46982V17.8736ZM21.3198 23.2173C20.6976 23.2173 20.1351 23.1023 19.6323 22.8722C19.1294 22.6378 18.731 22.299 18.437 21.8558C18.1472 21.4126 18.0023 20.8693 18.0023 20.2259C18.0023 19.6719 18.1088 19.2159 18.3219 18.858C18.535 18.5 18.8226 18.2166 19.1848 18.0078C19.5471 17.799 19.9519 17.6413 20.3993 17.5348C20.8468 17.4283 21.3027 17.3473 21.7672 17.2919C22.3553 17.2237 22.8326 17.1683 23.199 17.1257C23.5655 17.0788 23.8319 17.0043 23.998 16.902C24.1642 16.7997 24.2473 16.6335 24.2473 16.4034V16.3587C24.2473 15.8004 24.0897 15.3679 23.7743 15.0611C23.4632 14.7543 22.9988 14.6009 22.3809 14.6009C21.7374 14.6009 21.2303 14.7436 20.8596 15.0291C20.4931 15.3104 20.2395 15.6236 20.0989 15.9688L18.3027 15.5597C18.5158 14.9631 18.8269 14.4815 19.236 14.1151C19.6493 13.7443 20.1245 13.4759 20.6614 13.3097C21.1983 13.1392 21.763 13.054 22.3553 13.054C22.7473 13.054 23.1628 13.1009 23.6017 13.1946C24.0449 13.2841 24.4583 13.4503 24.8418 13.6932C25.2296 13.9361 25.5471 14.2834 25.7942 14.7351C26.0414 15.1825 26.165 15.7642 26.165 16.4801V23H24.2985V21.6577H24.2218C24.0982 21.9048 23.9128 22.1477 23.6657 22.3864C23.4185 22.625 23.101 22.8232 22.7132 22.9808C22.3255 23.1385 21.861 23.2173 21.3198 23.2173ZM21.7353 21.6832C22.2637 21.6832 22.7154 21.5788 23.0904 21.37C23.4696 21.1612 23.7573 20.8885 23.9533 20.5518C24.1536 20.2109 24.2537 19.8466 24.2537 19.4588V18.1932C24.1855 18.2614 24.0534 18.3253 23.8574 18.3849C23.6657 18.4403 23.4462 18.4893 23.199 18.532C22.9519 18.5703 22.7111 18.6065 22.4767 18.6406C22.2424 18.6705 22.0463 18.696 21.8887 18.7173C21.5179 18.7642 21.1792 18.843 20.8723 18.9538C20.5698 19.0646 20.3269 19.2244 20.1436 19.4332C19.9647 19.6378 19.8752 19.9105 19.8752 20.2514C19.8752 20.7244 20.0499 21.0824 20.3993 21.3253C20.7488 21.5639 21.1941 21.6832 21.7353 21.6832Z" fill="white"/>
</svg>
