<svg width="2075" height="2440" viewBox="0 0 2075 2440" fill="none" xmlns="http://www.w3.org/2000/svg">
<path d="M2016.85 1086.05C2020.24 1086.41 2023.32 1086.83 2026.41 1087.05C2031.54 1087.41 2033.9 1089.38 2033.4 1094.45C2031.41 1114.95 2028.98 1135.36 2021.15 1154.72C2019.06 1159.88 2018.4 1165.59 2016.75 1170.94C2013.52 1181.4 2010.03 1191.78 2006.68 1202.2C2002.62 1214.81 1998.59 1227.43 1994.55 1240.04C1994.35 1240.67 1994.29 1241.36 1994.03 1241.96C1985.53 1262.51 1976.87 1282.99 1968.57 1303.62C1964.5 1313.75 1960.6 1324.01 1957.52 1334.47C1953.3 1348.82 1948.9 1362.93 1939.94 1375.26C1937.72 1378.32 1937.37 1382.69 1935.94 1386.37C1931.61 1397.51 1927 1408.54 1922.83 1419.74C1916.81 1435.92 1911.34 1452.31 1905.17 1468.43C1898.88 1484.87 1891.26 1500.68 1881.35 1515.36C1877.29 1521.36 1874.2 1528.05 1871.01 1534.59C1865.76 1545.33 1860.06 1548.51 1848.03 1546.82C1846.79 1546.65 1845.14 1546.63 1844.43 1545.85C1836.42 1537.17 1827.42 1539.02 1817.66 1542.32C1810.06 1544.89 1802.12 1544.72 1794.54 1541.01C1785.25 1536.47 1775.63 1533.31 1765.08 1532.82C1760.99 1532.63 1756.89 1530.33 1753.01 1528.51C1746.28 1525.36 1739.55 1522.68 1731.91 1524.05C1730.93 1524.22 1729.83 1524.44 1728.93 1524.16C1715.62 1519.94 1701.41 1522.19 1688 1518.19C1679.77 1515.74 1671.04 1515.01 1662.74 1512.77C1651 1509.6 1639.43 1505.81 1627.84 1502.14C1620.26 1499.74 1612.87 1496.67 1605.17 1494.78C1602.41 1494.1 1598.14 1495.05 1596.11 1496.93C1591.91 1500.82 1587.01 1501.8 1581.93 1503.37C1576.68 1505 1571.93 1508.19 1566.91 1510.59C1560.12 1513.84 1553.3 1517.03 1546.46 1520.18C1542.25 1522.12 1538.05 1524.08 1533.73 1525.73C1531.62 1526.54 1529.04 1527.47 1527.03 1526.95C1519.61 1525.02 1512.57 1527.09 1505.32 1527.73C1501.48 1528.07 1496.44 1526.86 1493.64 1524.41C1487.22 1518.79 1480.56 1513.28 1476.62 1505.1C1472.07 1495.65 1470.85 1495.29 1460.07 1497.45C1454.45 1498.58 1451.16 1496.45 1446.98 1492.92C1434.8 1482.61 1430.67 1468.38 1425.64 1454.28C1420.73 1440.52 1414.93 1427.08 1409.43 1413.53C1407.39 1408.51 1403.88 1405.25 1398.08 1405.48C1387.08 1405.92 1377.3 1401.9 1367.56 1397.48C1363.65 1395.71 1359.3 1394.93 1355.28 1393.35C1343 1388.51 1330.94 1383.06 1318.5 1378.67C1301.44 1372.65 1285.12 1364.68 1267.05 1361.27C1246.92 1357.46 1227 1352.36 1207.18 1347.12C1200.25 1345.29 1193.2 1342.33 1187.39 1338.21C1175.79 1329.99 1164.94 1320.7 1153.95 1311.65C1151.98 1310.03 1150.8 1307.45 1149.28 1305.3C1146.06 1300.76 1143.17 1295.93 1139.54 1291.74C1136.01 1287.66 1133.92 1283.53 1132.43 1278.1C1128.76 1264.75 1127.34 1251 1127.82 1237.66C1128.46 1219.59 1129.39 1201.18 1135.53 1183.71C1142.04 1165.2 1148.37 1146.63 1154.86 1128.12C1156.17 1124.37 1157.84 1120.75 1159.37 1117.07C1167.65 1097.15 1176.42 1077.41 1184.01 1057.23C1187.22 1048.7 1188.1 1039.27 1189.85 1030.21C1192.98 1014.02 1203.45 1004.15 1217.69 997.46C1219.2 996.75 1220.72 996.07 1222.19 995.3C1222.76 995 1223.2 994.46 1224.03 993.75C1224.74 987.6 1220.88 984.08 1215.8 981.94C1205.7 977.68 1198.03 970.43 1190.57 962.76C1185.25 957.29 1179.1 952.57 1174.18 946.78C1157.87 927.58 1141.79 908.19 1125.99 888.57C1122.07 883.71 1119.59 877.7 1116.37 872.26C1107.46 857.15 1098.67 841.97 1089.54 827C1082.58 815.58 1080.55 802.89 1078.73 790.02C1077.9 784.12 1076.72 778.22 1075.17 772.47C1072.57 762.85 1067.36 755.31 1058.52 749.82C1051.06 745.18 1048.06 736.45 1047.74 728.35C1046.98 708.85 1046.7 689.43 1051.45 669.97C1056.66 648.62 1065.3 628.46 1070.74 607.31C1072.62 599.99 1073.88 592.71 1077.03 585.64C1082.12 574.18 1090.69 566.66 1101.76 562.49C1109.09 559.73 1113.26 555.03 1116.33 548.55C1117.61 545.85 1118.85 543.12 1119.88 540.32C1125.81 524.12 1135.11 510.22 1147.27 497.96C1152.61 492.58 1156.67 485.96 1161.49 480.04C1163.53 477.54 1165.75 475.01 1168.37 473.19C1180.01 465.13 1190.72 455.98 1204.92 451.56C1213.77 448.81 1221.25 441.6 1229.31 436.33C1233.47 433.61 1237.31 430.33 1241.67 428C1260.7 417.8 1279.63 407.37 1299.1 398.08C1305.71 394.92 1313.74 394.43 1321.22 393.48C1335.02 391.72 1348.89 390.49 1362.74 389.09C1372.91 388.07 1383.09 386.48 1393.27 386.37C1401.15 386.29 1409.07 387.93 1416.93 389.11C1429.4 390.98 1441.8 393.39 1454.29 395.06C1474.5 397.77 1492.18 405.83 1508.16 418.4C1522.21 429.45 1536.89 439.71 1551.1 450.57C1566.28 462.18 1576.38 477.38 1582.64 495.44C1585.13 502.61 1588.36 509.77 1592.57 516.05C1601.23 528.96 1605.6 543.57 1611.28 557.74C1618.28 575.19 1622.03 593.33 1624.83 611.77C1625.33 615.04 1625.67 618.48 1626.96 621.47C1634.84 639.74 1637.38 658.99 1638.52 678.64C1639.28 691.83 1640.86 704.98 1642.07 718.15C1642.19 719.47 1642.84 721.21 1642.25 722.04C1636.49 730.17 1639.41 740.07 1636.6 748.84C1633.87 757.36 1632.61 766.35 1630.09 774.95C1628.81 779.31 1627.09 784.19 1624 787.25C1615.71 795.46 1611.21 805.82 1606.09 815.82C1599.73 828.25 1594.56 841.32 1587.63 853.41C1576.28 873.21 1565.23 893.26 1549.01 909.88C1538.13 921.03 1528.26 933.15 1517.88 944.78C1516.34 946.51 1514.7 948.36 1512.73 949.48C1498.81 957.37 1489.28 969.92 1478.4 981.1C1469.37 990.38 1459.65 999.01 1450.07 1007.75C1448.17 1009.49 1445.63 1010.67 1443.21 1011.68C1432.52 1016.16 1422 1021.29 1410.95 1024.63C1402.14 1027.29 1392.7 1028.07 1383.47 1029.04C1370.9 1030.35 1358.26 1030.99 1345.66 1032.03C1331.09 1033.22 1317.78 1031.09 1304.77 1022.98C1295.71 1017.33 1284.42 1015.08 1273.94 1011.97C1268.68 1010.41 1266.94 1012.38 1266.62 1018.23C1266.42 1021.88 1266.25 1025.54 1266.28 1029.2C1266.35 1038.8 1260.75 1044.99 1252.89 1048.45C1243.44 1052.62 1237.7 1058.75 1236.45 1069.1C1236.18 1071.34 1234.89 1073.46 1234.03 1075.62C1226.61 1094.1 1219.03 1112.52 1211.8 1131.08C1203.36 1152.74 1194.81 1174.38 1187.11 1196.31C1181.1 1213.42 1179.36 1231.34 1181.22 1249.42C1181.89 1255.94 1182.78 1262.8 1185.46 1268.64C1188.14 1274.49 1192.39 1280.19 1197.34 1284.29C1206.34 1291.73 1217.02 1296.53 1228.3 1299.88C1242 1303.96 1255.94 1306.45 1270.1 1308.51C1283.72 1310.5 1297.53 1312.3 1309.86 1320.23C1315.59 1323.92 1323.28 1324.66 1329.93 1327.68C1344.11 1334.12 1358.93 1339.17 1373.45 1344.87C1376.53 1346.08 1379.44 1347.71 1382.49 1348.99C1384.9 1350 1387.36 1351.22 1389.9 1351.54C1402.66 1353.16 1415.51 1354.14 1428.19 1356.18C1432.15 1356.81 1436.37 1359.33 1439.31 1362.18C1452.9 1375.38 1463.06 1390.69 1466.88 1409.7C1467.92 1414.88 1469.64 1419.96 1471.52 1424.91C1474.66 1433.19 1478.18 1435.09 1487.03 1433.31C1499.84 1430.73 1512.1 1426.8 1521.72 1417.27C1531.18 1407.89 1532.21 1407.46 1546.03 1404.68C1548.87 1404.11 1551.39 1402.13 1554.19 1401.21C1562.02 1398.63 1569.8 1395.75 1577.82 1393.95C1585.65 1392.2 1592.27 1395.28 1599.14 1399.71C1607.88 1405.34 1617.06 1411.58 1628.67 1409.8C1630.55 1409.51 1632.61 1410.15 1634.56 1410.49C1644.35 1412.17 1654.16 1413.74 1663.91 1415.64C1672.05 1417.22 1680.02 1420 1688.22 1420.83C1702.06 1422.24 1714.37 1427.53 1726.94 1432.9C1737.49 1437.4 1748.25 1441.83 1760.49 1440.81C1769.01 1440.1 1777.71 1441.25 1786.31 1441.81C1788.15 1441.93 1789.96 1443.03 1791.72 1443.8C1797.34 1446.28 1800.15 1445.51 1803.29 1440.4C1804.16 1438.99 1805.13 1437.51 1805.48 1435.93C1808.57 1422.24 1817.48 1411.6 1824.16 1399.79C1832.81 1384.48 1843.01 1370.18 1850.33 1353.93C1855.01 1343.54 1858.49 1333.21 1861.39 1322.31C1864.1 1312.11 1869.37 1302.61 1872.41 1292.48C1875.96 1280.67 1880 1269.21 1885.46 1258.09C1890.12 1248.61 1893.1 1238.3 1896.72 1228.32C1902.15 1213.36 1907.55 1198.4 1912.83 1183.39C1914.81 1177.77 1916.14 1171.92 1918.21 1166.34C1924.93 1148.29 1932.17 1130.42 1938.58 1112.26C1942.87 1100.11 1946.17 1087.61 1949.8 1075.24C1951.72 1068.68 1950.53 1066.65 1944.17 1063.73C1933.6 1058.88 1923.44 1052.89 1912.49 1049.17C1898.16 1044.3 1884.66 1037.12 1869.28 1034.78C1863.29 1033.87 1857.41 1030.28 1850.89 1028.86C1840.23 1026.54 1830 1022.27 1819.59 1018.83C1818.02 1018.31 1816.44 1017.78 1814.82 1017.43C1801.57 1014.55 1788.43 1010.86 1775.03 1009.12C1762.92 1007.55 1752.16 1002.5 1740.86 998.85C1725.85 994.01 1710.74 990.94 1694.81 991.77C1689.02 992.07 1682.91 990.66 1677.28 988.93C1668.41 986.21 1659.85 982.49 1651.11 979.34C1643.89 976.74 1636.91 974.05 1631.36 968.21C1628.48 965.18 1624.49 962.82 1620.56 961.24C1612.45 957.96 1608.39 951.2 1604.43 944.24C1601.97 939.92 1602.47 935.66 1606.56 932.67C1613.93 927.28 1620.5 919.83 1631.2 921.93C1632.13 922.11 1633.29 921.99 1634.15 921.59C1645.53 916.3 1656.27 921.94 1667.2 923.63C1669.34 923.96 1671.7 925.36 1673.17 926.98C1678.57 932.93 1685.78 933.83 1693.03 934.85C1712 937.51 1731.2 939.14 1749.84 943.27C1762.57 946.09 1775.36 949.74 1787.33 955.94C1795.1 959.96 1804.19 962.03 1812.93 963.44C1828.17 965.9 1842.37 971.25 1856.5 976.95C1874.96 984.4 1892.91 992.95 1910.89 1001.52C1923.62 1007.59 1936.71 1012.74 1948.5 1020.68C1951.12 1022.45 1954.62 1023.06 1957.8 1023.83C1967.46 1026.19 1977.21 1028.19 1986.81 1030.74C1989.17 1031.37 1991.1 1033.58 1993.27 1034.98C1995.18 1036.21 1997.26 1038.45 1999.1 1038.29C2005.58 1037.71 2009.82 1042.03 2014.05 1045.2C2020.12 1049.75 2020.14 1057.43 2019.8 1064.33C2019.46 1071.2 2018.01 1078.01 2016.88 1086.06L2016.85 1086.05ZM1422.46 899.26C1432.31 901.14 1441.33 899.49 1450.18 894.33C1457.18 890.25 1464.84 887.09 1473.52 887.08C1477.27 887.08 1481.27 885.12 1484.72 883.26C1492.58 879.01 1500.04 873.99 1507.95 869.84C1512.56 867.42 1517.78 866.17 1522.64 864.17C1525.62 862.94 1528.8 861.76 1531.26 859.77C1540.84 852.03 1546.36 841.3 1551.4 830.44C1558.51 815.12 1566.61 800.16 1569.97 783.35C1571.13 777.53 1573.23 771.68 1573.09 765.88C1572.92 758.7 1574.49 753.71 1581.58 751.01C1586.32 749.2 1588.74 745.59 1589.14 740.29C1590.16 726.76 1591.54 713.25 1592.68 699.72C1592.82 698.1 1592.35 696.43 1592.19 694.77C1591.16 684.18 1590.36 673.56 1589.04 663.01C1588.01 654.81 1586.67 646.62 1584.86 638.57C1580.02 617.06 1569.36 597.05 1568.42 574.5C1568.34 572.68 1566.9 570.87 1565.95 569.13C1556.91 552.57 1548.14 535.85 1538.66 519.55C1534.02 511.58 1528.53 503.99 1522.55 496.96C1508.36 480.28 1488.2 471.28 1471.19 458.19C1469.23 456.68 1466.22 456.48 1463.67 455.81C1459.82 454.79 1455.9 454.04 1452.09 452.9C1435.24 447.85 1418.43 442.54 1400.52 443.19C1393.22 443.45 1385.93 444.05 1378.64 444.58C1368.07 445.34 1357.51 446.22 1346.94 446.98C1338.34 447.59 1329.69 447.66 1321.77 451.97C1314.2 456.09 1306.3 459.58 1298.79 463.8C1283.17 472.58 1267.56 481.4 1252.25 490.71C1242.61 496.57 1233.75 503.46 1222.61 506.86C1216.84 508.62 1211.34 512.56 1206.79 516.7C1197.93 524.75 1189.58 533.39 1181.51 542.24C1176.41 547.84 1171.07 553.71 1167.82 560.42C1160.31 575.93 1154.08 592.02 1156.17 609.95C1156.39 611.83 1155.8 613.88 1155.28 615.76C1151.53 629.24 1148.89 642.75 1150.6 656.95C1151.71 666.14 1151.02 675.56 1152.18 684.74C1153.34 693.92 1155.91 702.92 1157.67 712.03C1161.05 729.58 1164.58 747.11 1167.48 764.74C1168.84 773.01 1173.36 780.37 1174.58 788.24C1176.31 799.41 1182.23 807.12 1189.88 814.07C1193.9 817.73 1195.36 821.38 1193.41 826.38C1191.74 830.65 1193.54 834.05 1195.92 837.47C1200.52 844.11 1206.74 848.69 1213.12 853.59C1230.18 866.7 1246.72 880.24 1265.76 890.75C1281.91 899.66 1297.89 903.74 1316.21 900.57C1328.58 898.42 1341.28 897.29 1353.84 897.3C1376.72 897.33 1399.6 898.55 1422.47 899.28L1422.46 899.26ZM1354.34 986.12C1356.66 985.94 1358.99 985.8 1361.31 985.57C1371.15 984.61 1376.24 980.68 1378.12 971.39C1379.49 964.57 1380.16 957.56 1380.57 950.6C1381.01 943.34 1378.42 941.1 1371.04 941.5C1369.05 941.61 1367.09 942.07 1365.12 942.38C1357.27 943.63 1349.46 945.4 1341.56 946.02C1332.17 946.75 1325.01 950.02 1320.96 959.01C1319.92 961.33 1317.88 963.23 1316.14 965.18C1311.9 969.92 1311.99 973.39 1317.25 976.41C1328.69 982.98 1341.16 986.03 1354.34 986.11V986.12ZM1465.17 943.41C1462.61 938.67 1459.47 939.45 1455.71 940.85C1446.47 944.28 1437.48 945.47 1428.05 940.09C1421.78 936.51 1414.29 938.67 1407.72 940.61C1405.45 941.28 1403.27 945.39 1402.73 948.25C1401.33 955.72 1400.84 963.35 1400.05 970.93C1399.45 976.64 1400.49 977.98 1406.36 978.2C1414.5 978.5 1422 976.74 1428.74 971.65C1439.79 963.29 1449.4 952.97 1462.17 946.9C1463.47 946.28 1464.24 944.54 1465.17 943.42V943.41ZM1220.08 913.91C1220.93 915.72 1221.18 917.19 1222.06 917.96C1233.41 927.91 1243.94 938.9 1257.4 946.23C1259.7 947.48 1261.63 949.46 1263.98 950.54C1273.55 954.93 1283.13 959.33 1292.9 963.21C1296.44 964.62 1299.36 962.29 1300.8 958.85C1302.51 954.76 1300.29 950.81 1294.91 949.24C1287.9 947.2 1280.77 945.49 1273.62 944.04C1268.26 942.95 1263.81 940.79 1259.61 937.11C1252.38 930.77 1244.59 925.05 1236.92 919.23C1232.2 915.64 1227.04 913.06 1220.08 913.91ZM1109.47 768.84C1117.12 764.76 1119.72 759.4 1119.76 750.92C1119.86 733.08 1109.25 720.31 1100.61 703.65C1099.08 708.39 1097.78 710.93 1097.48 713.58C1095.36 731.94 1102.06 748.77 1106.93 765.89C1107.17 766.73 1108.16 767.35 1109.48 768.83L1109.47 768.84ZM1147.86 836.39C1149.32 834.71 1149.81 834.25 1150.16 833.71C1150.51 833.16 1150.83 832.54 1150.97 831.91C1155.09 814.01 1145.29 800.85 1135.62 787.8C1133.68 785.18 1130.25 785.4 1127.66 787.89C1124.11 791.31 1123.29 795.59 1125.68 799.7C1132.64 811.67 1139.97 823.42 1147.85 836.39H1147.86ZM1167.2 862.35C1166.5 867.47 1168.7 868.93 1174.67 868.03C1172.13 865.18 1172.27 861.14 1167.2 862.35ZM1179.65 881.43C1181.37 875.57 1180.41 873.89 1175.26 874.49C1176.65 876.69 1177.57 878.14 1179.65 881.43Z" fill="white"/>
<path d="M1694.28 2050.44C1689.74 2060.38 1685.1 2069.06 1681.78 2078.21C1677.92 2088.86 1669.76 2095.54 1661.77 2102.47C1648.23 2114.21 1634.19 2125.36 1620.87 2137.34C1610.4 2146.75 1598.76 2153.99 1586.07 2159.8C1584.14 2160.68 1582.44 2162.05 1578.54 2164.51C1583.42 2165.61 1586.24 2167.07 1588.78 2166.69C1612.68 2163.16 1636.59 2167.33 1660.5 2166.42C1677.44 2165.78 1694.43 2165.88 1711.39 2166.18C1747.94 2166.84 1784.47 2167.81 1821.01 2168.72C1851.24 2169.47 1761.46 2170.89 1791.69 2170.95C1822.22 2171.01 1852.78 2170.2 1883.29 2168.95C1912.51 2167.75 1941.67 2165.24 1970.87 2163.79C1992.1 2162.73 2013.39 2162.71 2034.62 2161.69C2042.1 2161.33 2049.5 2159.35 2057.88 2157.95C2060.12 2160.51 2062.29 2163.5 2064.96 2165.92C2068.53 2169.16 2068.33 2173.08 2067.28 2176.94C2066.14 2181.12 2063.14 2183.9 2058.58 2183.92C2053.3 2183.95 2048.02 2183.41 2042.74 2183.34C2024.81 2183.1 2006.87 2182.77 1988.94 2182.83C1975.31 2182.88 1961.67 2183.36 1948.05 2183.88C1938.77 2184.24 1929.51 2185.01 1920.25 2185.57C1908.33 2186.28 1896.42 2187.08 1884.49 2187.62C1866.88 2188.42 1849.26 2189.37 1831.64 2189.65C1810.69 2189.97 1789.72 2189.81 1768.76 2189.55C1747.2 2189.29 1845.64 2188.55 1824.08 2188.22C1804.82 2187.92 1785.56 2188.03 1766.3 2187.69C1757.03 2187.53 1747.77 2186.55 1738.5 2186.35C1732.21 2186.21 1725.9 2187.03 1719.61 2186.99C1708.63 2186.91 1697.66 2186.19 1686.69 2186.28C1659.8 2186.49 1632.92 2187.16 1606.04 2187.38C1570.76 2187.67 1535.47 2187.48 1500.19 2187.93C1480.91 2188.17 1461.64 2189.32 1442.36 2190C1438.75 2190.13 1435.12 2190.02 1430.51 2190.02C1429.42 2184.72 1428.03 2179.96 1427.58 2175.12C1427.15 2170.39 1430.75 2167.09 1435.52 2166.99C1451.13 2166.64 1466.74 2166.4 1482.34 2165.93C1484.46 2165.87 1486.54 2164.76 1490.4 2163.62C1487.02 2161.6 1485.31 2160.25 1483.37 2159.46C1467.4 2152.98 1451.54 2146.32 1438.1 2135.15C1425.2 2124.43 1418.11 2110.66 1416.67 2093.97C1416.64 2093.64 1416.7 2093.3 1416.65 2092.97C1413.34 2070.93 1413.85 2048.86 1416.91 2024.97C1409.85 2027.25 1403.99 2028.72 1398.45 2030.99C1367.09 2043.86 1335.6 2056.45 1304.64 2070.23C1296.4 2073.9 1287.64 2075.64 1279.64 2079.45C1264.08 2086.87 1249.12 2095.7 1233.21 2102.23C1219.27 2107.95 1207.21 2116.7 1193.93 2123.4C1182.96 2128.93 1172.65 2135.78 1161.74 2141.46C1148.83 2148.19 1135.44 2153.99 1122.53 2160.72C1097.9 2173.58 1072.45 2184.71 1047.15 2196.09C1032.98 2202.47 1017.82 2206.61 1003.18 2211.96C996.964 2214.23 990.764 2216.69 984.834 2219.62C971.574 2226.17 958.514 2233.12 945.304 2239.77C942.994 2240.93 940.314 2241.33 937.854 2242.24C933.184 2243.96 928.114 2245.09 923.994 2247.71C907.374 2258.26 888.364 2260.65 869.694 2263.49C862.524 2264.58 854.514 2262.39 847.294 2260.31C837.514 2257.49 827.844 2253.92 821.144 2245.29C819.584 2243.28 816.694 2242.36 814.854 2240.5C810.944 2236.56 805.684 2232.94 803.894 2228.11C797.574 2211.12 786.514 2196.79 778.724 2180.7C768.744 2160.08 758.964 2139.35 749.204 2118.62C741.864 2103.03 734.644 2087.38 727.454 2071.72C718.364 2051.93 709.404 2032.08 700.294 2012.3C694.034 1998.71 687.264 1985.35 681.334 1971.62C668.454 1941.8 654.054 1912.6 644.254 1881.49C638.284 1862.53 632.214 1843.56 625.004 1825.06C621.164 1815.21 614.824 1806.12 605.414 1800.47C599.174 1796.72 596.284 1790.97 593.864 1784.96C590.284 1776.06 586.654 1766.99 584.784 1757.64C583.534 1751.39 584.644 1744.42 585.834 1737.99C588.164 1725.44 592.744 1713.42 602.534 1704.93C608.924 1699.4 617.014 1695.75 624.624 1691.81C626.164 1691.01 628.984 1692.67 631.214 1693.22C639.634 1695.3 647.214 1696.74 655.304 1690.02C662.004 1684.46 671.054 1681.54 679.324 1678.09C694.964 1671.56 710.644 1665.33 725.004 1656C731.884 1651.53 739.914 1648.63 747.704 1645.77C762.014 1640.53 776.624 1636.07 790.954 1630.87C808.124 1624.64 825.134 1617.95 842.224 1611.51C863.044 1603.67 884.004 1596.18 904.694 1587.99C929.994 1577.98 955.124 1567.53 980.204 1556.98C986.614 1554.28 992.514 1550.39 998.734 1547.2C1020.88 1535.84 1042.44 1523.26 1066.79 1516.64C1073.76 1514.74 1080.14 1510.7 1086.82 1507.73C1103.07 1500.52 1120.03 1495.13 1135.4 1485.61C1148.95 1477.22 1164.78 1473.75 1180.14 1469.31C1192.49 1465.74 1203.98 1459.28 1216 1454.49C1221.78 1452.18 1227.87 1450.65 1233.88 1448.97C1236.09 1448.36 1238.7 1448.89 1240.72 1447.98C1252.14 1442.82 1263.35 1444.82 1275.18 1446.96C1294.36 1450.42 1304.09 1462.85 1310.91 1479.31C1314.85 1488.81 1319.87 1497.92 1323.14 1507.63C1327.42 1520.33 1333 1532.23 1339.59 1543.87C1343.8 1551.3 1346.5 1559.6 1349.71 1567.58C1353.67 1577.45 1357.07 1587.56 1361.41 1597.25C1367.39 1610.6 1374.03 1623.65 1380.36 1636.84C1381.22 1638.63 1381.94 1640.5 1382.7 1642.34C1389.01 1657.7 1395.63 1672.96 1401.53 1688.48C1405.65 1699.32 1408.81 1710.53 1412.38 1721.58C1415.13 1730.11 1416.77 1739.22 1420.83 1747.06C1427.65 1760.23 1430.31 1774.61 1435.05 1788.36C1438.74 1799.04 1442.92 1809.54 1446.6 1820.23C1453.29 1839.68 1464.8 1857.23 1468.94 1877.71C1470.18 1883.83 1472.33 1889.84 1474.65 1895.66C1476.18 1899.5 1478.77 1902.91 1480.83 1906.42C1486.89 1899.81 1492.09 1893.87 1497.59 1888.21C1503.44 1882.2 1510.52 1879.67 1519.12 1880.12C1528.07 1880.58 1537.1 1880.15 1546.06 1879.58C1555.63 1878.96 1564.76 1881.3 1573.19 1884.83C1590.47 1892.07 1607.64 1899.2 1623.62 1909.87C1637.71 1919.28 1650.41 1928.5 1659.94 1942.81C1665.93 1951.8 1670.31 1961.01 1673.39 1971.13C1675.2 1977.06 1676.34 1983.46 1679.42 1988.68C1684.88 1997.92 1688.37 2007.59 1688.67 2020.34C1694.65 2014.77 1700.17 2011.49 1702.9 2006.64C1706.89 1999.57 1713.27 1998.35 1719.57 1997.86C1730.83 1996.99 1742.19 1997.46 1753.5 1997.4C1754.49 1997.4 1755.64 1997.31 1756.45 1997.75C1770.41 2005.21 1745.77 1996.68 1760.45 1998.3C1777.61 2000.18 1794.83 2001.9 1812.07 2002.66C1847.18 2004.22 1882.04 2008.75 1917.07 2011.16C1934.94 2012.39 1832.99 2013.37 1850.48 2016.89C1863.04 2019.41 1874.9 2018.25 1886.87 2016.23C1899.74 2014.06 1911.97 2016.74 1924.36 2018.92C1928.91 2019.72 1933.34 2021.16 1937.88 2022C1946.99 2023.69 1956.1 2025.43 1965.28 2026.63C1971.2 2027.4 1977.23 2027.45 1983.22 2027.49C1998.19 2027.58 1973.15 2024.52 1988.12 2024.42C1994.77 2024.38 2001.48 2024.54 2008.06 2023.77C2013.95 2023.09 2020.48 2022.49 2021.29 2016.11C2028.49 2016.11 2034.61 2016.23 2040.73 2016.09C2058.34 2015.67 2074.1 2032.21 2072.86 2049.92C2072.81 2050.58 2072.42 2051.35 2072.64 2051.88C2076.99 2062.52 2071.6 2072.01 2068.99 2081.76C2068.41 2083.94 2066.52 2086.92 2064.67 2087.41C2055.87 2089.73 2046.89 2091.33 2037.97 2093.18C2037.65 2093.25 2037.32 2093.32 2036.99 2093.36C2032.25 2093.93 2028.08 2091.82 2023.69 2090.89C2020.29 2090.17 2015.87 2095.2 2012.15 2094.88C2003.95 2094.18 1995.09 2093.26 1988 2089.55C1980.17 2085.45 2012.13 2087.62 2004.18 2087.42C1991.96 2087.12 1979.65 2088.39 1967.45 2089.68C1955.06 2090.99 1942.99 2089.31 1930.83 2087.59C1922.97 2086.48 1915.05 2085.57 1907.12 2085.25C1891.92 2084.64 1876.71 2084.46 1861.5 2084.22C1858.18 2084.17 1854.86 2084.83 1851.54 2084.75C1845.29 2084.6 1839.05 2084.17 1832.81 2083.81C1831.49 2083.73 1830.17 2083.28 1828.86 2083.33C1811.01 2083.88 1913.17 2084.57 1895.32 2084.98C1891.82 2085.06 1888.29 2084.09 1884.78 2083.55C1883.17 2083.3 1881.54 2082.51 1880 2082.67C1856.98 2085.14 1834.6 2081.13 1812.29 2076.27C1809.73 2075.71 1806.94 2074.73 1804.52 2075.22C1790.83 2077.99 1777.54 2073.62 1764.08 2073.48C1750.85 2073.35 1777.95 2075.57 1764.68 2075.14C1746.64 2074.56 1728.03 2072.42 1711.24 2063.97C1709.24 2062.96 1707.57 2061.29 1705.8 2059.86C1702 2056.81 1698.24 2053.72 1694.27 2050.49L1694.28 2050.44ZM1433.93 1957.64C1427.89 1954.15 1428.41 1950.38 1430.86 1946.68C1434.21 1941.62 1433.39 1936.66 1431.18 1931.49C1428.84 1926.02 1426.64 1920.49 1424.61 1914.9C1420.98 1904.92 1418.14 1894.6 1413.85 1884.92C1408.54 1872.93 1407.29 1859.22 1398.55 1848.66C1397.58 1847.49 1397.66 1845.49 1397.15 1843.92C1390.41 1823.42 1384.58 1802.56 1376.61 1782.55C1369.6 1764.93 1363.35 1747.22 1358.21 1728.97C1354.54 1715.93 1348.85 1703.46 1343.87 1690.81C1342.3 1686.81 1339.82 1683.17 1338.22 1679.19C1329.68 1657.92 1321.28 1636.59 1312.87 1615.27C1312.14 1613.42 1311.71 1611.46 1311.11 1609.56C1305.58 1591.94 1304.74 1573.15 1295.58 1556.32C1287.67 1541.78 1282.33 1525.85 1275.61 1510.65C1272.71 1504.09 1270.74 1503.6 1263.88 1504.32C1257.33 1505 1250.71 1504.98 1244.12 1505.25C1237.48 1505.53 1230.4 1504.38 1224.28 1506.31C1204.39 1512.59 1184.76 1519.72 1165.22 1527.02C1127.52 1541.1 1091.03 1557.69 1055.7 1577.15C1030.45 1591.06 1004.88 1604.48 977.404 1614.24C950.534 1623.79 924.794 1636.51 898.414 1647.47C876.314 1656.65 854.174 1665.75 831.744 1674.07C807.084 1683.22 782.944 1693.33 760.184 1706.59C754.484 1709.91 748.694 1713.24 742.614 1715.75C729.454 1721.2 716.244 1726.65 702.724 1731.1C693.074 1734.28 682.944 1737.26 672.914 1737.66C663.764 1738.03 657.114 1740.74 653.314 1748.44C649.284 1756.61 645.454 1764.95 652.634 1774.23C658.484 1781.8 662.934 1790.51 667.554 1798.96C669.924 1803.29 672.634 1808.09 672.874 1812.79C673.324 1821.64 677.484 1828.59 681.554 1835.81C683.664 1839.57 685.834 1843.32 687.584 1847.25C696.194 1866.67 704.604 1886.17 713.224 1905.58C720.634 1922.29 728.444 1938.83 735.664 1955.62C740.644 1967.2 744.864 1979.1 749.554 1990.81C752.394 1997.9 755.084 2005.09 758.524 2011.89C762.704 2020.12 767.984 2027.8 772.104 2036.05C778.484 2048.83 784.214 2061.93 790.354 2074.82C796.204 2087.1 802.474 2099.19 808.094 2111.58C811.104 2118.22 812.434 2125.67 815.754 2132.11C826.094 2152.18 836.984 2171.97 847.764 2191.8C849.834 2195.61 859.254 2198.28 863.314 2196.89C866.904 2195.65 870.614 2194.31 874.354 2194.05C883.604 2193.4 893.124 2194.23 900.544 2186.9C901.144 2186.31 902.384 2186.2 903.334 2186.16C919.404 2185.52 932.984 2177.59 947.174 2171.34C957.464 2166.81 967.604 2161.29 978.404 2158.71C997.794 2154.08 1016.07 2146.65 1034.11 2138.74C1053.87 2130.07 1072.88 2119.71 1092.32 2110.32C1100.35 2106.44 1108.81 2103.43 1116.83 2099.52C1132.61 2091.84 1148.06 2083.47 1163.95 2076.02C1181.07 2067.99 1198.48 2060.59 1215.86 2053.13C1221.29 2050.8 1226.91 2048.75 1232.64 2047.34C1236.37 2046.42 1239.66 2045.61 1241.56 2041.94C1243.31 2038.56 1246.32 2037.64 1249.95 2037.78C1260.34 2038.18 1268.13 2031.92 1276.52 2027.21C1279.68 2025.43 1282.6 2022.75 1285.98 2021.91C1297.76 2019.01 1307.59 2012.02 1318.48 2007.3C1321.21 2006.11 1323.98 2005 1326.75 2003.9C1346.19 1996.18 1365.8 1988.85 1385.02 1980.62C1400.76 1973.89 1416.05 1966.1 1433.95 1957.63L1433.93 1957.64ZM1488.81 1936.74C1485.38 1939.88 1481.59 1941.7 1482.95 1946.24C1485.7 1955.41 1488.49 1964.58 1491.7 1973.59C1496.62 1987.4 1492.41 1995.71 1478.43 2000.03C1471 2002.32 1463.82 2005.45 1456.66 2008.14C1457.08 2009.84 1457.1 2010.57 1457.43 2011.1C1458.13 2012.21 1458.86 2013.36 1459.82 2014.23C1468.63 2022.25 1473.25 2032.03 1473.43 2044.1C1473.55 2052.4 1474.93 2060.69 1474.93 2068.98C1474.93 2073.52 1476.28 2076.44 1479.82 2079.02C1492.08 2087.95 1503.79 2097.72 1516.54 2105.87C1525.01 2111.28 1534.32 2112.58 1544.83 2107.75C1566.96 2097.58 1585.78 2083.49 1602.6 2066.08C1611.33 2057.05 1616.8 2046.95 1618.07 2034.57C1619.55 2020.07 1619.38 2005.9 1609.15 1993.93C1601.17 1984.59 1593.9 1974.56 1585.18 1965.98C1577.41 1958.35 1569.23 1949.53 1555.93 1954.65C1554.28 1955.29 1551.02 1954.21 1549.71 1952.8C1545.18 1947.94 1540.16 1947.82 1534.22 1949.29C1529.19 1950.53 1523.92 1951.28 1518.75 1951.35C1514.63 1951.41 1510.49 1950.11 1506.46 1949.43C1500.9 1945.44 1495.18 1941.32 1488.8 1936.74H1488.81Z" fill="white"/>
<path d="M557.964 1235.13C557.094 1234.63 554.534 1232.63 551.634 1231.57C540.144 1227.37 528.474 1223.65 517.034 1219.33C514.064 1218.21 511.704 1215.51 509.054 1213.54C506.414 1211.57 504.034 1208.77 501.064 1207.8C494.754 1205.74 490.454 1201.26 485.784 1197.1C480.584 1192.46 475.194 1188.02 470.174 1183.2C465.634 1178.84 461.384 1174.17 457.184 1169.48C451.214 1162.8 445.284 1156.5 436.834 1152.38C427.174 1147.67 422.124 1137.79 418.014 1128.54C407.324 1104.51 399.114 1079.5 393.864 1053.69C392.364 1046.34 393.324 1038.52 392.894 1030.92C392.524 1024.34 391.834 1017.77 391.234 1011.2C389.604 993.33 389.404 975.72 394.784 958.15C399.144 943.9 401.714 929.1 405.004 914.53C410.454 890.43 420.594 868.96 439.034 851.85C445.414 845.93 448.994 838.09 451.444 829.73C453.494 822.73 455.544 815.7 458.224 808.94C459.044 806.86 461.724 805.12 463.954 804.07C472.344 800.09 481.094 796.81 489.334 792.54C494.284 789.97 499.344 786.76 502.944 782.61C511.414 772.85 521.814 767.34 534.334 765.12C539.534 764.2 544.564 762.14 549.784 761.52C556.304 760.75 562.934 761 569.504 760.67C573.714 760.45 577.904 759.66 582.104 759.67C592.794 759.7 603.794 756.86 613.964 762.62C614.824 763.11 615.714 763.75 616.644 763.85C624.114 764.68 631.574 765.7 639.064 766.09C650.324 766.67 661.644 766.37 672.874 767.24C679.734 767.77 686.484 769.73 693.254 771.16C698.434 772.26 703.554 773.61 708.734 774.74C728.784 779.14 748.694 783.5 768.264 790.41C788.604 797.58 804.254 810.18 819.004 824.46C840.584 845.36 857.994 869.77 874.084 895.01C882.394 908.04 885.614 923.35 888.774 938.2C894.564 965.49 896.994 993.31 898.444 1021.16C899.154 1034.74 899.244 1048.37 899.134 1061.97C899.084 1067.55 898.294 1073.26 896.914 1078.67C892.734 1095.04 890.984 1112.19 883.014 1127.37C878.084 1136.76 872.034 1145.56 866.294 1154.5C863.974 1158.11 860.724 1161.15 858.624 1164.87C849.614 1180.83 834.764 1190.6 820.434 1200.7C809.594 1208.34 798.204 1215.39 786.404 1221.42C773.994 1227.76 760.824 1232.6 747.974 1238.06C723.364 1248.52 697.294 1247.64 671.414 1247.49C662.174 1247.44 652.954 1245.5 643.694 1244.71C629.594 1243.51 615.484 1242.55 600.644 1241.44C601.344 1248.58 605.694 1252.18 610.254 1254.98C621.344 1261.79 627.114 1270.55 626.414 1284.36C625.824 1296.07 623.924 1307.34 621.284 1318.64C620.164 1323.45 620.534 1328.78 618.634 1333.19C615.094 1341.39 611.194 1349.68 605.954 1356.84C599.914 1365.09 592.224 1372.12 585.314 1379.73C583.094 1382.18 580.954 1384.72 578.984 1387.37C576.564 1390.63 574.204 1393.72 569.644 1394.12C568.104 1394.26 566.594 1395.26 565.144 1396.01C551.894 1402.89 538.684 1409.88 525.394 1416.68C518.684 1420.11 512.724 1425.08 504.874 1426.28C503.364 1426.51 501.854 1428.78 500.934 1430.44C497.404 1436.79 494.064 1443.24 490.754 1449.71C483.054 1464.8 475.204 1479.82 467.844 1495.07C464.534 1501.94 462.394 1509.37 455.994 1514.32C448.154 1520.39 442.364 1529.78 430.724 1529.66C429.484 1529.65 428.064 1530.28 427.024 1531.03C420.944 1535.48 415.614 1534.8 410.204 1529.57C408.484 1527.91 405.284 1526.76 402.904 1526.96C393.984 1527.72 387.084 1523.15 379.704 1519.44C372.914 1516.03 366.234 1512.85 360.404 1507.6C357.194 1504.71 351.474 1502.84 347.204 1503.33C342.024 1503.93 339.204 1502.18 335.994 1499.02C328.364 1491.52 319.464 1491.74 310.714 1496.32C304.794 1499.42 298.744 1499.95 292.384 1500.05C289.744 1500.09 287.054 1500.47 284.494 1501.12C268.734 1505.17 252.894 1504.29 237.014 1502.11C235.044 1501.84 232.994 1501.41 231.064 1501.68C216.434 1503.71 203.244 1497.76 189.704 1494.13C179.854 1491.49 169.574 1489.74 160.904 1483.66C159.904 1482.96 158.454 1482.73 157.174 1482.6C138.194 1480.78 123.804 1471.04 111.914 1456.74C100.224 1442.69 88.7038 1428.48 76.3638 1415.02C69.9438 1408.02 61.2538 1403.11 54.8038 1396.13C46.5338 1387.18 38.9538 1377.48 32.0338 1367.44C18.7538 1348.18 15.1038 1325.29 9.25376 1303.27C8.06376 1298.8 6.47377 1294.42 5.53377 1289.91C4.33377 1284.15 3.54377 1278.29 2.68377 1272.47C2.29377 1269.86 2.18377 1267.21 1.89377 1264.59C0.423765 1251.42 0.353765 1238.33 4.13377 1225.48C4.28377 1224.96 5.07376 1224.63 6.12376 1223.73C6.80376 1226.16 7.40377 1228.31 7.99377 1230.46L9.90377 1230.55C12.2738 1219.44 14.8238 1208.36 16.8638 1197.19C17.3238 1194.66 16.0238 1191.8 15.5038 1189.09C15.3838 1188.48 14.8038 1187.51 15.0038 1187.34C23.1238 1180.02 14.5038 1169.29 20.2838 1161.38C21.4738 1159.75 21.1238 1156.94 21.3238 1154.65C21.5338 1152.33 20.6138 1149.22 21.7938 1147.8C27.4838 1140.96 24.6338 1132.7 26.4238 1125.43C29.1238 1114.45 33.5338 1103.37 46.4638 1099.43C48.2238 1098.89 50.2138 1096.39 50.5838 1094.5C52.3238 1085.47 57.6338 1079.17 64.2938 1073.21C75.1738 1063.48 85.2338 1052.83 96.0638 1043.03C108.644 1031.65 121.974 1021.48 137.024 1013.12C149.254 1006.33 161.754 1000.31 174.464 994.72C196.704 984.94 219.714 977.4 243.674 972.87C251.434 971.4 258.924 968.51 266.674 966.88C274.064 965.32 281.294 963.94 288.484 969.31C297.234 975.84 307.114 980.74 313.054 990.63C316.424 996.25 316.564 1001.53 312.754 1006.38C305.574 1015.5 298.274 1024.76 287.144 1029.41C283.324 1031.01 278.644 1032.53 274.824 1031.77C262.224 1029.27 250.424 1032.95 238.444 1035.17C229.654 1036.8 220.714 1038.5 212.384 1041.64C184.654 1052.09 158.294 1064.63 134.554 1083.3C114.734 1098.89 101.114 1119.1 85.6638 1138.06C82.8038 1141.57 80.6238 1146.15 79.6038 1150.57C73.0738 1178.72 66.8538 1206.94 60.7538 1235.18C58.5838 1245.19 55.9038 1254.99 55.2038 1265.46C53.8838 1285 55.2738 1304.12 60.3138 1322.86C63.5138 1334.75 69.4738 1345.03 78.8038 1354.1C97.0938 1371.88 113.894 1391.19 131.374 1409.82C136.764 1415.57 141.444 1421.92 150.904 1422.04C155.384 1422.1 158.734 1426.9 163.844 1428.35C180.314 1433.01 196.314 1439.29 212.534 1444.84C214.374 1445.47 216.454 1445.7 218.414 1445.67C234.684 1445.44 250.964 1445.3 267.224 1444.72C278.404 1444.32 289.564 1442.58 300.724 1442.64C320.494 1442.73 340.264 1443.65 360.024 1444.47C362.514 1444.57 365.004 1446.05 367.394 1447.1C378.514 1452.02 389.594 1457.02 400.704 1461.99C414.304 1451.17 425.054 1437.27 434.654 1422.34C441.294 1412.02 451.364 1407.87 463.254 1407.39C468.144 1407.19 473.024 1406.94 478.254 1406.7C483.314 1400.91 475.494 1398.59 474.174 1393.66C478.544 1382.36 485.704 1372.83 497.064 1366.69C507.264 1361.17 517.974 1356.35 527.394 1349.7C537.624 1342.48 548.974 1335.04 555.574 1324.91C563.874 1312.17 570.244 1297.06 563.344 1280.6C560.124 1272.92 557.274 1265.09 559.724 1256.44C560.144 1254.96 559.504 1253.17 559.374 1251.53C558.974 1246.78 558.574 1242.03 558.004 1235.13H557.964ZM692.214 1193.92C692.294 1194.32 692.374 1194.73 692.444 1195.13C699.554 1193.98 706.644 1192.12 713.784 1191.84C726.524 1191.35 737.254 1185.14 748.344 1180.36C760.124 1175.29 771.144 1168.4 782.354 1162.06C794.794 1155.02 806.064 1146.86 814.874 1135.02C828.814 1116.29 838.064 1095.54 844.984 1073.52C845.484 1071.94 845.644 1070.27 846.024 1068.65C847.504 1062.22 849.134 1055.83 850.464 1049.37C851.384 1044.88 852.844 1040.22 852.454 1035.78C850.294 1011.03 847.664 986.31 845.164 961.59C844.834 958.29 844.994 954.76 843.824 951.76C838.784 938.77 832.994 926.06 828.124 913.01C822.334 897.5 808.234 887.31 802.444 871.85C801.934 870.48 800.004 869.68 798.814 868.52C795.254 865.05 791.794 861.47 788.184 858.04C782.204 852.37 776.904 845.44 769.924 841.51C760.784 836.36 750.504 832.88 740.344 830C722.854 825.04 705.144 820.85 687.414 816.8C674.154 813.77 660.764 810.31 647.414 816.95C638.504 821.38 629.514 825.67 620.424 829.71C614.434 832.37 608.104 834.25 602.114 836.92C597.354 839.04 591.734 840.85 588.574 844.56C584.114 849.81 580.824 854.79 572.674 853.7C569.844 853.32 566.294 855.58 563.614 857.41C556.214 862.48 548.924 867.74 541.904 873.32C527.144 885.05 516.644 900.45 505.644 915.5C496.004 928.69 490.764 943.74 486.434 959.03C482.484 973 476.754 986.6 476.104 1001.44C475.894 1006.38 474.294 1011.24 473.964 1016.18C473.524 1022.77 472.694 1029.59 473.854 1035.97C476.034 1047.97 479.534 1059.73 482.464 1071.6C487.134 1090.56 491.774 1109.53 496.444 1128.49C497.324 1132.04 498.384 1135.55 499.184 1139.12C502.804 1155.26 510.494 1168.11 526.944 1174.09C529.104 1174.88 531.264 1175.96 533.094 1177.34C545.654 1186.85 560.854 1189.6 575.404 1193.95C578.534 1194.89 581.924 1195.25 585.214 1195.35C595.704 1195.66 606.204 1195.76 616.694 1195.88C627.924 1196.01 639.164 1196.42 650.384 1196.09C664.334 1195.68 678.264 1194.65 692.194 1193.88L692.214 1193.92Z" fill="white"/>
<path d="M391.674 2242.46C389.394 2235.73 384.254 2237.12 379.284 2238.18C371.414 2239.85 365.124 2237.35 361.424 2230.96C360.954 2230.15 360.574 2228.5 360.234 2228.52C351.134 2229.08 353.304 2220.24 349.974 2216.08C343.214 2207.66 341.114 2195.6 330.124 2190.44C329.464 2190.87 328.574 2191.14 328.454 2191.59C322.944 2213.36 317.484 2235.14 312.084 2256.94C311.614 2258.85 311.184 2260.89 311.344 2262.83C312.204 2272.97 307.924 2279.4 296.974 2282.07C293.944 2279.4 290.424 2276.16 286.754 2273.11C282.634 2269.68 276.504 2269.82 273.034 2264.6C271.484 2262.27 267.124 2261.71 264.284 2265.12C263.044 2266.61 261.464 2267.81 259.684 2269.46C253.844 2261.92 251.344 2254.73 255.294 2245.47C257.854 2239.47 258.304 2232.58 259.674 2226.08C259.944 2224.78 259.674 2223.22 260.304 2222.17C266.744 2211.26 265.864 2198.52 269.064 2186.8C273.244 2171.51 276.014 2155.83 279.344 2140.31C280.954 2132.83 289.044 2128.9 295.764 2132.38C296.934 2132.99 298.134 2133.54 299.344 2134.06C299.614 2134.17 299.994 2134.01 300.824 2133.92V2125.68C305.944 2123.11 310.594 2120.78 315.854 2118.15C328.574 2124.69 341.754 2131.49 354.984 2138.19C355.734 2138.57 356.914 2138.12 358.264 2138.03C360.954 2133.79 359.734 2129.36 359.214 2124.78C358.664 2119.98 358.644 2114.99 359.284 2110.2C361.684 2092.13 365.664 2074.18 366.764 2056.05C368.044 2034.92 375.994 2016.18 383.714 1997.17C384.384 1995.52 386.304 1994.23 387.884 1993.13C392.454 1989.95 397.144 1986.96 402.484 1983.43C402.324 1989.95 407.114 1992.84 412.434 1995.31C417.774 1997.79 423.134 1998.98 428.574 1995.8C432.514 1993.49 434.784 1995.71 436.794 1998.65C442.694 2007.28 450.304 2013.61 459.794 2018.3C476.824 2026.72 489.764 2039.99 500.654 2055.37C501.614 2056.73 502.404 2058.24 503.534 2059.45C516.854 2073.75 528.774 2089.45 544.894 2100.97C545.974 2101.74 547.484 2102.29 548.034 2103.34C554.994 2116.56 567.944 2124.45 576.864 2135.95C580.524 2140.68 586.354 2143.73 590.034 2148.45C593.864 2153.36 595.814 2159.69 599.414 2164.82C608.674 2178.01 614.384 2192.94 621.054 2207.4C622.234 2209.96 622.154 2213.1 622.474 2214.9C627.254 2218.32 631.864 2220.79 635.424 2224.32C643.194 2232.04 640.044 2242.05 638.844 2250.85C637.654 2259.59 633.724 2267.96 630.934 2276.48C629.644 2280.4 627.064 2282.02 622.724 2282.24C615.514 2282.61 608.364 2283.92 601.164 2284.66C599.594 2284.82 597.824 2284.58 596.354 2284C590.274 2281.61 584.274 2279.01 579.374 2276.96C569.004 2282.78 559.684 2288.17 550.194 2293.24C547.584 2294.63 544.784 2294.94 544.104 2298.83C543.814 2300.5 541.034 2302.22 539.034 2303C533.144 2305.27 527.204 2307.58 521.074 2308.98C489.714 2316.13 458.414 2323.57 428.044 2334.21C413.334 2339.36 398.974 2345.61 384.754 2352.02C359.084 2363.6 333.804 2376.05 307.394 2385.99C301.944 2388.04 297.414 2393.81 292.054 2394.43C286.394 2395.09 280.964 2395.6 275.964 2398.22C265.774 2403.56 253.844 2404.95 244.644 2412.74C242.174 2414.83 237.354 2413.93 234.424 2415.72C229.214 2418.9 223.354 2420.88 219.104 2426.08C216.024 2429.84 211.064 2432.03 205.204 2432.46C200.054 2432.83 195.234 2436.58 190.084 2438.28C179.764 2441.68 172.034 2436.66 162.924 2431.98C153.814 2427.3 153.154 2418.73 147.884 2412.62C146.974 2411.57 147.434 2409.4 147.114 2407.78C145.534 2399.71 144.254 2391.57 142.204 2383.62C138.424 2368.94 133.034 2354.58 130.394 2339.72C126.134 2315.79 119.564 2292.62 111.074 2269.96C106.564 2257.92 102.044 2245.8 96.2737 2234.35C88.9937 2219.9 79.3837 2206.57 72.6937 2191.88C64.5337 2173.97 55.4937 2156.2 53.4437 2135.98C52.7837 2129.51 49.9337 2123.22 47.7437 2116.97C39.9337 2094.6 33.9837 2071.89 33.9137 2047.96C33.8837 2038.78 32.6237 2037.3 24.0537 2034.72C16.0437 2032.3 9.91372 2022.66 11.4137 2012.57C13.9537 1995.54 17.1037 1978.58 20.6637 1961.73C21.3937 1958.26 24.9837 1955.35 27.3937 1952.29C28.9637 1950.29 31.1837 1948.72 32.3937 1946.55C35.2837 1941.38 37.9637 1936.07 40.3137 1930.64C42.6037 1925.36 44.3837 1919.85 47.1937 1912.28C50.8637 1909.36 56.2837 1904.4 62.3437 1900.41C68.9537 1896.05 73.5637 1891.24 70.8037 1882.58C81.2137 1876.52 91.3737 1871 101.104 1864.81C107.654 1860.64 113.414 1855.24 119.904 1850.98C122.364 1849.36 126.084 1848.37 128.924 1848.85C137.254 1850.27 144.614 1848.5 151.994 1844.73C156.364 1842.5 161.254 1840.66 166.074 1840.09C170.544 1839.56 172.434 1837.15 173.524 1834.99C180.914 1834.18 187.564 1833.8 194.084 1832.66C201.234 1831.41 208.224 1829.24 215.364 1827.86C227.864 1825.44 239.024 1820.64 250.174 1814.05C261.894 1807.12 275.864 1804.04 288.734 1798.99C300.424 1794.4 312.334 1790.16 323.454 1784.41C338.114 1776.83 353.214 1772.38 369.744 1772.2C376.634 1772.13 383.514 1770.82 390.384 1769.99C410.464 1767.55 430.494 1764.53 450.634 1762.94C456.404 1762.48 462.514 1766.05 468.444 1767.87C469.974 1768.34 471.524 1770.02 472.814 1769.78C484.534 1767.64 489.014 1776.22 494.214 1783.83C495.884 1786.28 497.444 1788.89 499.494 1790.99C502.904 1794.48 505.394 1798.13 504.784 1803.31C504.634 1804.57 504.744 1806.29 505.474 1807.16C513.474 1816.64 513.134 1829.33 518.104 1839.83C526.634 1857.86 530.954 1877.23 537.534 1895.86C539.504 1901.44 542.434 1906.69 544.974 1912.07C549.764 1922.22 554.624 1932.34 559.384 1942.51C560.064 1943.96 560.474 1945.55 560.864 1947.12C561.434 1949.37 561.424 1951.88 562.424 1953.9C567.704 1964.51 569.984 1975.47 569.734 1987.48C569.524 1997.75 564.174 2008.6 554.394 2012.72C546.044 2016.24 538.184 2014.8 532.094 2007.58C521.364 1994.86 511.804 1981.18 504.734 1966.11C499.014 1953.92 494.514 1941.15 489.694 1928.55C484.364 1914.59 479.054 1900.62 474.194 1886.5C470.214 1874.93 466.934 1863.12 463.314 1851.43C459.384 1838.74 451.444 1828.59 442.394 1819.28C438.944 1815.73 434.984 1814.34 429.064 1815.32C414.364 1817.76 399.364 1818.35 384.504 1819.9C380.284 1820.34 376.134 1821.44 371.974 1822.35C370.064 1822.76 368.104 1824.13 366.344 1823.87C356.184 1822.32 347.444 1826.71 338.514 1830.2C320.644 1837.17 302.704 1843.99 285.064 1851.49C275.654 1855.49 266.934 1861.12 257.634 1865.42C247.744 1870 237.504 1873.81 227.474 1878.07C209.434 1885.74 189.134 1885.1 171.294 1893.99C161.164 1899.04 149.954 1901.89 139.244 1905.78C138.014 1906.23 136.694 1906.8 135.794 1907.7C128.994 1914.52 119.984 1918.02 112.344 1923.54C103.924 1929.63 102.304 1934.8 104.944 1944.89C109.454 1962.13 114.464 1979.27 118.264 1996.67C124.004 2022.94 132.984 2048.16 141.754 2073.46C145.094 2083.09 148.134 2092.83 151.634 2102.39C153.904 2108.59 157.124 2114.45 159.284 2120.69C161.994 2128.51 163.974 2136.59 166.414 2144.51C168.844 2152.38 171.404 2160.2 174.004 2168.01C179.114 2183.38 184.184 2198.76 189.514 2214.05C191.474 2219.67 193.584 2225.34 196.534 2230.47C200.724 2237.76 202.924 2245.59 205.134 2253.57C209.154 2268.08 213.394 2282.53 218.054 2296.85C219.894 2302.5 222.904 2307.8 225.714 2313.07C227.854 2317.07 231.284 2317.05 235.164 2315.37C245.824 2310.77 256.864 2306.95 267.184 2301.7C283.644 2293.33 300.244 2285.51 318.084 2280.57C319.044 2280.3 320.014 2279.96 320.864 2279.47C336.944 2270.26 355.014 2265.78 371.714 2257.9C382.854 2252.64 395.524 2250.64 407.504 2247.18C414.104 2245.27 420.664 2243.23 427.314 2241.51C430.834 2240.6 434.534 2239.65 438.094 2239.81C443.994 2240.07 449.024 2238.28 454.244 2235.81C458.274 2233.9 463.134 2233.84 467.364 2232.28C482.544 2226.69 497.564 2220.65 512.754 2215.11C518.564 2212.99 524.604 2211.11 530.694 2210.24C537.494 2209.27 543.034 2204.43 550.644 2205.33C554.814 2205.83 558.084 2200.25 563.374 2199.44C567.324 2198.84 567.324 2190.86 563.974 2186.38C552.024 2170.45 540.244 2154.4 528.084 2138.63C521.224 2129.73 513.954 2121.26 505.014 2114.1C491.064 2102.93 477.854 2090.85 464.424 2079.04C455.784 2071.44 447.324 2063.64 438.804 2055.91C437.474 2054.7 436.124 2053.47 435.024 2052.06C432.394 2048.66 427.934 2048.65 425.774 2052.39C424.634 2054.37 423.884 2056.68 423.424 2058.93C421.304 2069.35 418.734 2079.73 417.494 2090.26C416.024 2102.76 415.594 2115.39 414.994 2127.98C414.384 2140.91 414.014 2153.86 413.754 2166.8C413.594 2174.77 413.934 2182.75 413.914 2190.73C413.874 2202.96 414.244 2215.23 413.434 2227.42C412.874 2235.84 407.374 2239.8 398.694 2240.45C396.454 2240.62 394.284 2241.69 391.654 2242.48L391.674 2242.46ZM141.864 2259.43C135.804 2257.33 132.034 2258.43 130.844 2263.51C130.404 2265.39 132.404 2267.84 133.284 2270.03C135.224 2269.2 137.794 2268.86 138.934 2267.41C140.404 2265.53 140.724 2262.76 141.864 2259.44V2259.43Z" fill="white"/>
<path d="M1050.34 460.48C1044.21 459.29 1038.13 457.71 1031.94 457.02C1027.15 456.49 1022.2 456.75 1017.38 457.23C1006.83 458.28 996.284 459.51 985.784 461.04C978.634 462.08 971.624 464.09 964.474 465.09C953.624 466.62 942.744 468.15 931.934 464.28C924.774 461.71 918.084 458.79 911.644 454.36C901.034 447.05 889.474 441.01 877.914 435.23C865.524 429.03 858.034 418.93 852.984 406.66C847.034 392.22 841.214 377.72 835.824 363.06C832.644 354.4 831.514 344.84 827.494 336.65C821.074 323.56 818.294 309.72 815.734 295.67C813.934 285.79 812.734 275.95 814.404 265.88C814.924 262.72 814.324 259.29 813.814 256.05C811.514 241.55 810.054 227.09 811.824 212.35C812.844 203.81 812.204 195.08 812.954 186.49C813.854 176.27 815.164 166.07 816.804 155.94C818.934 142.85 821.194 129.75 824.104 116.81C826.954 104.15 827.414 91.2497 829.264 78.5397C830.754 68.2797 834.524 57.5697 840.114 48.8897C846.264 39.3397 851.094 29.4297 855.604 19.1797C860.524 7.98969 867.804 3.12969 879.774 4.51969C897.134 6.53969 914.274 4.95969 931.194 1.79969C942.674 -0.350305 953.634 2.36969 964.834 2.44969C973.054 2.50969 981.274 1.74969 989.484 1.25969C995.374 0.909694 1001.32 -0.380308 1007.13 0.109692C1016.69 0.919692 1026.22 2.56969 1035.66 4.37969C1042.88 5.75969 1049.17 8.70969 1054.75 14.2697C1062.7 22.1897 1072.29 28.4297 1080.52 36.0897C1086.55 41.6997 1091.06 48.4397 1093.9 56.6897C1095.92 62.5497 1100.73 67.8297 1105.29 72.3597C1117.73 84.6997 1126.84 99.7097 1133.39 115.21C1138.99 128.48 1141.39 143.72 1140.96 158.92C1140.6 171.47 1141.66 184.05 1142.08 196.62C1142.14 198.28 1142.26 199.96 1142.12 201.61C1139.33 234.84 1143.3 268.01 1143.01 301.23C1142.83 322.08 1140.12 342.23 1132.08 361.65C1129.22 368.56 1128.55 376.35 1126.09 383.47C1123.61 390.64 1120.82 397.86 1116.99 404.36C1109.08 417.77 1102.38 432.05 1090.7 442.95C1079.35 453.54 1066.69 460.65 1050.34 460.43V460.48ZM967.024 259.54C966.694 259.58 966.354 259.62 966.024 259.67C966.904 266.21 967.704 272.77 968.684 279.3C970.114 288.8 971.984 298.24 973.114 307.77C975.094 324.58 976.674 341.47 984.414 356.91C989.444 366.93 995.474 376.5 999.774 386.81C1004.71 398.64 1014.75 405.12 1024.06 412.31C1028.7 415.9 1035.03 415.48 1040.2 412.42C1046.48 408.69 1052.08 404.2 1056.2 397.75C1068.22 378.94 1078.85 359.74 1085.48 338.07C1091.5 318.41 1094.52 298.41 1094.69 278.32C1094.9 254.79 1093.77 231.25 1095.69 207.73C1096.39 199.12 1098.4 190.17 1096.83 181.93C1094.38 169.06 1094.82 155.92 1091.44 143.09C1089.45 135.54 1087.22 128.64 1082.9 122.23C1078.07 115.07 1073.9 107.44 1068.77 100.5C1062.89 92.5397 1056.57 84.8497 1049.86 77.5797C1046.41 73.8397 1041.1 72.1597 1036.04 73.3497C1024.76 76.0097 1013.59 74.0897 1002.36 73.5297C994.164 73.1197 992.304 74.0997 990.534 81.7897C988.524 90.4797 988.174 99.6297 985.474 108.07C980.114 124.86 976.544 141.99 973.414 159.27C970.814 173.65 967.754 187.94 965.264 202.33C962.474 218.48 963.674 234.66 965.904 250.78C966.304 253.69 966.654 256.61 967.024 259.53V259.54ZM909.474 275.42C905.294 275.42 902.924 275.05 900.704 275.48C889.664 277.66 878.804 280.56 867.314 280.09C861.304 279.85 858.734 282.69 859.224 288.93C859.844 296.8 861.084 304.78 863.374 312.31C866.914 323.94 871.564 335.23 874.934 344.43C891.674 352.82 905.924 350.47 920.654 343.93C919.604 336.74 918.754 330.21 917.674 323.72C916.884 318.92 915.674 314.19 914.874 309.39C913.034 298.33 911.334 287.25 909.464 275.43L909.474 275.42ZM864.424 258.03C869.194 257.8 871.824 257.87 874.384 257.5C881.934 256.41 889.444 255.11 896.984 253.95C904.784 252.76 905.414 252.8 905.554 244.67C905.774 231.75 905.154 218.82 904.694 205.9C904.544 201.56 901.764 199.3 897.524 199.14C893.204 198.99 888.874 199.2 884.544 199.12C878.294 199.01 874.554 202.05 873.014 207.99C871.024 215.66 868.544 223.26 867.204 231.05C865.764 239.41 865.404 247.96 864.414 258.03H864.424ZM946.684 408.92C945.884 403.64 945.984 399.62 944.604 396.2C941.754 389.15 938.234 382.36 934.764 375.58C931.384 368.98 929.294 368.43 921.954 369.89C913.644 371.55 905.504 374.27 896.664 372.16C891.104 370.83 888.324 373.87 888.794 379.16C889.644 388.88 899.664 400.4 909.314 402.26C920.954 404.51 932.654 406.43 946.694 408.91L946.684 408.92ZM882.864 149.02C884.394 158.42 876.754 166.21 881.344 176.23C888.454 176.23 895.624 176.57 902.714 175.98C904.464 175.83 906.994 172.84 907.374 170.82C908.774 163.43 909.424 155.9 910.544 146.88C901.324 147.59 892.724 148.26 882.864 149.02ZM891.514 120.88C898.034 120.31 903.574 119.96 909.084 119.29C913.614 118.74 917.284 114.3 918.384 109.02C919.484 103.72 915.824 101.78 912.104 100.49C908.124 99.1197 903.844 98.1297 899.674 98.0197C897.564 97.9697 894.234 99.7297 893.464 101.53C890.914 107.52 888.604 113.84 891.514 120.87V120.88ZM929.444 75.3597C930.834 69.3697 932.134 63.7697 933.384 58.3297C924.504 55.0597 911.554 56.6197 907.064 61.6697C905.074 63.8997 903.214 67.9697 903.954 70.3897C904.634 72.6097 908.754 74.7597 911.594 75.1397C917.094 75.8797 922.764 75.3597 929.444 75.3597Z" fill="white"/>
<path d="M1534.55 2326.42C1523.1 2325.23 1511.46 2323.84 1499.79 2322.86C1480.18 2321.22 1460.58 2319.85 1440.97 2318.35C1438.32 2318.15 1435.63 2318.3 1433.04 2317.56C1427.21 2315.9 1424.31 2306.74 1427.36 2299.22C1428.08 2297.43 1430.31 2296.09 1431.83 2296.12C1442.19 2296.29 1452.56 2296.73 1462.91 2297.38C1473.06 2298.02 1483.2 2298.94 1493.34 2299.9C1505.88 2301.09 1518.42 2302.5 1530.96 2303.7C1544.19 2304.97 1557.42 2306.09 1570.65 2307.29C1585.84 2308.66 1601.02 2310.09 1616.21 2311.38C1621.51 2311.83 1626.82 2311.69 1632.1 2312.23C1647.73 2313.81 1663.34 2315.77 1678.97 2317.24C1687.12 2318.01 1695.31 2317.98 1703.48 2318.47C1710.76 2318.91 1718.02 2319.79 1725.31 2320.09C1747.13 2320.99 1768.96 2321.6 1790.78 2322.53C1801.27 2322.97 1811.74 2324.09 1822.23 2324.41C1825.47 2324.51 1828.74 2322.16 1831.98 2322.27C1863.59 2323.36 1895.14 2321.46 1926.63 2317.52C1941.06 2315.71 1955.65 2315.17 1969.62 2308.4C1971.7 2307.39 1973.81 2306.41 1975.81 2305.11C1980.8 2301.86 1985.9 2304.65 1987.31 2312.46C1988.02 2316.41 1987.91 2321.3 1986.97 2325.08C1986.45 2327.16 1983.49 2328.43 1981.51 2328.97C1977.64 2330.02 1973.67 2330.16 1969.76 2330.91C1958.23 2333.13 1946.71 2335.86 1935.14 2337.56C1930.34 2338.26 1925.41 2336.87 1920.53 2336.37C1920.13 2336.33 1919.64 2335.42 1919.38 2335.59C1906.07 2344.19 1891.66 2339.43 1877.97 2343.34C1877.54 2343.46 1877.05 2343.63 1876.66 2343.43C1867.79 2338.88 1859.07 2345.09 1850.26 2344.22C1848.12 2344.01 1845.98 2343.44 1843.9 2342.69C1836.75 2340.11 1829.79 2339.75 1822.73 2343.97C1820.58 2345.26 1817.75 2344.22 1815.25 2343.86C1814.03 2343.69 1812.73 2341.76 1811.7 2342.12C1796.47 2347.54 1781.15 2343.64 1765.87 2343.44C1758.47 2343.34 1751.06 2343.86 1743.67 2343.59C1734.85 2343.27 1726.03 2342.5 1717.22 2341.75C1693.86 2339.76 1670.5 2337.77 1647.15 2335.61C1634.15 2334.4 1621.18 2332.69 1608.17 2331.49C1599.15 2330.66 1590.1 2330.51 1581.08 2329.74C1570.27 2328.81 1559.49 2327.41 1548.7 2326.5C1544.08 2326.11 1539.42 2326.43 1534.56 2326.43L1534.55 2326.42Z" fill="white"/>
<path d="M2042.86 2274.33C2012.08 2274.33 1981.31 2274.7 1950.55 2274.18C1934.78 2273.91 1919.03 2271.75 1903.27 2270.95C1881.79 2269.86 1860.3 2268.79 1838.82 2268.57C1820.59 2268.39 1802.37 2269.68 1784.14 2269.86C1764.25 2270.05 1744.34 2269.7 1724.44 2269.57C1713.26 2269.5 1702.06 2269.6 1690.89 2269.29C1675.91 2268.87 1660.95 2268.06 1645.98 2267.55C1642.18 2267.42 1638.37 2267.91 1634.56 2267.91C1621.31 2267.91 1608.13 2266.5 1594.98 2264.42C1593.14 2264.13 1591.2 2264.77 1589.31 2264.83C1584.13 2265 1578.95 2265.49 1573.79 2265.15C1556.94 2264.05 1540.09 2262.7 1523.25 2261.32C1495.28 2259.02 1467.32 2256.66 1439.36 2254.22C1437.24 2254.03 1435.06 2253.36 1433.09 2252.36C1427.03 2249.29 1424.65 2242.73 1427.06 2235.43C1428.1 2232.27 1429.91 2229.65 1433.35 2231.09C1448.68 2237.48 1464.62 2233.89 1480.26 2235.35C1495.19 2236.74 1510.11 2238.21 1525.06 2239.33C1535.34 2240.11 1545.66 2240.35 1555.96 2240.84C1557.03 2240.89 1558.11 2240.91 1559.17 2241.05C1569.99 2242.46 1580.78 2244.46 1591.63 2245.18C1604.66 2246.04 1617.74 2245.63 1630.8 2246.1C1653.94 2246.94 1677.08 2248.5 1700.24 2248.86C1722.53 2249.21 1744.84 2248.3 1767.15 2248.15C1785.4 2248.03 1803.66 2248 1821.91 2248.34C1843.99 2248.76 1866.06 2249.41 1888.13 2250.34C1904.73 2251.04 1921.3 2252.6 1937.91 2253.25C1951.53 2253.78 1965.17 2253.86 1978.79 2253.53C2000.85 2252.98 2022.9 2252.02 2044.95 2251C2048.11 2250.85 2051.25 2249.56 2054.36 2248.62C2065.43 2245.27 2069.8 2251.88 2070.59 2260.12C2071.38 2268.48 2067.89 2273.3 2060.88 2273.48C2054.88 2273.64 2048.88 2273.51 2042.88 2273.51V2274.33H2042.86Z" fill="white"/>
<path d="M1629.18 1237.63C1623.73 1235.49 1618.42 1234.29 1614.13 1231.51C1607.61 1227.27 1600.91 1224.32 1593.28 1222.67C1572.49 1218.18 1551.62 1214.71 1530.34 1213.41C1519.58 1212.75 1508.58 1209.93 1502.49 1200.31C1496.94 1191.54 1492.09 1182.13 1492.59 1170.65C1493.01 1160.94 1496.05 1152.8 1503.22 1147.01C1514.1 1138.23 1526.22 1134.84 1540.18 1140.85C1548.3 1144.35 1557.21 1146.02 1565.72 1148.62C1568.57 1149.49 1571.24 1150.98 1574.11 1151.7C1580.13 1153.21 1586.22 1154.47 1592.31 1155.66C1594.24 1156.04 1596.77 1155.13 1598.19 1156.07C1607.2 1162.04 1617.88 1163.17 1627.73 1166.66C1634.57 1169.08 1641.08 1171.8 1646.84 1176.49C1657.58 1185.23 1661.69 1196.9 1661.44 1209.97C1661.27 1218.72 1655.84 1225.95 1648.68 1230.4C1642.97 1233.95 1635.86 1235.25 1629.17 1237.63H1629.18Z" fill="white"/>
<path d="M1658.08 2417.98C1650.32 2416.72 1643.56 2414.9 1636.76 2414.64C1607.18 2413.49 1578.02 2407.41 1548.45 2406.29C1539.5 2405.95 1530.53 2405.48 1521.63 2404.44C1513.62 2403.51 1505.73 2401.37 1497.72 2400.39C1479.75 2398.18 1461.71 2396.54 1443.75 2394.27C1439.53 2393.74 1435.25 2392.16 1431.43 2390.14C1426.83 2387.71 1424.77 2377.19 1427.09 2371.17C1428.39 2367.77 1433.78 2365.41 1438.62 2367.36C1449.89 2371.9 1461.82 2371.67 1473.42 2373.15C1505.04 2377.17 1536.78 2380.04 1568.45 2383.59C1586.43 2385.6 1604.34 2388.27 1622.33 2390.23C1633.2 2391.41 1644.17 2391.71 1655.07 2392.57C1665.05 2393.35 1669.6 2398.05 1670.12 2407.71C1670.49 2414.89 1669.16 2416.74 1662.71 2417.69C1660.85 2417.96 1658.96 2417.93 1658.08 2417.98Z" fill="white"/>
<path d="M199.104 1994.52C196.474 1982.61 203.204 1973.86 214.004 1967.48C217.524 1965.4 221.714 1964.49 225.454 1962.74C229.594 1960.79 233.404 1958.04 237.654 1956.42C248.414 1952.34 256.074 1958.98 262.794 1965.49C268.684 1971.19 273.264 1978.33 278.054 1985.09C285.964 1996.25 283.804 2007.96 277.994 2018.85C274.794 2024.85 269.964 2030.46 264.654 2034.74C256.074 2041.66 246.234 2039.94 236.694 2035.98C235.234 2035.37 233.394 2034.07 232.274 2034.5C225.344 2037.17 221.094 2032.54 216.344 2029.16C214.714 2028.01 213.304 2026.34 211.504 2025.69C201.184 2021.96 199.144 2013.64 199.114 2004.09C199.114 2001.43 199.114 1998.76 199.114 1994.51L199.104 1994.52Z" fill="white"/>
<path d="M225.194 1280.12C223.014 1280.66 220.854 1281.24 218.664 1281.74C213.324 1282.96 208.904 1281.74 203.794 1279.09C192.634 1273.31 191.194 1263.11 189.294 1252.78C188.874 1250.5 189.084 1248.11 188.704 1245.83C186.674 1233.8 193.634 1224.96 205.934 1224.02C207.224 1223.92 209.084 1224.12 209.704 1223.38C215.414 1216.51 221.644 1221.12 226.934 1223.24C232.734 1225.57 238.314 1228.41 241.764 1235.11C245.644 1242.65 245.614 1250.44 246.764 1258.22C247.034 1260.02 246.374 1262.41 245.274 1263.87C241.284 1269.12 237.154 1274.3 232.584 1279.03C231.034 1280.64 228.034 1280.85 225.694 1281.7C225.524 1281.18 225.354 1280.66 225.184 1280.13L225.194 1280.12Z" fill="white"/>
<path d="M303.474 1208.29C300.134 1193.08 318.194 1180.68 333.244 1183.47C336.314 1184.04 339.434 1185.76 341.904 1187.74C346.034 1191.05 349.304 1195.5 353.574 1198.58C360.954 1203.9 360.754 1211.23 356.304 1219.04C353.464 1224.01 350.234 1229.54 343.184 1231.44C338.484 1232.71 334.894 1237.1 329.914 1239.23C325.084 1241.3 321.094 1240.8 317.934 1238.54C310.964 1233.55 303.924 1228.1 304.064 1218.02C304.104 1215.04 303.714 1212.06 303.464 1208.3L303.474 1208.29Z" fill="white"/>
<path d="M406.364 1161.11C414.254 1160.94 422.384 1168.03 424.914 1175.83C426.134 1179.59 427.244 1183.39 428.264 1187.21C429.684 1192.54 427.724 1196.05 422.324 1196.24C416.494 1196.45 411.544 1197.04 407.304 1201.98C404.674 1205.04 397.144 1202.44 394.874 1197.44C391.764 1190.58 389.304 1183.33 387.474 1176.02C386.224 1171.01 389.744 1166.27 394.764 1164.57C399.124 1163.09 403.584 1161.92 406.354 1161.1L406.364 1161.11Z" fill="white"/>
<path d="M1422.46 899.26C1399.58 898.54 1376.71 897.31 1353.83 897.28C1341.28 897.26 1328.57 898.4 1316.2 900.55C1297.88 903.73 1281.9 899.65 1265.75 890.73C1246.71 880.22 1230.17 866.68 1213.11 853.57C1206.73 848.67 1200.51 844.09 1195.91 837.45C1193.54 834.03 1191.73 830.64 1193.4 826.36C1195.35 821.36 1193.89 817.71 1189.87 814.05C1182.23 807.1 1176.31 799.38 1174.57 788.22C1173.35 780.36 1168.83 773 1167.47 764.72C1164.57 747.09 1161.04 729.56 1157.66 712.01C1155.9 702.89 1153.33 693.9 1152.17 684.72C1151.01 675.54 1151.7 666.12 1150.59 656.93C1148.88 642.74 1151.52 629.22 1155.27 615.74C1155.79 613.86 1156.38 611.81 1156.16 609.93C1154.07 592 1160.3 575.91 1167.81 560.4C1171.06 553.69 1176.4 547.82 1181.5 542.22C1189.57 533.37 1197.92 524.73 1206.78 516.68C1211.33 512.54 1216.83 508.6 1222.6 506.84C1233.74 503.44 1242.6 496.55 1252.24 490.69C1267.55 481.38 1283.16 472.56 1298.78 463.78C1306.28 459.56 1314.19 456.06 1321.76 451.95C1329.68 447.64 1338.33 447.57 1346.93 446.96C1357.5 446.21 1368.06 445.33 1378.63 444.56C1385.92 444.03 1393.21 443.43 1400.51 443.17C1418.41 442.52 1435.22 447.84 1452.08 452.88C1455.89 454.02 1459.81 454.77 1463.66 455.79C1466.22 456.47 1469.22 456.67 1471.18 458.17C1488.19 471.26 1508.35 480.26 1522.54 496.94C1528.51 503.97 1534.01 511.56 1538.65 519.53C1548.14 535.83 1556.91 552.55 1565.94 569.11C1566.89 570.85 1568.34 572.66 1568.41 574.48C1569.35 597.03 1580.01 617.04 1584.85 638.55C1586.66 646.61 1588 654.8 1589.03 662.99C1590.36 673.54 1591.15 684.16 1592.18 694.75C1592.34 696.4 1592.81 698.07 1592.67 699.7C1591.53 713.23 1590.15 726.73 1589.13 740.27C1588.73 745.56 1586.31 749.18 1581.57 750.99C1574.49 753.69 1572.92 758.68 1573.08 765.86C1573.21 771.66 1571.12 777.51 1569.96 783.33C1566.6 800.14 1558.5 815.1 1551.39 830.42C1546.35 841.28 1540.82 852.01 1531.25 859.75C1528.79 861.74 1525.61 862.92 1522.63 864.15C1517.77 866.15 1512.56 867.39 1507.94 869.82C1500.03 873.98 1492.58 878.99 1484.71 883.24C1481.26 885.11 1477.26 887.06 1473.51 887.06C1464.83 887.06 1457.17 890.22 1450.17 894.31C1441.33 899.47 1432.31 901.12 1422.45 899.24L1422.46 899.26ZM1382.97 789.54C1383.51 793.5 1382.93 797.53 1378.84 798.75C1371.25 801.01 1363.44 802.54 1355.65 804.02C1353.89 804.35 1351.75 803.5 1349.96 802.75C1341.03 798.99 1330.31 802.59 1325.62 810.83C1323.84 813.97 1321.92 817.19 1319.39 819.7C1316.55 822.51 1315.94 825.09 1317.76 828.52C1323.04 838.47 1327.51 849.16 1340.69 851.19C1342.59 851.48 1344.29 852.91 1346.16 853.58C1358.11 857.85 1369.77 861.98 1382.77 855.83C1388.18 853.27 1395.14 853.9 1401.42 853.29C1405.9 852.86 1409.63 854.27 1413.16 857.47C1416.28 860.31 1420.22 862.58 1424.19 864.09C1433.05 867.46 1446.43 861.21 1446.25 853.15C1446.09 845.99 1449.86 842.19 1453.79 837.74C1456.2 835.01 1458.36 832.06 1460.53 829.13C1466.03 821.69 1471.4 814.16 1476.98 806.78C1480.78 801.76 1485.06 797.09 1488.73 791.99C1494.49 783.99 1498.62 775.41 1496.57 765.05C1495.28 758.54 1494.69 751.86 1492.94 745.48C1487.35 725.1 1479.84 705.7 1462.88 691.6C1459.05 688.41 1455.62 684.74 1451.77 681.58C1443.9 675.12 1436.51 667.67 1427.72 662.8C1417.13 656.94 1405.45 652.85 1393.93 648.92C1385.21 645.95 1376.08 643.85 1366.97 642.45C1359.15 641.24 1358.37 635.04 1356.04 629.81C1353.7 624.56 1357.39 621.84 1361.06 619.28C1364.6 616.81 1368.05 614.2 1371.7 611.92C1379.85 606.85 1385.8 599.79 1390.26 591.46C1396.18 580.41 1389.89 562.75 1377.85 559.13C1368.1 556.2 1357.76 554.6 1347.58 553.94C1341.08 553.52 1335.79 552.38 1331.93 547.11C1327.03 540.43 1322.52 533.46 1317.45 526.92C1308.78 515.74 1307.27 515.77 1297.92 525.85C1297.47 526.34 1296.99 526.81 1296.46 527.21C1292.32 530.36 1292 533.94 1294.3 538.59C1297.83 545.73 1300.34 553.4 1304.1 560.41C1307.5 566.75 1305.51 571.14 1301.99 576.71C1296.36 585.6 1289.91 594.93 1287.86 604.9C1284.65 620.51 1286.07 636.52 1292.5 651.87C1296.32 661 1301.51 668.39 1308.66 675.24C1320.16 686.25 1333.14 694.61 1347.62 700.75C1355.55 704.11 1360.8 709.44 1363.17 717.68C1369.5 739.66 1375.88 761.63 1382.17 783.63C1382.71 785.53 1382.71 787.58 1382.97 789.56V789.54Z" fill="#DAEF64"/>
<path d="M1354.34 986.119C1341.16 986.039 1328.69 982.989 1317.25 976.419C1311.99 973.399 1311.9 969.919 1316.14 965.189C1317.88 963.239 1319.92 961.329 1320.96 959.019C1325.01 950.029 1332.16 946.759 1341.56 946.029C1349.46 945.419 1357.27 943.649 1365.12 942.389C1367.09 942.079 1369.06 941.619 1371.04 941.509C1378.42 941.109 1381 943.339 1380.57 950.609C1380.15 957.569 1379.49 964.579 1378.12 971.399C1376.25 980.689 1371.15 984.619 1361.31 985.579C1358.99 985.809 1356.66 985.949 1354.34 986.129V986.119Z" fill="#DAEF64"/>
<path d="M1465.17 943.41C1464.23 944.54 1463.47 946.27 1462.17 946.89C1449.4 952.97 1439.8 963.29 1428.74 971.64C1422 976.73 1414.5 978.5 1406.36 978.19C1400.49 977.97 1399.45 976.63 1400.05 970.92C1400.84 963.34 1401.34 955.71 1402.73 948.24C1403.26 945.38 1405.44 941.27 1407.72 940.6C1414.29 938.66 1421.78 936.5 1428.05 940.08C1437.48 945.46 1446.47 944.27 1455.71 940.84C1459.47 939.44 1462.62 938.66 1465.17 943.4V943.41Z" fill="#DAEF64"/>
<path d="M1220.08 913.91C1227.04 913.06 1232.19 915.64 1236.92 919.23C1244.59 925.05 1252.38 930.77 1259.61 937.11C1263.81 940.79 1268.26 942.95 1273.62 944.04C1280.78 945.49 1287.9 947.2 1294.91 949.24C1300.29 950.8 1302.51 954.76 1300.8 958.85C1299.36 962.28 1296.45 964.62 1292.9 963.21C1283.12 959.32 1273.55 954.92 1263.98 950.54C1261.62 949.46 1259.7 947.48 1257.4 946.23C1243.94 938.9 1233.41 927.91 1222.06 917.96C1221.19 917.2 1220.94 915.72 1220.08 913.91Z" fill="#DAEF64"/>
<path d="M1109.47 768.84C1108.15 767.36 1107.16 766.73 1106.92 765.9C1102.05 748.77 1095.35 731.95 1097.47 713.59C1097.78 710.93 1099.07 708.39 1100.6 703.66C1109.24 720.32 1119.85 733.09 1119.75 750.93C1119.7 759.41 1117.1 764.78 1109.46 768.85L1109.47 768.84Z" fill="#DAEF64"/>
<path d="M1147.86 836.39C1139.98 823.41 1132.66 811.66 1125.69 799.7C1123.3 795.59 1124.11 791.31 1127.67 787.89C1130.26 785.4 1133.69 785.18 1135.63 787.8C1145.29 800.85 1155.09 814.01 1150.98 831.91C1150.83 832.54 1150.52 833.16 1150.17 833.71C1149.82 834.26 1149.33 834.71 1147.87 836.39H1147.86Z" fill="#DAEF64"/>
<path d="M1167.2 862.35C1172.26 861.14 1172.13 865.18 1174.67 868.03C1168.71 868.94 1166.5 867.47 1167.2 862.35Z" fill="#DAEF64"/>
<path d="M1179.65 881.429C1177.57 878.139 1176.65 876.689 1175.26 874.489C1180.42 873.889 1181.38 875.569 1179.65 881.429Z" fill="#DAEF64"/>
<path d="M1433.93 1957.64C1416.03 1966.1 1400.74 1973.89 1385 1980.63C1365.77 1988.85 1346.17 1996.18 1326.73 2003.91C1323.96 2005.01 1321.2 2006.12 1318.46 2007.31C1307.57 2012.03 1297.74 2019.02 1285.96 2021.92C1282.58 2022.75 1279.66 2025.44 1276.5 2027.22C1268.12 2031.93 1260.33 2038.19 1249.93 2037.79C1246.31 2037.65 1243.3 2038.57 1241.54 2041.95C1239.63 2045.63 1236.35 2046.43 1232.62 2047.35C1226.9 2048.77 1221.27 2050.81 1215.84 2053.14C1198.46 2060.6 1181.05 2068 1163.93 2076.03C1148.05 2083.48 1132.59 2091.85 1116.81 2099.53C1108.79 2103.43 1100.33 2106.44 1092.3 2110.33C1072.85 2119.73 1053.84 2130.08 1034.09 2138.75C1016.05 2146.67 997.774 2154.1 978.384 2158.72C967.584 2161.3 957.444 2166.82 947.154 2171.35C932.974 2177.59 919.394 2185.53 903.314 2186.17C902.364 2186.21 901.124 2186.32 900.524 2186.91C893.094 2194.24 883.584 2193.41 874.334 2194.06C870.604 2194.32 866.884 2195.66 863.294 2196.9C859.244 2198.3 849.824 2195.63 847.744 2191.81C836.964 2171.97 826.074 2152.18 815.734 2132.12C812.414 2125.67 811.094 2118.23 808.074 2111.59C802.454 2099.2 796.184 2087.11 790.334 2074.83C784.194 2061.93 778.464 2048.83 772.084 2036.06C767.964 2027.8 762.674 2020.13 758.504 2011.9C755.054 2005.11 752.364 1997.91 749.534 1990.82C744.854 1979.11 740.624 1967.21 735.644 1955.63C728.424 1938.84 720.614 1922.3 713.204 1905.59C704.594 1886.17 696.184 1866.67 687.564 1847.26C685.824 1843.33 683.644 1839.57 681.534 1835.82C677.474 1828.59 673.304 1821.64 672.854 1812.8C672.614 1808.1 669.904 1803.3 667.534 1798.97C662.914 1790.52 658.464 1781.81 652.614 1774.24C645.434 1764.96 649.264 1756.62 653.294 1748.45C657.094 1740.74 663.754 1738.03 672.894 1737.67C682.914 1737.27 693.054 1734.28 702.704 1731.11C716.224 1726.66 729.434 1721.21 742.594 1715.76C748.674 1713.24 754.464 1709.92 760.164 1706.6C782.924 1693.33 807.064 1683.23 831.724 1674.08C854.154 1665.76 876.304 1656.66 898.394 1647.48C924.774 1636.52 950.514 1623.79 977.384 1614.25C1004.86 1604.49 1030.42 1591.07 1055.68 1577.16C1091.01 1557.7 1127.5 1541.11 1165.2 1527.03C1184.75 1519.73 1204.38 1512.6 1224.26 1506.32C1230.37 1504.39 1237.46 1505.54 1244.1 1505.26C1250.69 1504.99 1257.31 1505.01 1263.86 1504.33C1270.72 1503.61 1272.69 1504.1 1275.59 1510.66C1282.31 1525.87 1287.65 1541.79 1295.56 1556.33C1304.72 1573.17 1305.56 1591.95 1311.09 1609.57C1311.69 1611.47 1312.12 1613.43 1312.85 1615.28C1321.26 1636.6 1329.66 1657.93 1338.2 1679.2C1339.8 1683.19 1342.28 1686.83 1343.85 1690.82C1348.83 1703.47 1354.52 1715.95 1358.19 1728.98C1363.33 1747.23 1369.57 1764.95 1376.59 1782.56C1384.55 1802.57 1390.39 1823.43 1397.13 1843.93C1397.65 1845.51 1397.57 1847.51 1398.53 1848.67C1407.27 1859.23 1408.52 1872.94 1413.83 1884.93C1418.12 1894.61 1420.97 1904.93 1424.59 1914.91C1426.62 1920.5 1428.83 1926.03 1431.16 1931.5C1433.37 1936.67 1434.19 1941.63 1430.84 1946.69C1428.39 1950.39 1427.86 1954.16 1433.91 1957.65L1433.93 1957.64ZM1236.02 1768.09C1236.33 1763.69 1236.71 1760.46 1236.76 1757.23C1236.89 1747.97 1236.97 1738.71 1236.89 1729.45C1236.81 1720.99 1232.88 1714.53 1225.07 1711.48C1219.59 1709.34 1213.59 1708.02 1207.73 1707.54C1199.77 1706.89 1191.88 1707.21 1184.84 1702.2C1182.64 1700.64 1179.1 1700.95 1176.16 1700.43C1171.96 1699.69 1167.78 1698.65 1163.54 1698.31C1154.98 1697.62 1146.39 1697.18 1137.81 1696.9C1132.54 1696.72 1127.14 1697.77 1122 1696.97C1098.29 1693.25 1074.49 1691.25 1050.49 1691.59C1048.18 1691.62 1045.87 1691.09 1043.56 1690.85C1025.06 1688.92 1006.56 1686.92 988.044 1685.12C983.774 1684.7 979.434 1685.18 975.154 1684.84C962.964 1683.89 950.794 1682.7 938.604 1681.7C935.954 1681.48 933.004 1682.39 930.674 1681.52C922.714 1678.53 914.754 1679.46 907.244 1681.94C889.354 1687.85 877.124 1696.63 878.094 1717.61C878.594 1728.47 875.364 1738.36 871.274 1748.35C865.294 1762.96 854.484 1775.15 851.754 1791.53C850.384 1799.74 850.664 1807.86 849.774 1815.98C849.554 1818.02 852.014 1820.48 853.524 1822.55C856.814 1827.06 861.114 1831.05 863.514 1835.97C869.274 1847.78 874.374 1859.93 879.364 1872.1C883.744 1882.77 888.324 1893.44 891.534 1904.49C896.464 1921.43 903.964 1937.25 910.784 1953.39C917.224 1968.63 923.664 1983.87 929.644 1999.29C933.714 2009.79 937.714 2020.41 940.414 2031.31C943.704 2044.62 951.024 2055.43 958.664 2066.3C963.994 2073.88 970.954 2077.61 980.214 2077.62C981.794 2077.62 983.704 2079.18 984.874 2080.53C986.984 2082.96 988.664 2085.78 991.244 2089.47C996.484 2085.66 1001.64 2081.9 1005.7 2078.95C1010.54 2080.79 1014.14 2083.06 1017.8 2083.18C1019.64 2083.24 1021.56 2079.36 1023.57 2077.4C1024.24 2076.75 1025.27 2076.39 1026.19 2076.09C1031.64 2074.33 1034.11 2070.24 1034.68 2064.9C1035.28 2059.31 1038.19 2055.94 1043.32 2053.79C1054.75 2048.99 1061.23 2038.59 1069.31 2030.03C1070.35 2028.92 1070.63 2027.04 1071.11 2025.47C1072.18 2022 1072.93 2018.42 1074.2 2015.03C1077.56 2006.06 1082.12 1997.41 1084.38 1988.18C1087.41 1975.77 1091.94 1965.08 1103.73 1958.67C1105.73 1957.58 1107.32 1955.72 1109.06 1954.17C1126.44 1938.72 1140.04 1919.76 1156.22 1903.18C1163.13 1896.1 1169.51 1888.49 1176.07 1881.06C1185.04 1870.89 1194.16 1860.83 1202.76 1850.35C1205.84 1846.6 1206.86 1841.1 1210.09 1837.57C1219.49 1827.29 1229.69 1817.74 1239.25 1807.6C1243.55 1803.04 1247.38 1797.95 1250.77 1792.68C1251.88 1790.94 1251.96 1786.8 1250.73 1785.6C1246.1 1781.1 1247.03 1776.05 1248.31 1770.88C1243.9 1769.88 1239.91 1768.97 1236.04 1768.09H1236.02Z" fill="#DAEF64"/>
<path d="M1488.81 1936.74C1495.18 1941.32 1500.91 1945.43 1506.47 1949.43C1510.49 1950.11 1514.63 1951.4 1518.76 1951.35C1523.93 1951.28 1529.2 1950.53 1534.23 1949.29C1540.18 1947.82 1545.2 1947.95 1549.72 1952.8C1551.03 1954.21 1554.29 1955.29 1555.94 1954.65C1569.24 1949.53 1577.42 1958.35 1585.19 1965.98C1593.91 1974.55 1601.18 1984.59 1609.16 1993.93C1619.39 2005.9 1619.56 2020.08 1618.08 2034.57C1616.81 2046.95 1611.33 2057.04 1602.61 2066.08C1585.79 2083.49 1566.97 2097.58 1544.84 2107.75C1534.32 2112.58 1525.02 2111.28 1516.55 2105.87C1503.8 2097.73 1492.09 2087.96 1479.83 2079.02C1476.29 2076.44 1474.93 2073.52 1474.94 2068.98C1474.94 2060.69 1473.56 2052.4 1473.44 2044.1C1473.27 2032.03 1468.64 2022.25 1459.83 2014.23C1458.87 2013.36 1458.14 2012.21 1457.44 2011.1C1457.11 2010.57 1457.09 2009.84 1456.67 2008.14C1463.83 2005.44 1471.01 2002.32 1478.44 2000.03C1492.42 1995.72 1496.63 1987.4 1491.71 1973.59C1488.5 1964.58 1485.71 1955.41 1482.96 1946.24C1481.6 1941.7 1485.39 1939.87 1488.82 1936.74H1488.81Z" fill="#DAEF64"/>
<path d="M692.214 1193.92C678.274 1194.68 664.344 1195.72 650.404 1196.13C639.184 1196.46 627.944 1196.05 616.714 1195.92C606.224 1195.8 595.724 1195.7 585.234 1195.39C581.944 1195.29 578.564 1194.93 575.424 1193.99C560.874 1189.64 545.674 1186.89 533.114 1177.38C531.284 1176 529.124 1174.92 526.964 1174.13C510.524 1168.15 502.824 1155.31 499.204 1139.16C498.404 1135.59 497.334 1132.08 496.464 1128.53C491.794 1109.57 487.154 1090.6 482.484 1071.64C479.564 1059.77 476.054 1048.01 473.874 1036.01C472.714 1029.62 473.544 1022.81 473.984 1016.22C474.314 1011.28 475.914 1006.41 476.124 1001.48C476.774 986.639 482.494 973.029 486.454 959.069C490.784 943.779 496.024 928.73 505.664 915.54C516.654 900.5 527.154 885.089 541.924 873.359C548.944 867.779 556.234 862.519 563.634 857.449C566.314 855.609 569.864 853.359 572.694 853.739C580.844 854.829 584.134 849.85 588.594 844.6C591.744 840.88 597.374 839.079 602.134 836.959C608.114 834.289 614.454 832.409 620.444 829.749C629.534 825.709 638.524 821.419 647.434 816.989C660.784 810.339 674.174 813.81 687.434 816.84C705.164 820.89 722.874 825.08 740.364 830.04C750.524 832.92 760.804 836.399 769.944 841.549C776.924 845.479 782.224 852.409 788.204 858.079C791.814 861.499 795.274 865.079 798.834 868.559C800.024 869.719 801.954 870.519 802.464 871.889C808.254 887.349 822.344 897.539 828.144 913.049C833.024 926.099 838.804 938.809 843.844 951.799C845.004 954.799 844.844 958.329 845.184 961.629C847.684 986.349 850.314 1011.07 852.474 1035.82C852.864 1040.26 851.404 1044.92 850.484 1049.41C849.154 1055.87 847.524 1062.26 846.044 1068.69C845.674 1070.31 845.504 1071.98 845.004 1073.56C838.084 1095.58 828.834 1116.33 814.894 1135.06C806.084 1146.9 794.814 1155.06 782.374 1162.1C771.164 1168.44 760.144 1175.33 748.364 1180.4C737.284 1185.17 726.544 1191.39 713.804 1191.88C706.654 1192.15 699.574 1194.02 692.464 1195.17C692.384 1194.77 692.304 1194.36 692.234 1193.96L692.214 1193.92ZM716.164 879.41C711.104 879.41 705.304 880.259 699.894 879.169C694.324 878.049 691.314 879.909 688.134 883.979C680.984 893.139 671.344 897.369 659.704 897.949C649.834 898.439 639.994 899.709 630.174 900.929C628.374 901.149 626.504 902.479 625.084 903.759C612.374 915.159 606.284 930.119 607.394 946.489C608.474 962.489 610.934 978.83 619.784 993.05C623.544 999.1 623.164 1005.04 620.154 1011.03C615.384 1020.54 610.664 1030.08 605.504 1039.37C601.924 1045.82 596.674 1045.95 592.294 1039.96C590.554 1037.57 589.494 1034.68 588.064 1032.06C582.204 1021.35 572.004 1019.45 562.994 1027.23C560.744 1029.17 558.324 1031.14 555.644 1032.32C551.474 1034.15 549.634 1037.24 549.014 1041.45C547.684 1050.45 548.094 1060.01 552.134 1067.53C556.714 1076.07 564.324 1083.17 571.414 1090.09C574.794 1093.39 576.254 1096.31 574.864 1100.48C572.124 1108.66 569.254 1116.8 566.204 1124.87C563.734 1131.4 560.384 1137.65 558.364 1144.31C554.864 1155.81 557.564 1157.84 567.904 1165.59C573.514 1169.79 582.174 1167.97 587.214 1161.16C594.684 1151.07 602.034 1140.76 608.004 1129.76C612.204 1122.02 617.634 1119.31 625.684 1119.94C634.594 1120.64 643.484 1121.72 652.404 1122.04C662.934 1122.42 673.724 1123.63 683.064 1116.71C687.324 1113.55 691.884 1110.78 695.974 1107.42C697.934 1105.81 700.154 1103.38 700.474 1101.07C702.994 1083 711.354 1065.95 705.504 1046.41C701.944 1034.52 696.504 1023.69 692.004 1012.4C686.294 998.09 685.994 989.569 698.574 977.319C701.874 979.609 705.334 982.01 708.804 984.42C717.464 982.19 725.794 979.21 732.334 972.54C738.324 966.44 741.134 958.719 739.894 950.809C738.854 944.179 735.424 937.679 731.994 931.729C727.394 923.769 724.284 916.359 730.384 907.739C732.014 905.429 731.864 901.939 733.164 899.309C735.654 894.249 733.524 891.089 729.504 888.389C725.134 885.459 720.784 882.499 716.214 879.419L716.164 879.41Z" fill="#DAEF64"/>
<path d="M141.864 2259.43C140.724 2262.75 140.404 2265.53 138.934 2267.4C137.794 2268.86 135.224 2269.19 133.284 2270.02C132.394 2267.83 130.404 2265.38 130.844 2263.5C132.034 2258.43 135.804 2257.32 141.864 2259.42V2259.43Z" fill="#DAEF64"/>
<path d="M967.024 259.54C966.654 256.62 966.304 253.7 965.904 250.79C963.674 234.66 962.474 218.49 965.264 202.34C967.754 187.95 970.814 173.65 973.414 159.28C976.544 142 980.114 124.87 985.474 108.08C988.164 99.6399 988.524 90.4899 990.534 81.7999C992.304 74.1099 994.164 73.1299 1002.36 73.5399C1013.58 74.0999 1024.76 76.0199 1036.04 73.3599C1041.11 72.1599 1046.41 73.8499 1049.86 77.5899C1056.57 84.8599 1062.89 92.5499 1068.77 100.51C1073.89 107.45 1078.07 115.08 1082.9 122.24C1087.22 128.65 1089.45 135.55 1091.44 143.1C1094.82 155.93 1094.39 169.07 1096.83 181.94C1098.39 190.17 1096.39 199.13 1095.69 207.74C1093.78 231.26 1094.9 254.8 1094.69 278.33C1094.51 298.42 1091.5 318.41 1085.48 338.08C1078.85 359.76 1068.21 378.95 1056.2 397.76C1052.09 404.2 1046.48 408.7 1040.2 412.43C1035.04 415.5 1028.7 415.91 1024.06 412.32C1014.76 405.13 1004.71 398.65 999.774 386.82C995.474 376.51 989.444 366.94 984.414 356.92C976.664 341.48 975.094 324.6 973.114 307.78C971.994 298.25 970.114 288.81 968.684 279.31C967.704 272.78 966.904 266.23 966.024 259.68C966.354 259.64 966.694 259.6 967.024 259.55V259.54ZM1037.21 373.39C1042.48 368.9 1047.24 364.78 1048.61 358.11C1049.88 351.95 1051.38 345.84 1052.41 339.64C1053.44 333.43 1055.04 327.07 1054.58 320.91C1053.1 301.11 1049.43 281.46 1051.04 261.45C1051.36 257.5 1050.67 253.48 1050.56 249.48C1049.98 227.9 1049.12 206.32 1048.96 184.74C1048.81 164.44 1048.59 144.26 1040.91 125.01C1039.29 120.96 1037.63 117.36 1033.17 115.22C1029.99 113.69 1027.93 110.34 1023.56 112.77C1019.03 115.29 1016.31 118.33 1016.97 123.84C1017.29 126.46 1016.83 129.17 1017.01 131.82C1017.34 136.59 1015.96 139.45 1011.19 141.97C1007.21 144.06 1003.57 148.55 1001.87 152.82C998.954 160.17 997.134 168.09 995.874 175.94C995.104 180.69 995.854 185.8 996.604 190.65C998.274 201.48 1002.12 211.58 1006.05 221.85C1013.27 240.74 1016.34 260.9 1019.73 280.84C1020.25 283.87 1019.8 287.07 1019.8 290.81C1014.27 288.29 1010.17 286.35 1006.02 284.54C995.974 280.15 990.104 282.56 987.744 293.28C985.414 303.88 987.344 314.55 990.944 324.63C993.364 331.42 999.264 335.32 1005.38 339.02C1008.49 340.9 1011.92 344.51 1012.56 347.84C1015.2 361.67 1023.92 369.02 1037.21 373.4V373.39Z" fill="#DAEF64"/>
<path d="M909.474 275.42C911.344 287.24 913.044 298.32 914.884 309.38C915.684 314.18 916.884 318.91 917.684 323.71C918.754 330.2 919.614 336.73 920.664 343.92C905.934 350.46 891.674 352.82 874.944 344.42C871.584 335.22 866.924 323.93 863.384 312.3C861.094 304.77 859.864 296.79 859.234 288.92C858.734 282.68 861.314 279.84 867.324 280.08C878.814 280.55 889.674 277.64 900.714 275.47C902.924 275.03 905.294 275.41 909.484 275.41L909.474 275.42Z" fill="#DAEF64"/>
<path d="M864.424 258.03C865.414 247.96 865.774 239.41 867.214 231.05C868.554 223.26 871.024 215.67 873.024 207.99C874.564 202.05 878.314 199.01 884.554 199.12C888.884 199.2 893.214 198.99 897.534 199.14C901.774 199.29 904.554 201.56 904.704 205.9C905.154 218.82 905.784 231.75 905.564 244.67C905.424 252.8 904.794 252.76 896.994 253.95C889.454 255.1 881.944 256.41 874.394 257.5C871.834 257.87 869.204 257.79 864.434 258.03H864.424Z" fill="#DAEF64"/>
<path d="M946.684 408.92C932.644 406.44 920.944 404.52 909.304 402.27C899.654 400.4 889.634 388.88 888.784 379.17C888.324 373.88 891.094 370.84 896.654 372.17C905.484 374.28 913.634 371.55 921.944 369.9C929.294 368.43 931.384 368.99 934.754 375.59C938.224 382.37 941.744 389.16 944.594 396.21C945.974 399.63 945.874 403.66 946.674 408.93L946.684 408.92Z" fill="#DAEF64"/>
<path d="M882.864 149.02C892.724 148.26 901.323 147.59 910.543 146.88C909.423 155.91 908.774 163.44 907.374 170.82C906.994 172.84 904.453 175.84 902.713 175.98C895.623 176.57 888.463 176.23 881.343 176.23C876.753 166.22 884.394 158.42 882.864 149.02Z" fill="#DAEF64"/>
<path d="M891.514 120.88C888.604 113.86 890.904 107.53 893.464 101.54C894.234 99.7398 897.564 97.9698 899.674 98.0298C903.854 98.1398 908.134 99.1198 912.104 100.5C915.824 101.78 919.484 103.72 918.384 109.03C917.284 114.3 913.614 118.75 909.084 119.3C903.574 119.97 898.034 120.31 891.514 120.89V120.88Z" fill="#DAEF64"/>
<path d="M929.444 75.3597C922.774 75.3597 917.104 75.8797 911.594 75.1397C908.754 74.7597 904.634 72.6196 903.954 70.3896C903.214 67.9696 905.074 63.8997 907.064 61.6697C911.554 56.6297 924.504 55.0697 933.384 58.3297C932.124 63.7697 930.824 69.3697 929.444 75.3597Z" fill="#DAEF64"/>
<path d="M1382.97 789.54C1382.72 787.56 1382.72 785.51 1382.17 783.61C1375.88 761.61 1369.51 739.64 1363.17 717.66C1360.8 709.42 1355.54 704.09 1347.62 700.73C1333.14 694.59 1320.16 686.23 1308.66 675.22C1301.51 668.38 1296.32 660.98 1292.5 651.85C1286.08 636.5 1284.66 620.49 1287.86 604.88C1289.91 594.9 1296.36 585.58 1301.99 576.69C1305.51 571.13 1307.5 566.73 1304.1 560.39C1300.34 553.38 1297.83 545.71 1294.3 538.57C1292 533.93 1292.33 530.35 1296.46 527.19C1296.99 526.79 1297.47 526.32 1297.92 525.83C1307.27 515.75 1308.78 515.72 1317.45 526.9C1322.52 533.44 1327.03 540.41 1331.93 547.09C1335.8 552.36 1341.09 553.5 1347.58 553.92C1357.76 554.58 1368.1 556.18 1377.85 559.11C1389.89 562.73 1396.17 580.39 1390.26 591.44C1385.8 599.77 1379.85 606.83 1371.7 611.9C1368.04 614.18 1364.59 616.79 1361.06 619.26C1357.39 621.82 1353.7 624.54 1356.04 629.79C1358.37 635.02 1359.14 641.22 1366.97 642.43C1376.08 643.83 1385.21 645.93 1393.93 648.9C1405.45 652.83 1417.13 656.92 1427.72 662.78C1436.51 667.64 1443.89 675.09 1451.77 681.56C1455.62 684.72 1459.05 688.39 1462.88 691.58C1479.84 705.68 1487.35 725.08 1492.94 745.46C1494.69 751.83 1495.28 758.52 1496.57 765.03C1498.62 775.4 1494.49 783.98 1488.73 791.97C1485.05 797.07 1480.77 801.74 1476.98 806.76C1471.4 814.14 1466.04 821.68 1460.53 829.11C1458.36 832.04 1456.2 834.99 1453.79 837.72C1449.85 842.18 1446.09 845.97 1446.25 853.13C1446.43 861.2 1433.05 867.44 1424.19 864.07C1420.23 862.56 1416.29 860.29 1413.16 857.45C1409.63 854.24 1405.9 852.84 1401.42 853.27C1395.14 853.87 1388.18 853.25 1382.77 855.81C1369.77 861.97 1358.11 857.83 1346.16 853.56C1344.29 852.89 1342.59 851.46 1340.69 851.17C1327.51 849.14 1323.04 838.44 1317.76 828.5C1315.94 825.07 1316.55 822.49 1319.39 819.68C1321.92 817.17 1323.84 813.95 1325.62 810.81C1330.3 802.57 1341.03 798.97 1349.96 802.73C1351.74 803.48 1353.89 804.34 1355.65 804C1363.44 802.52 1371.25 800.99 1378.84 798.73C1382.93 797.51 1383.51 793.49 1382.97 789.52V789.54ZM1400.98 723.73C1401.09 737.9 1412.89 775.87 1419.08 781.84C1427.85 779.22 1433.23 772.94 1433.78 764.1C1434.27 756.24 1432.45 748.21 1426.88 741.87C1422.3 736.65 1417.34 731.74 1412.88 726.42C1409.66 722.58 1406.18 721.34 1400.98 723.73Z" fill="black"/>
<path d="M1236.02 1768.09C1239.89 1768.97 1243.88 1769.88 1248.29 1770.88C1247.01 1776.05 1246.08 1781.1 1250.71 1785.6C1251.95 1786.8 1251.87 1790.94 1250.75 1792.68C1247.37 1797.95 1243.53 1803.04 1239.23 1807.6C1229.67 1817.74 1219.47 1827.29 1210.07 1837.57C1206.84 1841.11 1205.81 1846.61 1202.74 1850.35C1194.14 1860.83 1185.02 1870.88 1176.05 1881.06C1169.5 1888.49 1163.12 1896.1 1156.2 1903.18C1140.02 1919.76 1126.42 1938.71 1109.04 1954.17C1107.3 1955.72 1105.71 1957.58 1103.71 1958.67C1091.92 1965.07 1087.39 1975.77 1084.36 1988.18C1082.11 1997.41 1077.55 2006.06 1074.18 2015.03C1072.91 2018.42 1072.16 2022 1071.09 2025.47C1070.61 2027.04 1070.33 2028.93 1069.29 2030.03C1061.21 2038.59 1054.74 2048.99 1043.3 2053.79C1038.17 2055.94 1035.26 2059.31 1034.66 2064.9C1034.09 2070.23 1031.62 2074.33 1026.17 2076.09C1025.24 2076.39 1024.22 2076.74 1023.55 2077.4C1021.54 2079.37 1019.62 2083.24 1017.78 2083.18C1014.11 2083.05 1010.52 2080.79 1005.68 2078.95C1001.62 2081.9 996.464 2085.66 991.224 2089.47C988.644 2085.78 986.964 2082.96 984.854 2080.53C983.684 2079.18 981.774 2077.62 980.194 2077.62C970.934 2077.62 963.974 2073.88 958.644 2066.3C951.004 2055.43 943.684 2044.61 940.394 2031.31C937.694 2020.41 933.694 2009.79 929.624 1999.29C923.644 1983.87 917.214 1968.62 910.764 1953.39C903.944 1937.25 896.444 1921.43 891.514 1904.49C888.304 1893.45 883.724 1882.77 879.344 1872.1C874.354 1859.93 869.254 1847.78 863.494 1835.97C861.094 1831.05 856.794 1827.07 853.504 1822.55C851.994 1820.48 849.534 1818.02 849.754 1815.98C850.634 1807.86 850.364 1799.74 851.734 1791.53C854.474 1775.14 865.284 1762.95 871.254 1748.35C875.344 1738.36 878.574 1728.47 878.074 1717.61C877.104 1696.63 889.334 1687.84 907.224 1681.94C914.734 1679.46 922.694 1678.54 930.654 1681.52C932.994 1682.4 935.944 1681.49 938.584 1681.7C950.774 1682.7 962.944 1683.89 975.134 1684.84C979.414 1685.17 983.764 1684.7 988.024 1685.12C1006.54 1686.92 1025.03 1688.92 1043.54 1690.85C1045.85 1691.09 1048.17 1691.62 1050.47 1691.59C1074.47 1691.25 1098.27 1693.25 1121.98 1696.97C1127.12 1697.78 1132.52 1696.73 1137.79 1696.9C1146.37 1697.19 1154.96 1697.62 1163.52 1698.31C1167.76 1698.65 1171.94 1699.69 1176.14 1700.43C1179.07 1700.95 1182.61 1700.64 1184.82 1702.2C1191.87 1707.21 1199.75 1706.89 1207.71 1707.54C1213.58 1708.02 1219.58 1709.34 1225.05 1711.48C1232.86 1714.53 1236.79 1720.99 1236.87 1729.45C1236.95 1738.71 1236.87 1747.97 1236.74 1757.23C1236.7 1760.46 1236.31 1763.69 1236 1768.09H1236.02ZM1005.89 1932.47C1008.92 1930.95 1011.45 1930.16 1013.4 1928.63C1024.21 1920.12 1032.73 1909.43 1039.68 1897.77C1043.9 1890.69 1048.15 1883.65 1052.46 1876.62C1061.02 1862.65 1071.62 1850.48 1082.15 1838.11C1089.88 1829.03 1097.58 1819.77 1104.02 1809.78C1109.14 1801.84 1115.15 1795.07 1121.82 1788.54C1128.44 1782.07 1134.35 1774.86 1140.44 1767.87C1143.15 1764.77 1144.68 1761.23 1142.81 1756.83C1137.23 1755.7 1131.82 1754.11 1126.31 1753.58C1114.5 1752.44 1102.65 1751.34 1090.81 1751.16C1076.66 1750.95 1062.47 1752.44 1048.36 1751.88C1031.93 1751.23 1015.59 1748.65 999.164 1747.84C979.624 1746.88 960.514 1749.9 941.054 1757.06C941.774 1760.35 941.984 1763.63 943.204 1766.48C948.954 1779.9 954.784 1793.3 960.984 1806.52C967.804 1821.09 973.424 1836.28 974.074 1852.21C974.614 1865.56 980.284 1876.67 985.644 1887.73C990.374 1897.49 995.384 1907.04 998.964 1917.32C1000.68 1922.25 1003.29 1926.87 1005.88 1932.46L1005.89 1932.47Z" fill="black"/>
<path d="M716.164 879.41C720.734 882.5 725.084 885.45 729.454 888.38C733.474 891.08 735.604 894.24 733.114 899.3C731.814 901.94 731.964 905.43 730.334 907.73C724.234 916.35 727.344 923.76 731.944 931.72C735.374 937.67 738.804 944.17 739.844 950.8C741.094 958.72 738.284 966.43 732.284 972.53C725.734 979.2 717.414 982.18 708.754 984.41C705.284 982.01 701.834 979.61 698.524 977.31C685.954 989.56 686.244 998.07 691.954 1012.39C696.464 1023.68 701.894 1034.5 705.454 1046.4C711.304 1065.94 702.944 1082.99 700.424 1101.06C700.104 1103.37 697.884 1105.79 695.924 1107.41C691.834 1110.77 687.274 1113.54 683.014 1116.7C673.674 1123.63 662.884 1122.42 652.354 1122.03C643.434 1121.71 634.544 1120.63 625.634 1119.93C617.594 1119.3 612.154 1122.01 607.954 1129.75C601.984 1140.75 594.634 1151.07 587.164 1161.15C582.124 1167.95 573.474 1169.78 567.854 1165.58C557.514 1157.84 554.804 1155.8 558.314 1144.3C560.344 1137.64 563.684 1131.4 566.154 1124.86C569.204 1116.79 572.074 1108.65 574.814 1100.47C576.214 1096.29 574.754 1093.38 571.364 1090.08C564.274 1083.16 556.664 1076.06 552.084 1067.52C548.054 1060 547.644 1050.44 548.964 1041.44C549.584 1037.22 551.424 1034.14 555.594 1032.31C558.274 1031.13 560.694 1029.16 562.944 1027.22C571.964 1019.43 582.154 1021.34 588.014 1032.05C589.454 1034.67 590.504 1037.56 592.244 1039.95C596.614 1045.94 601.864 1045.81 605.454 1039.36C610.614 1030.07 615.334 1020.53 620.104 1011.02C623.104 1005.03 623.494 999.09 619.734 993.04C610.884 978.83 608.434 962.48 607.344 946.48C606.234 930.11 612.334 915.15 625.034 903.75C626.454 902.47 628.324 901.15 630.124 900.92C639.944 899.71 649.784 898.43 659.654 897.94C671.294 897.36 680.934 893.13 688.084 883.97C691.264 879.91 694.274 878.05 699.844 879.16C705.254 880.25 711.054 879.4 716.114 879.4L716.164 879.41ZM653.074 1064.68L650.414 1064.13C650.124 1065.66 649.804 1067.18 649.614 1068.72C649.614 1068.79 651.204 1069.23 651.264 1069.12C651.954 1067.68 652.494 1066.17 653.074 1064.68Z" fill="black"/>
<path d="M1037.21 373.39C1023.92 369.01 1015.2 361.66 1012.56 347.83C1011.92 344.5 1008.49 340.89 1005.38 339.01C999.274 335.32 993.364 331.41 990.944 324.62C987.344 314.54 985.414 303.87 987.744 293.27C990.104 282.56 995.974 280.14 1006.02 284.53C1010.17 286.35 1014.27 288.28 1019.8 290.8C1019.8 287.05 1020.24 283.86 1019.73 280.83C1016.34 260.89 1013.27 240.73 1006.05 221.84C1002.12 211.56 998.274 201.46 996.604 190.64C995.854 185.79 995.104 180.68 995.874 175.93C997.144 168.09 998.954 160.17 1001.87 152.81C1003.56 148.55 1007.21 144.06 1011.19 141.96C1015.97 139.44 1017.34 136.58 1017.01 131.81C1016.83 129.16 1017.28 126.45 1016.97 123.83C1016.31 118.32 1019.02 115.28 1023.56 112.76C1027.93 110.33 1029.99 113.67 1033.17 115.21C1037.62 117.36 1039.29 120.95 1040.91 125C1048.59 144.25 1048.81 164.44 1048.96 184.73C1049.12 206.31 1049.98 227.89 1050.56 249.47C1050.67 253.46 1051.36 257.49 1051.04 261.44C1049.43 281.45 1053.1 301.1 1054.58 320.9C1055.04 327.06 1053.44 333.42 1052.41 339.63C1051.38 345.83 1049.88 351.95 1048.61 358.1C1047.23 364.77 1042.48 368.89 1037.21 373.38V373.39Z" fill="black"/>
<path d="M1400.98 723.73C1406.19 721.34 1409.66 722.58 1412.88 726.42C1417.35 731.74 1422.3 736.65 1426.88 741.87C1432.45 748.22 1434.26 756.25 1433.78 764.1C1433.23 772.94 1427.85 779.22 1419.08 781.84C1412.89 775.87 1401.09 737.9 1400.98 723.73Z" fill="#DAEF64"/>
<path d="M1005.89 1932.47C1003.3 1926.87 1000.68 1922.26 998.974 1917.33C995.394 1907.04 990.384 1897.5 985.654 1887.74C980.294 1876.68 974.624 1865.57 974.084 1852.22C973.434 1836.3 967.814 1821.11 960.994 1806.53C954.804 1793.31 948.974 1779.91 943.214 1766.49C941.994 1763.64 941.784 1760.35 941.064 1757.07C960.524 1749.91 979.624 1746.89 999.174 1747.85C1015.6 1748.65 1031.94 1751.24 1048.37 1751.89C1062.49 1752.45 1076.68 1750.96 1090.82 1751.17C1102.67 1751.35 1114.52 1752.45 1126.32 1753.59C1131.83 1754.12 1137.24 1755.71 1142.82 1756.84C1144.69 1761.24 1143.16 1764.78 1140.45 1767.88C1134.35 1774.87 1128.44 1782.08 1121.83 1788.55C1115.15 1795.08 1109.15 1801.85 1104.03 1809.79C1097.59 1819.79 1089.89 1829.04 1082.16 1838.12C1071.64 1850.49 1061.03 1862.66 1052.47 1876.63C1048.16 1883.66 1043.92 1890.7 1039.69 1897.78C1032.73 1909.44 1024.22 1920.13 1013.41 1928.64C1011.46 1930.17 1008.93 1930.96 1005.9 1932.48L1005.89 1932.47Z" fill="#DAEF64"/>
<path d="M653.074 1064.68C652.494 1066.17 651.954 1067.68 651.264 1069.12C651.214 1069.23 649.604 1068.79 649.614 1068.72C649.804 1067.18 650.124 1065.66 650.414 1064.13L653.074 1064.68Z" fill="#DAEF64"/>
</svg>
